<svg xmlns="http://www.w3.org/2000/svg" viewBox="0 0 118.13 168"><defs><style>.cls-1{fill:#6da7be;}.cls-2{fill:#254b59;}.cls-3{fill:#3d7c92;}</style></defs><g id="Шар_2" data-name="Шар 2"><g id="Шар_6" data-name="Шар 6"><path class="cls-1" d="M107.33,56.57l4.32-2.49L102.82,49a2.15,2.15,0,0,0-2.3.09L89.46,55.45a30.61,30.61,0,0,0-61,3.62,2.16,2.16,0,0,0,2.16,2.16H79.46L29.53,90.05a2.16,2.16,0,0,0-1.08,1.87v64.46l-12.06,7-12.07-7V59.07a54.74,54.74,0,0,1,109.16-6,6.34,6.34,0,0,1,4.33-.22A59.07,59.07,0,0,0,0,59.07v98.56a2.16,2.16,0,0,0,1.08,1.87l14.22,8.21a2.17,2.17,0,0,0,2.17,0l14.22-8.21a2.16,2.16,0,0,0,1.08-1.87V93.17l69-39.82Zm-74.47.34a26.29,26.29,0,0,1,52.41,0Z"/><path class="cls-2" d="M73.29,168a2.22,2.22,0,0,1-1.09-.29,2.17,2.17,0,0,1-1.07-1.87V116.56a2.17,2.17,0,0,1,1.07-1.87l42.68-24.64a2.19,2.19,0,0,1,2.16,0,2.16,2.16,0,0,1,1.08,1.87v49a2.16,2.16,0,0,1-1.07,2.11l-14.22,8.21a2.14,2.14,0,0,1-2.16,0,2.16,2.16,0,0,1-1.08-1.87V120.3L89.67,126v31.54a2.17,2.17,0,0,1-1.08,1.94l-14.22,8.21A2.21,2.21,0,0,1,73.29,168Z"/><path class="cls-3" d="M107.32,89.43l5.4-3.12a6.45,6.45,0,0,1,3.24-.87,6.35,6.35,0,0,1,2.16.39V59.24a2,2,0,0,0-.07-.73,2.17,2.17,0,0,0-3.31-1.23l-71,41a2.16,2.16,0,0,0-1.07,1.87v65.7a2.17,2.17,0,0,0,1.07,1.87,2.17,2.17,0,0,0,2.17,0l14.22-8.21a2.16,2.16,0,0,0,1.08-1.87v-48l40.5-23.38Z"/></g></g></svg>