<svg xmlns="http://www.w3.org/2000/svg" viewBox="0 0 255.91 256.32"><defs><style>.cls-1{fill:#e4eff3;}</style></defs><g id="Шар_2" data-name="Шар 2"><g id="Шар_2-2" data-name="Шар 2"><polyline class="cls-1" points="116.33 146.4 127.44 116.79 87.36 146.4"/><path class="cls-1" d="M13.44,152a.43.43,0,0,1-.25.15l-1,.2a4.73,4.73,0,0,1-.36,3.36,4.16,4.16,0,0,1-2.66,1.83,2.77,2.77,0,0,1-.43.1l-.65.12a4,4,0,0,1-3.16-.68,4.71,4.71,0,0,1-1.65-2.94l-.86.17a.38.38,0,0,1-.28,0A.34.34,0,0,1,2,154l-.35-1.74a.36.36,0,0,1,.05-.27.41.41,0,0,1,.25-.14l.85-.17a4.8,4.8,0,0,1,.39-3.37,4,4,0,0,1,2.65-1.83l.54-.14.55-.08a4.15,4.15,0,0,1,3.16.67,4.68,4.68,0,0,1,1.62,3l1-.2a.36.36,0,0,1,.29,0,.32.32,0,0,1,.15.22l.35,1.74A.36.36,0,0,1,13.44,152Zm-4.6-2.93a2.08,2.08,0,0,0-1.52-.25,4.57,4.57,0,0,0-.48.09l-.47.1a2.1,2.1,0,0,0-1.29.84,1.91,1.91,0,0,0-.18,1.45l4.66-.93A2,2,0,0,0,8.84,149.06Zm-3.46,4.63A2,2,0,0,0,6.11,155a2.08,2.08,0,0,0,1.51.27,2.33,2.33,0,0,0,.37-.08l.26,0,.32-.06a2.06,2.06,0,0,0,1.3-.82,2,2,0,0,0,.17-1.48Z"/><path class="cls-1" d="M11.57,144.69a.31.31,0,0,1-.21.11h-.13l-9.91-2.23a.63.63,0,0,1-.32-.15.49.49,0,0,1-.15-.34l-.21-2a.5.5,0,0,1,.08-.37.54.54,0,0,1,.28-.21l9.24-4.2.13-.05a.39.39,0,0,1,.23.07.28.28,0,0,1,.12.2l.17,1.69a.43.43,0,0,1-.27.47l-1.46.7L9.54,142l1.57.36a.43.43,0,0,1,.36.42l.18,1.69A.31.31,0,0,1,11.57,144.69Zm-4.5-5.57L3.26,140.8l4.07.87Z"/><path class="cls-1" d="M10.14,126a.37.37,0,0,1,.25.09.29.29,0,0,1,.1.22l0,2a.47.47,0,0,1-.06.29,1.37,1.37,0,0,1-.21.2L6.49,131l0,.95,3.73-.08a.36.36,0,0,1,.27.09.35.35,0,0,1,.11.26l0,1.77a.3.3,0,0,1-.1.25.35.35,0,0,1-.26.11l-9.75.22a.36.36,0,0,1-.27-.1.34.34,0,0,1-.11-.24l0-1.78a.33.33,0,0,1,.1-.25.38.38,0,0,1,.27-.12L4.11,132v-.84L.34,129.21a.53.53,0,0,1-.29-.51l0-2a.26.26,0,0,1,.09-.21.28.28,0,0,1,.22-.09.41.41,0,0,1,.18,0l4.61,2.46L10,126A.29.29,0,0,1,10.14,126Z"/><path class="cls-1" d="M.58,116.37a.28.28,0,0,1,.22-.08,1,1,0,0,1,.27.08l6.69,3.11a10.4,10.4,0,0,1,1.8,1,2.6,2.6,0,0,1,.87,1.1,4,4,0,0,1,.19,1.64l0,.73a.31.31,0,0,1-.12.24.44.44,0,0,1-.27.09l-1.59-.09a.32.32,0,0,1-.26-.12.28.28,0,0,1-.09-.24l0-.53a1.34,1.34,0,0,0-.15-.7,1.82,1.82,0,0,0-.58-.55l-7.07,3a.22.22,0,0,1-.14,0A.31.31,0,0,1,.12,125a.26.26,0,0,1-.09-.24l.1-1.9a.44.44,0,0,1,.34-.38l4.33-1.77L.67,118.81a.42.42,0,0,1-.3-.43l.1-1.81A.27.27,0,0,1,.58,116.37Z"/><path class="cls-1" d="M11.69,110.45a.37.37,0,0,1-.27.07l-7.66-1-.33,2.55,1.35.17a20.05,20.05,0,0,1,3.88.82,3.55,3.55,0,0,1,1.92,1.37,3.72,3.72,0,0,1,.39,2.41.35.35,0,0,1-.15.25.41.41,0,0,1-.29.07L9,116.94a.37.37,0,0,1-.34-.39c0-.5-.42-.91-1.18-1.22a13.44,13.44,0,0,0-3.32-.76l-3-.4A.36.36,0,0,1,.86,114a.33.33,0,0,1-.07-.27l.87-6.68a.31.31,0,0,1,.14-.23.34.34,0,0,1,.28-.07l9.66,1.27a.38.38,0,0,1,.26.13.37.37,0,0,1,.07.27l-.23,1.76A.35.35,0,0,1,11.69,110.45Z"/><path class="cls-1" d="M12.35,106.3a.35.35,0,0,1-.28,0l-9.53-2a.38.38,0,0,1-.24-.16.31.31,0,0,1,0-.26l.37-1.74a.38.38,0,0,1,.16-.23.38.38,0,0,1,.28,0l3.15.68.31-1.42a4,4,0,0,1,1.42-2.51,3.22,3.22,0,0,1,2.69-.41,3.36,3.36,0,0,1,2.28,1.49,3.73,3.73,0,0,1,.35,2.89l-.75,3.5A.34.34,0,0,1,12.35,106.3Zm-1.14-4.1a1.06,1.06,0,0,0-.19-1,1.58,1.58,0,0,0-.93-.52,1.41,1.41,0,0,0-1,.1,1.19,1.19,0,0,0-.52.8L8.24,103l2.68.58Z"/><path class="cls-1" d="M14.9,95.58a.39.39,0,0,1-.28,0L7.17,93.4l-.69,2.36a.35.35,0,0,1-.18.2A.39.39,0,0,1,6,96l-1.54-.45a.38.38,0,0,1-.23-.18.34.34,0,0,1,0-.26L6.32,88a.39.39,0,0,1,.17-.21.41.41,0,0,1,.29,0l1.54.45a.4.4,0,0,1,.23.17.32.32,0,0,1,0,.27L7.89,91l7.44,2.2a.44.44,0,0,1,.23.17.36.36,0,0,1,0,.27l-.52,1.75A.32.32,0,0,1,14.9,95.58Z"/><path class="cls-1" d="M16.77,89.5a.39.39,0,0,1-.28,0L7.37,86.06a.41.41,0,0,1-.22-.19.34.34,0,0,1,0-.26l2.28-6a.3.3,0,0,1,.18-.2.42.42,0,0,1,.29,0l1.32.5a.37.37,0,0,1,.21.18.36.36,0,0,1,0,.27L9.88,84.46l1.9.71,1.44-3.83a.29.29,0,0,1,.2-.19.41.41,0,0,1,.29,0l1.22.46a.43.43,0,0,1,.21.19.32.32,0,0,1,0,.27L13.71,85.9l1.95.74,1.59-4.22a.34.34,0,0,1,.19-.2.42.42,0,0,1,.29,0l1.32.49a.43.43,0,0,1,.21.19.32.32,0,0,1,0,.27L17,89.31A.3.3,0,0,1,16.77,89.5Z"/><path class="cls-1" d="M20.78,79.51a.39.39,0,0,1-.28,0l-7-3.27-1,2.23a.31.31,0,0,1-.2.17.39.39,0,0,1-.28,0l-1.46-.67a.41.41,0,0,1-.2-.21.33.33,0,0,1,0-.26l3.12-6.74a.32.32,0,0,1,.2-.18.35.35,0,0,1,.28,0l1.46.67a.39.39,0,0,1,.2.2.32.32,0,0,1,0,.27l-1,2.23,7,3.27a.43.43,0,0,1,.2.2.29.29,0,0,1,0,.27L21,79.34A.33.33,0,0,1,20.78,79.51Z"/><path class="cls-1" d="M24.45,71.94a.31.31,0,0,1-.23,0l-.11-.08L17.5,64.12a.53.53,0,0,1-.17-.31.57.57,0,0,1,.08-.37l1-1.75a.53.53,0,0,1,.29-.25.53.53,0,0,1,.35,0L29,63.59l.13,0a.3.3,0,0,1,.14.19.26.26,0,0,1,0,.23l-.87,1.46a.42.42,0,0,1-.49.22l-1.59-.32-1.89,3.17,1,1.23a.45.45,0,0,1,0,.55l-.87,1.46A.29.29,0,0,1,24.45,71.94Zm-.28-7.16-4.06-.92L22.86,67Z"/><path class="cls-1" d="M29.89,62.94a.37.37,0,0,1-.27-.07l-7.95-5.63a.37.37,0,0,1-.16-.24.33.33,0,0,1,0-.26l2.24-3.15a4.08,4.08,0,0,1,2.32-1.76,3.21,3.21,0,0,1,2.69.67,3.06,3.06,0,0,1,1.48,2.28,4.14,4.14,0,0,1-.92,2.76l-.95,1.34,2.68,1.9a.33.33,0,0,1,.16.24.32.32,0,0,1-.06.27l-1.07,1.52A.34.34,0,0,1,29.89,62.94ZM27.65,56.4a1.31,1.31,0,0,0,.27-1,1.33,1.33,0,0,0-.61-.86,1.4,1.4,0,0,0-1-.3,1.21,1.21,0,0,0-.86.58l-.94,1.32,2.19,1.55Z"/><path class="cls-1" d="M34.72,56.17a.3.3,0,0,1-.23-.07.25.25,0,0,1-.1-.15l-1.81-5.43-5.35-.83a.67.67,0,0,1-.17-.08A.33.33,0,0,1,27,49.4a.26.26,0,0,1,.06-.22l1.28-1.53a.41.41,0,0,1,.24-.16,1.06,1.06,0,0,1,.31,0L32,48l-1-3a.53.53,0,0,1,.07-.57l1.21-1.46a.26.26,0,0,1,.21-.09.28.28,0,0,1,.22.07.23.23,0,0,1,.1.16l1.77,5.11,5.69.79a.34.34,0,0,1,.16.08.4.4,0,0,1,.12.21.3.3,0,0,1-.06.22L39.13,51a.55.55,0,0,1-.54.18l-3.37-.45L36.27,54a.5.5,0,0,1-.07.56l-1.27,1.52A.28.28,0,0,1,34.72,56.17Z"/><path class="cls-1" d="M41.35,48.4a.38.38,0,0,1-.27-.1L34,41.63a.34.34,0,0,1-.12-.26.28.28,0,0,1,.08-.24l1.27-1.35a.32.32,0,0,1,.25-.12.4.4,0,0,1,.27.11l7.11,6.67a.34.34,0,0,1,.12.26.3.3,0,0,1-.09.25L41.59,48.3A.3.3,0,0,1,41.35,48.4Z"/><path class="cls-1" d="M45.83,43.78a.36.36,0,0,1-.26-.11L40.2,38.05l-1.77,1.7a.37.37,0,0,1-.25.09.4.4,0,0,1-.26-.12l-1.11-1.16a.36.36,0,0,1-.11-.27.31.31,0,0,1,.1-.24l5.36-5.13a.35.35,0,0,1,.25-.1.41.41,0,0,1,.26.13l1.11,1.16a.42.42,0,0,1,.12.26.34.34,0,0,1-.11.25L42,36.32l5.37,5.61a.47.47,0,0,1,.11.26.35.35,0,0,1-.1.25L46.08,43.7A.32.32,0,0,1,45.83,43.78Z"/><path class="cls-1" d="M50.5,39.41a.36.36,0,0,1-.25-.13L44,31.76a.34.34,0,0,1-.09-.27.31.31,0,0,1,.12-.23l5-4.11a.37.37,0,0,1,.26-.08.47.47,0,0,1,.25.15l.89,1.09a.35.35,0,0,1,.1.26.32.32,0,0,1-.12.25L47,31.62l1.29,1.56,3.15-2.61a.3.3,0,0,1,.27-.07.42.42,0,0,1,.25.15l.83,1a.39.39,0,0,1,.09.26.29.29,0,0,1-.12.24l-3.16,2.61L51,36.38l3.48-2.87a.31.31,0,0,1,.26-.08.35.35,0,0,1,.24.15l.9,1.08a.38.38,0,0,1,.09.27.3.3,0,0,1-.12.24l-5,4.18A.31.31,0,0,1,50.5,39.41Z"/><path class="cls-1" d="M63.82,29a.35.35,0,0,1,.07.25.27.27,0,0,1-.13.21l-1.67,1.18a.41.41,0,0,1-.27.1,1.36,1.36,0,0,1-.29-.06l-3.92-1.91-.78.55,2.15,3a.37.37,0,0,1,.07.28.38.38,0,0,1-.15.24l-1.45,1a.33.33,0,0,1-.27.06A.35.35,0,0,1,57,33.8l-5.61-8a.38.38,0,0,1-.08-.28.39.39,0,0,1,.14-.23l1.46-1a.31.31,0,0,1,.26-.06.33.33,0,0,1,.24.16l2.09,2.95.69-.47-.48-4.21a.54.54,0,0,1,.25-.53L57.55,21a.3.3,0,0,1,.41.09.38.38,0,0,1,.06.18l.53,5.21,5.14,2.41A.22.22,0,0,1,63.82,29Z"/><path class="cls-1" d="M66.81,27.49a.38.38,0,0,1-.22-.17l-4-6.68L60.5,21.9a.29.29,0,0,1-.26,0,.38.38,0,0,1-.22-.17l-.83-1.38a.38.38,0,0,1,0-.29.32.32,0,0,1,.15-.21l6.37-3.8a.34.34,0,0,1,.49.15L67,17.6a.37.37,0,0,1,.06.28.3.3,0,0,1-.16.22l-2.11,1.26,4,6.67a.45.45,0,0,1,0,.28.32.32,0,0,1-.16.22l-1.56.93A.32.32,0,0,1,66.81,27.49Z"/><path class="cls-1" d="M74.73,11.58a.28.28,0,0,1,.18.15A1.41,1.41,0,0,1,75,12l.61,7.36a10.18,10.18,0,0,1,0,2.07,2.59,2.59,0,0,1-.53,1.29,4,4,0,0,1-1.33,1l-.66.32a.3.3,0,0,1-.26,0,.36.36,0,0,1-.21-.19l-.71-1.42a.37.37,0,0,1,0-.29.31.31,0,0,1,.17-.2l.47-.23a1.3,1.3,0,0,0,.53-.48,1.72,1.72,0,0,0,.2-.78l-6.15-4.64A.24.24,0,0,1,67,15.7a.33.33,0,0,1,0-.24.31.31,0,0,1,.17-.2l1.7-.85a.45.45,0,0,1,.5.1L73,17.4l-.38-4.54a.43.43,0,0,1,.23-.47l1.62-.8A.26.26,0,0,1,74.73,11.58Z"/><path class="cls-1" d="M80.19,20.42a.37.37,0,0,1-.19-.2l-3.68-9a.37.37,0,0,1,0-.29.27.27,0,0,1,.18-.18l3.58-1.46A4,4,0,0,1,83,9a3.26,3.26,0,0,1,1.92,2,3.12,3.12,0,0,1,0,2.72,4.23,4.23,0,0,1-2.26,1.84l-1.52.62,1.24,3a.37.37,0,0,1,0,.29.34.34,0,0,1-.2.19l-1.72.71A.33.33,0,0,1,80.19,20.42Zm1.62-6.72a1.31,1.31,0,0,0,.76-.67,1.34,1.34,0,0,0-.06-1,1.45,1.45,0,0,0-.67-.79,1.22,1.22,0,0,0-1,0l-1.5.61,1,2.49Z"/><path class="cls-1" d="M88.66,17a.37.37,0,0,1-.18-.24l-2.9-9.28a.4.4,0,0,1,0-.29A.35.35,0,0,1,85.8,7l1.7-.53a.32.32,0,0,1,.27,0,.35.35,0,0,1,.18.23l1.8,5.75,1.92-7A.49.49,0,0,1,92,5.1l1.53-.48a.3.3,0,0,1,.26,0,.39.39,0,0,1,.18.23l2.9,9.3a.44.44,0,0,1,0,.28.32.32,0,0,1-.21.18l-1.7.53a.32.32,0,0,1-.27,0,.35.35,0,0,1-.18-.23L92.8,9.37l-2,6.81a.55.55,0,0,1-.37.41l-1.52.47A.32.32,0,0,1,88.66,17Z"/><path class="cls-1" d="M98.51,15.28a.28.28,0,0,1-.12-.21l-.29-3a.65.65,0,0,1,.06-.39.48.48,0,0,1,.3-.23l1.57-.38a.24.24,0,0,1,.2,0,.32.32,0,0,1,.12.18.34.34,0,0,1,0,.17l-.31,3.07a1,1,0,0,1-.11.35.41.41,0,0,1-.28.18l-.94.23A.24.24,0,0,1,98.51,15.28Z"/><path class="cls-1" d="M105.19,12.56a.44.44,0,0,1-.15-.25L103.46,2.7a.46.46,0,0,1,.06-.29.35.35,0,0,1,.22-.14l6.54-1.07a.3.3,0,0,1,.26.06.41.41,0,0,1,.14.25L110.92,3a.4.4,0,0,1,0,.29.28.28,0,0,1-.23.15l-4.42.73.29,1.74,1.89-.31a3.8,3.8,0,0,1,2.71.42,3,3,0,0,1,1.32,2.16,3.37,3.37,0,0,1-.14,1.71,2.92,2.92,0,0,1-1,1.36,4.1,4.1,0,0,1-1.83.73l-4,.66A.33.33,0,0,1,105.19,12.56Zm3.72-2.48a1.07,1.07,0,0,0,.82-.53,1.42,1.42,0,0,0,.16-1,1.3,1.3,0,0,0-.46-.85,1.14,1.14,0,0,0-.94-.21l-1.67.27.42,2.58Z"/><path class="cls-1" d="M120.84.26a.31.31,0,0,1,.11.21,1,1,0,0,1,0,.27l-2.13,7.07A10,10,0,0,1,118,9.74a2.67,2.67,0,0,1-1,1,4,4,0,0,1-1.61.42l-.73.07a.31.31,0,0,1-.25-.09.42.42,0,0,1-.12-.26l-.14-1.58a.39.39,0,0,1,.08-.28.35.35,0,0,1,.23-.12l.52-.05a1.14,1.14,0,0,0,.67-.25,1.61,1.61,0,0,0,.47-.65l-4-6.57a.25.25,0,0,1,0-.13.3.3,0,0,1,.08-.23.29.29,0,0,1,.22-.13l1.9-.16c.17,0,.31.07.42.28l2.37,4L118.44.69a.41.41,0,0,1,.38-.35l1.8-.16A.3.3,0,0,1,120.84.26Z"/><path class="cls-1" d="M122.18,12.63a.37.37,0,0,1-.11-.27L122,8.61a.36.36,0,0,1,.1-.27.33.33,0,0,1,.25-.11h.25c.41,0,.7-.43.87-1.25a17,17,0,0,0,.21-3.45l0-3a.4.4,0,0,1,.1-.28.33.33,0,0,1,.24-.1L130.46,0a.32.32,0,0,1,.25.1.36.36,0,0,1,.1.27l.13,7.72h.65a.35.35,0,0,1,.26.1.41.41,0,0,1,.1.27L132,12.2a.36.36,0,0,1-.35.38l-1.78,0a.34.34,0,0,1-.24-.11.33.33,0,0,1-.11-.26l0-1.73-5,.08,0,1.73a.4.4,0,0,1-.09.27.33.33,0,0,1-.25.11l-1.78,0A.37.37,0,0,1,122.18,12.63Zm6.29-4.5-.09-5.7-2.31,0,0,1.37a10.64,10.64,0,0,1-.57,4.34Z"/><path class="cls-1" d="M133.3,10.56a.34.34,0,0,1-.09-.27l.55-9.73a.33.33,0,0,1,.11-.26.31.31,0,0,1,.25-.09l1.85.1a.39.39,0,0,1,.25.12.37.37,0,0,1,.08.28l-.54,9.73a.4.4,0,0,1-.12.26.31.31,0,0,1-.26.09l-1.85-.1A.32.32,0,0,1,133.3,10.56Z"/><path class="cls-1" d="M137.62,10.78a.38.38,0,0,1-.08-.27L138.66.83a.38.38,0,0,1,.14-.26.32.32,0,0,1,.25-.07l4.18.48A3.75,3.75,0,0,1,145.71,2a2.83,2.83,0,0,1,.59,2.28,2.15,2.15,0,0,1-.5,1.22,2.19,2.19,0,0,1-.87.66,2.39,2.39,0,0,1,.84,1A2.64,2.64,0,0,1,146,8.67a3,3,0,0,1-1.17,2.21,3.67,3.67,0,0,1-2.67.54l-4.31-.5A.29.29,0,0,1,137.62,10.78Zm4.48-1.33A1.08,1.08,0,0,0,143,9.2a1.38,1.38,0,0,0,.21-1.75,1.18,1.18,0,0,0-.84-.46l-1.9-.22-.29,2.46Zm.38-4.36a1.12,1.12,0,0,0,.87-.21,1.16,1.16,0,0,0,.38-.78,1.07,1.07,0,0,0-.2-.82,1.14,1.14,0,0,0-.8-.4L141,2.68l-.26,2.2Z"/><path class="cls-1" d="M147.06,12a.38.38,0,0,1,0-.28l1.92-9.56a.34.34,0,0,1,.16-.24.33.33,0,0,1,.25-.06l1.75.36a.36.36,0,0,1,.23.15.39.39,0,0,1,0,.28l-.72,3.55,3.33.67.71-3.55a.36.36,0,0,1,.15-.24.3.3,0,0,1,.26-.06l1.75.36a.32.32,0,0,1,.22.15.38.38,0,0,1,0,.28l-1.92,9.56a.36.36,0,0,1-.15.24.31.31,0,0,1-.26,0L153,13.26a.32.32,0,0,1-.22-.15.38.38,0,0,1,0-.28l.73-3.66-3.32-.67-.74,3.66a.34.34,0,0,1-.15.24.33.33,0,0,1-.27,0l-1.75-.35A.32.32,0,0,1,147.06,12Z"/><path class="cls-1" d="M156.9,14a.41.41,0,0,1,0-.29l2.75-9.33a.33.33,0,0,1,.18-.23.35.35,0,0,1,.26,0l1.71.51a.33.33,0,0,1,.21.17.36.36,0,0,1,0,.29l-1.71,5.78,5.49-4.76a.51.51,0,0,1,.53-.14l1.53.45a.33.33,0,0,1,.21.17.41.41,0,0,1,0,.29l-2.76,9.35a.41.41,0,0,1-.17.22.29.29,0,0,1-.27,0l-1.7-.5a.36.36,0,0,1-.22-.18.34.34,0,0,1,0-.28l1.64-5.58-5.43,4.55a.51.51,0,0,1-.53.14l-1.53-.45A.32.32,0,0,1,156.9,14Z"/><path class="cls-1" d="M172.6,21.56a.37.37,0,0,1,0-.29l.64-1.6-6.07-2.41a.32.32,0,0,1-.19-.19.45.45,0,0,1,0-.3l3.58-9a.42.42,0,0,1,.19-.22.32.32,0,0,1,.27,0l1.66.65a.32.32,0,0,1,.19.19.37.37,0,0,1,0,.29l-2.84,7.18,3.15,1.25,2.85-7.18a.36.36,0,0,1,.19-.21.33.33,0,0,1,.26,0l1.66.66a.32.32,0,0,1,.19.19.39.39,0,0,1,0,.28L175.5,18l.6.24a.37.37,0,0,1,.2.19.42.42,0,0,1,0,.29l-1.38,3.49a.35.35,0,0,1-.2.21.32.32,0,0,1-.27,0l-1.65-.65A.35.35,0,0,1,172.6,21.56Z"/><path class="cls-1" d="M178.66,22a.39.39,0,0,1,0-.28l3.45-7-2.21-1.09a.32.32,0,0,1-.16-.21.39.39,0,0,1,0-.28l.71-1.44a.38.38,0,0,1,.22-.19.33.33,0,0,1,.26,0l6.65,3.29a.35.35,0,0,1,.18.2.42.42,0,0,1,0,.29l-.71,1.44a.39.39,0,0,1-.2.2.32.32,0,0,1-.27,0l-2.2-1.09-3.45,7a.41.41,0,0,1-.2.19.32.32,0,0,1-.27,0l-1.63-.81A.3.3,0,0,1,178.66,22Z"/><path class="cls-1" d="M184.34,24.89a.39.39,0,0,1,0-.28l5-8.38a.35.35,0,0,1,.48-.15l3.62,2.15a3.69,3.69,0,0,1,1.83,2,2.85,2.85,0,0,1-.39,2.32,2.23,2.23,0,0,1-.95.91,2.3,2.3,0,0,1-1.07.24,2.31,2.31,0,0,1,.35,1.28,2.59,2.59,0,0,1-.39,1.41,3,3,0,0,1-2,1.54,3.7,3.7,0,0,1-2.66-.6l-3.72-2.21A.37.37,0,0,1,184.34,24.89Zm4.64.61a1.11,1.11,0,0,0,.94.14,1.36,1.36,0,0,0,.9-1.51,1.16,1.16,0,0,0-.58-.76l-1.65-1-1.26,2.12Zm2.13-3.83a1.08,1.08,0,0,0,.88.17,1.11,1.11,0,0,0,.66-.56,1.1,1.1,0,0,0,.16-.83,1.06,1.06,0,0,0-.57-.68l-1.54-.92-1.14,1.91Z"/><path class="cls-1" d="M191.79,29.33a.33.33,0,0,1,.05-.22l.09-.11,8.22-6a.62.62,0,0,1,.32-.14.56.56,0,0,1,.36.11l1.67,1.19a.5.5,0,0,1,.22.3.53.53,0,0,1,0,.35l-2.94,9.72-.06.12a.29.29,0,0,1-.2.13.28.28,0,0,1-.23-.05l-1.38-1a.43.43,0,0,1-.18-.51l.45-1.56-3-2.13-1.32.94a.42.42,0,0,1-.55,0l-1.38-1A.27.27,0,0,1,191.79,29.33Zm7.16.3,1.25-4-3.34,2.48Z"/><path class="cls-1" d="M202.57,37.37a.42.42,0,0,1,.09-.27L209,29.66a.38.38,0,0,1,.26-.14.31.31,0,0,1,.25.07l1.41,1.2A.32.32,0,0,1,211,31a.35.35,0,0,1-.1.27l-6.29,7.45a.38.38,0,0,1-.25.14.35.35,0,0,1-.26-.09l-1.42-1.19A.34.34,0,0,1,202.57,37.37Z"/><path class="cls-1" d="M206.13,43.16a.37.37,0,0,1,.12-.27l2.66-2.64a.4.4,0,0,1,.27-.11.33.33,0,0,1,.25.1l.18.18c.29.29.79.22,1.5-.23A17.59,17.59,0,0,0,213.74,38l2.17-2.14a.34.34,0,0,1,.26-.12.3.3,0,0,1,.24.1l4.57,4.6a.33.33,0,0,1,.1.25.42.42,0,0,1-.12.26l-5.49,5.44.46.46a.34.34,0,0,1,.11.25.37.37,0,0,1-.12.26L213.26,50a.37.37,0,0,1-.27.12.31.31,0,0,1-.25-.11l-1.26-1.26a.36.36,0,0,1,0-.51L212.73,47l-3.51-3.54L208,44.66a.45.45,0,0,1-.26.12.32.32,0,0,1-.25-.11l-1.25-1.26A.36.36,0,0,1,206.13,43.16Zm7.61,1.42,4-4-1.62-1.64-1,1a10.88,10.88,0,0,1-3.52,2.6Z"/><path class="cls-1" d="M215.4,49.63a.35.35,0,0,1,.15-.25L223,43.17a.38.38,0,0,1,.28-.09.3.3,0,0,1,.23.11l1.14,1.37a.37.37,0,0,1-.06.52L220,48.93,227.2,48a.49.49,0,0,1,.51.18l1,1.23a.29.29,0,0,1,.08.26.38.38,0,0,1-.14.24l-7.51,6.22a.35.35,0,0,1-.51,0l-1.13-1.37a.34.34,0,0,1-.08-.27.36.36,0,0,1,.14-.25l4.48-3.71L217,51.3a.53.53,0,0,1-.52-.18l-1-1.23A.28.28,0,0,1,215.4,49.63Z"/><path class="cls-1" d="M222.9,58.79a3.22,3.22,0,0,1,.12-1.71,2.94,2.94,0,0,1,.88-1.23l0,0a.23.23,0,0,1,.21,0,.31.31,0,0,1,.19.13l1,1.45a.45.45,0,0,1,0,.5,1.49,1.49,0,0,0,.21,1.7,2,2,0,0,0,.93.79,1,1,0,0,0,1-.13,1,1,0,0,0,.48-.83,1.86,1.86,0,0,0-.39-1.09l-.59-.84a.33.33,0,0,1,0-.26.37.37,0,0,1,.17-.24l1-.7a.43.43,0,0,1,.29-.07.32.32,0,0,1,.23.13l.57.82a1.44,1.44,0,0,0,.76.61.94.94,0,0,0,.86-.18,1,1,0,0,0,.44-.73,1.49,1.49,0,0,0-.32-1,2,2,0,0,0-.73-.68.92.92,0,0,0-.76,0,.71.71,0,0,1-.26,0A.37.37,0,0,1,229,55l-1-1.49a.27.27,0,0,1,0-.23.3.3,0,0,1,.15-.2,2.94,2.94,0,0,1,3.06,0,5.14,5.14,0,0,1,1.6,1.57,4.68,4.68,0,0,1,.82,1.88,3.17,3.17,0,0,1-.13,1.72,2.55,2.55,0,0,1-.95,1.24,2.29,2.29,0,0,1-2.38.33,2.4,2.4,0,0,1-.26,1.46,3.3,3.3,0,0,1-1,1.09,2.86,2.86,0,0,1-1.66.54,3.27,3.27,0,0,1-1.75-.53,5.57,5.57,0,0,1-1.57-1.57A5.26,5.26,0,0,1,222.9,58.79Z"/><path class="cls-1" d="M226.73,64.57a.31.31,0,0,1,.14-.19l.13-.06,9.94-2.06a.59.59,0,0,1,.35,0,.53.53,0,0,1,.29.25l1,1.76a.5.5,0,0,1,.07.37.49.49,0,0,1-.16.3l-6.68,7.65-.11.09a.3.3,0,0,1-.23,0,.27.27,0,0,1-.19-.13l-.86-1.47a.44.44,0,0,1,.05-.54l1.05-1.23-1.86-3.18-1.58.32a.46.46,0,0,1-.51-.24l-.85-1.46A.28.28,0,0,1,226.73,64.57Zm6.4,3.21,2.77-3.1-4.06.89Z"/><path class="cls-1" d="M232,73.67a.41.41,0,0,1,.2-.21l8.8-4.17a.37.37,0,0,1,.29,0,.32.32,0,0,1,.19.17l.77,1.61a.39.39,0,0,1,0,.28.33.33,0,0,1-.2.2l-5.45,2.59,7.21.92a.49.49,0,0,1,.46.3l.68,1.44a.32.32,0,0,1,0,.27.43.43,0,0,1-.21.21L236,81.43a.45.45,0,0,1-.28,0,.32.32,0,0,1-.21-.18l-.76-1.61a.32.32,0,0,1,0-.27.35.35,0,0,1,.2-.21l5.26-2.5-7-1a.53.53,0,0,1-.45-.31L232,73.94A.32.32,0,0,1,232,73.67ZM243.54,71a2.08,2.08,0,0,1,1.15-1.2.31.31,0,0,1,.21,0,.25.25,0,0,1,.16.14l.47,1a.22.22,0,0,1,0,.21.36.36,0,0,1-.15.15.82.82,0,0,0,.7,1.48.31.31,0,0,1,.21,0,.22.22,0,0,1,.16.14l.47,1a.23.23,0,0,1,0,.21.28.28,0,0,1-.15.15,2.07,2.07,0,0,1-1.66.13,2.58,2.58,0,0,1-1.33-1.43A2.54,2.54,0,0,1,243.54,71Z"/><path class="cls-1" d="M236.41,83.22a.44.44,0,0,1,.22-.18l9.14-3.38a.36.36,0,0,1,.29,0,.35.35,0,0,1,.19.19l.61,1.67a.34.34,0,0,1,0,.28.39.39,0,0,1-.21.19l-3.39,1.25,1.17,3.18,3.39-1.25a.36.36,0,0,1,.29,0,.32.32,0,0,1,.19.19L248.9,87a.32.32,0,0,1,0,.27.37.37,0,0,1-.22.18l-9.14,3.39a.37.37,0,0,1-.29,0,.33.33,0,0,1-.18-.2L238.44,89a.33.33,0,0,1,0-.26.41.41,0,0,1,.22-.19l3.5-1.29L241,84.07l-3.5,1.3a.36.36,0,0,1-.29,0,.33.33,0,0,1-.19-.21l-.62-1.67A.36.36,0,0,1,236.41,83.22Z"/><path class="cls-1" d="M251.84,97.46a.31.31,0,0,1-.19.15,1,1,0,0,1-.27,0l-7.34-.8a9.55,9.55,0,0,1-2-.38,2.65,2.65,0,0,1-1.17-.76,3.88,3.88,0,0,1-.71-1.5l-.2-.7a.34.34,0,0,1,0-.26.36.36,0,0,1,.23-.17l1.53-.43a.41.41,0,0,1,.29,0,.34.34,0,0,1,.16.21l.14.5a1.37,1.37,0,0,0,.37.62,1.77,1.77,0,0,0,.73.34l5.71-5.16a.31.31,0,0,1,.13-.06.35.35,0,0,1,.24,0,.29.29,0,0,1,.16.2l.52,1.83a.45.45,0,0,1-.2.47l-3.53,3.07,4.53.49a.42.42,0,0,1,.42.31l.48,1.74A.27.27,0,0,1,251.84,97.46Z"/><path class="cls-1" d="M17.75,194.12a.38.38,0,0,1,.17-.23l8.18-5.3a.36.36,0,0,1,.28-.06.34.34,0,0,1,.22.14l1,1.49a.39.39,0,0,1,.05.28.38.38,0,0,1-.17.23l-3,2,1.85,2.84,3-2a.41.41,0,0,1,.28-.07.37.37,0,0,1,.22.15l1,1.5a.3.3,0,0,1,0,.26.38.38,0,0,1-.17.23l-8.18,5.3a.41.41,0,0,1-.28.07.37.37,0,0,1-.22-.15l-1-1.5a.3.3,0,0,1,0-.26.38.38,0,0,1,.17-.23l3.13-2-1.84-2.85-3.14,2A.36.36,0,0,1,19,196a.36.36,0,0,1-.23-.15l-1-1.5A.28.28,0,0,1,17.75,194.12Z"/><path class="cls-1" d="M23.21,202.46a.32.32,0,0,1,.12-.2l.11-.07,9.6-3.32a.53.53,0,0,1,.35,0,.49.49,0,0,1,.31.21L35,200.65a.59.59,0,0,1,.13.36.54.54,0,0,1-.13.32l-5.65,8.44-.09.11a.32.32,0,0,1-.43,0l-1-1.34a.44.44,0,0,1,0-.54l.88-1.36-2.25-2.92-1.53.52a.43.43,0,0,1-.53-.17l-1-1.34A.27.27,0,0,1,23.21,202.46ZM30,204.83l2.35-3.44-3.91,1.41Z"/><path class="cls-1" d="M33.28,217.81a.38.38,0,0,1,.13-.26l1.27-1.16-4.41-4.81a.33.33,0,0,1-.08-.26.4.4,0,0,1,.14-.26l7.17-6.58a.4.4,0,0,1,.26-.11.34.34,0,0,1,.25.11l1.2,1.32a.35.35,0,0,1,.1.25.38.38,0,0,1-.13.26l-5.69,5.22,2.29,2.5,5.69-5.22a.4.4,0,0,1,.27-.11.34.34,0,0,1,.24.11l1.2,1.32a.3.3,0,0,1,.09.25.33.33,0,0,1-.13.25l-5.69,5.22.44.48a.35.35,0,0,1,.09.26.36.36,0,0,1-.13.26l-2.76,2.53a.4.4,0,0,1-.27.11.39.39,0,0,1-.25-.12l-1.2-1.31A.37.37,0,0,1,33.28,217.81Z"/><path class="cls-1" d="M37.86,219.43a.35.35,0,0,1,.11-.26l6.76-7A.41.41,0,0,1,45,212a.33.33,0,0,1,.25.1l1.33,1.28a.34.34,0,0,1,.11.25.36.36,0,0,1-.11.27l-6.76,7a.37.37,0,0,1-.26.12.35.35,0,0,1-.26-.1L38,219.67A.3.3,0,0,1,37.86,219.43Z"/><path class="cls-1" d="M42.44,222.7a4.13,4.13,0,0,1,1.08-3.08l.82-1,.86-1a4.43,4.43,0,0,1,7.53,2.43,4.16,4.16,0,0,1-1.07,3.1c-.37.45-.64.79-.83,1l-.86,1a4.16,4.16,0,0,1-2.88,1.54,5.05,5.05,0,0,1-4.65-4Zm4.29,1.55a2.26,2.26,0,0,0,1.35-.84l.82-.91.78-.95a2.31,2.31,0,0,0,.62-1.47,1.71,1.71,0,0,0-1.82-1.56,2.41,2.41,0,0,0-1.36.84c-.19.2-.46.51-.81.92l-.79.94a2.39,2.39,0,0,0-.62,1.47,1.71,1.71,0,0,0,1.83,1.56Z"/><path class="cls-1" d="M49.26,229.45a.37.37,0,0,1,.08-.28l5.71-7.89a.41.41,0,0,1,.24-.16.33.33,0,0,1,.26.06l1.44,1a.38.38,0,0,1,.15.24.35.35,0,0,1-.08.27l-2.12,2.93,2.75,2,2.12-2.93a.47.47,0,0,1,.24-.16.31.31,0,0,1,.26.06l1.44,1a.31.31,0,0,1,.14.23.36.36,0,0,1-.08.27l-5.71,7.9a.41.41,0,0,1-.24.16.31.31,0,0,1-.26-.06l-1.44-1a.27.27,0,0,1-.14-.23.36.36,0,0,1,.08-.27l2.19-3-2.75-2-2.19,3a.41.41,0,0,1-.24.16.37.37,0,0,1-.27-.07l-1.44-1A.3.3,0,0,1,49.26,229.45Z"/><path class="cls-1" d="M57.35,235.26a.26.26,0,0,1,0-.23.35.35,0,0,1,.08-.11l7.75-6.56a.55.55,0,0,1,.31-.16.51.51,0,0,1,.37.08l1.75,1.06a.49.49,0,0,1,.24.29.5.5,0,0,1,0,.34l-2.22,9.91,0,.13a.28.28,0,0,1-.18.14.25.25,0,0,1-.24,0l-1.45-.88a.41.41,0,0,1-.21-.49l.33-1.59-3.15-1.91-1.24,1a.45.45,0,0,1-.56,0l-1.45-.87A.29.29,0,0,1,57.35,235.26Zm7.16-.23.95-4.05-3.14,2.72Z"/><path class="cls-1" d="M72.57,243.73a.39.39,0,0,1,0-.28L76,236.53l-2.3-1.14-.6,1.22a19.87,19.87,0,0,1-2,3.41,3.54,3.54,0,0,1-1.92,1.37,3.65,3.65,0,0,1-2.4-.41.32.32,0,0,1-.19-.22.37.37,0,0,1,0-.29l.69-1.41a.39.39,0,0,1,.49-.2c.48.14,1-.1,1.54-.72a13.89,13.89,0,0,0,1.79-2.9l1.35-2.73a.35.35,0,0,1,.21-.19.31.31,0,0,1,.28,0l6,3a.37.37,0,0,1,.18.21.37.37,0,0,1,0,.29l-4.32,8.73a.37.37,0,0,1-.21.2.39.39,0,0,1-.28,0l-1.59-.79A.3.3,0,0,1,72.57,243.73Z"/><path class="cls-1" d="M77,245.79a.34.34,0,0,1,0-.28l3.61-9a.38.38,0,0,1,.19-.22.33.33,0,0,1,.26,0l1.66.66a.34.34,0,0,1,.2.19.42.42,0,0,1,0,.29l-1.19,3,1.34.54a4,4,0,0,1,2.25,1.82,3.24,3.24,0,0,1,0,2.72,3.39,3.39,0,0,1-1.84,2,3.77,3.77,0,0,1-2.91-.14L77.22,246A.3.3,0,0,1,77,245.79Zm4.23-.43a1.12,1.12,0,0,0,1,0,1.62,1.62,0,0,0,.67-.83,1.4,1.4,0,0,0,.07-1.05,1.15,1.15,0,0,0-.7-.64l-1.3-.52-1,2.55Z"/><path class="cls-1" d="M86,249.27a.38.38,0,0,1,0-.28l2.88-9.32a.35.35,0,0,1,.17-.22.31.31,0,0,1,.26,0l1.71.52a.37.37,0,0,1,.21.18.41.41,0,0,1,0,.29l-1.07,3.45,3.24,1,1.07-3.45a.37.37,0,0,1,.17-.23.32.32,0,0,1,.27,0l1.7.53a.28.28,0,0,1,.21.17.38.38,0,0,1,0,.28l-2.87,9.32a.42.42,0,0,1-.18.23.3.3,0,0,1-.26,0l-1.7-.52a.33.33,0,0,1-.21-.17.36.36,0,0,1,0-.29l1.1-3.57-3.24-1-1.11,3.57a.4.4,0,0,1-.17.23.39.39,0,0,1-.28,0l-1.7-.52A.34.34,0,0,1,86,249.27Z"/><path class="cls-1" d="M96.36,252.36a.42.42,0,0,1,0-.29l2.06-9.51a.38.38,0,0,1,.15-.25.35.35,0,0,1,.26-.05l1.74.38a.34.34,0,0,1,.23.15.36.36,0,0,1,0,.29L99.53,249l5.12-5.15a.49.49,0,0,1,.52-.18l1.56.33a.34.34,0,0,1,.22.16.38.38,0,0,1,0,.28l-2,9.53a.38.38,0,0,1-.15.24.29.29,0,0,1-.27,0l-1.74-.37a.34.34,0,0,1-.23-.16.38.38,0,0,1,0-.28l1.23-5.69-5.08,5a.54.54,0,0,1-.52.18l-1.56-.34A.3.3,0,0,1,96.36,252.36Z"/><path class="cls-1" d="M107.44,254.63a.37.37,0,0,1-.06-.29l1.2-9.66a.37.37,0,0,1,.14-.25.34.34,0,0,1,.25-.08l1.77.22a.37.37,0,0,1,.24.14.38.38,0,0,1,.07.28l-.75,6,4.64-5.58a.53.53,0,0,1,.51-.23l1.58.2a.36.36,0,0,1,.24.13.43.43,0,0,1,.06.28l-1.21,9.67a.34.34,0,0,1-.13.25.28.28,0,0,1-.26.08l-1.76-.22a.32.32,0,0,1-.24-.13.38.38,0,0,1-.07-.28l.72-5.78-4.62,5.38a.54.54,0,0,1-.5.23l-1.59-.2A.3.3,0,0,1,107.44,254.63Zm3.93-11.19a2.09,2.09,0,0,1-.4-1.62.31.31,0,0,1,.09-.19.23.23,0,0,1,.2-.06l1.1.14a.24.24,0,0,1,.18.1.3.3,0,0,1,0,.21.82.82,0,0,0,1.63.21.3.3,0,0,1,.1-.2.26.26,0,0,1,.2-.05l1.09.13a.21.21,0,0,1,.18.11.3.3,0,0,1,0,.21,2.07,2.07,0,0,1-.79,1.46,3.19,3.19,0,0,1-3.67-.45Z"/><path class="cls-1" d="M120.89,256.07a.27.27,0,0,1-.08-.22.45.45,0,0,1,0-.13l3.4-9.57a.54.54,0,0,1,.19-.3.47.47,0,0,1,.36-.11l2,0a.48.48,0,0,1,.35.13.58.58,0,0,1,.18.3l3.07,9.68,0,.13a.33.33,0,0,1-.09.22.29.29,0,0,1-.21.09l-1.7,0A.43.43,0,0,1,128,256l-.51-1.54-3.68-.06-.55,1.52a.45.45,0,0,1-.46.31l-1.7,0A.26.26,0,0,1,120.89,256.07Zm6.07-3.8-1.21-4-1.35,3.93Z"/><path class="cls-1" d="M132.13,256.13a.39.39,0,0,1-.12-.25l-.61-9.73a.4.4,0,0,1,.09-.27.3.3,0,0,1,.24-.12l4.19-.27a3.73,3.73,0,0,1,2.63.61,2.81,2.81,0,0,1,1,2.14,2.24,2.24,0,0,1-1,2.09,2.35,2.35,0,0,1,1,.86,2.62,2.62,0,0,1,.47,1.38,3,3,0,0,1-.76,2.39,3.68,3.68,0,0,1-2.54,1l-4.32.27A.32.32,0,0,1,132.13,256.13Zm3.78-6.46a1.07,1.07,0,0,0,.82-.36,1.13,1.13,0,0,0,.24-.83,1.09,1.09,0,0,0-.34-.78,1.12,1.12,0,0,0-.86-.24l-1.79.11.14,2.21Zm.4,4.36a1.13,1.13,0,0,0,.86-.41,1.31,1.31,0,0,0,.26-.89,1.29,1.29,0,0,0-.37-.87,1.16,1.16,0,0,0-.91-.3l-1.91.12.15,2.47Z"/><path class="cls-1" d="M142.18,255.36a.41.41,0,0,1-.13-.25l-1.17-9.68a.38.38,0,0,1,.07-.28.36.36,0,0,1,.23-.13l1.83-.22a.37.37,0,0,1,.27.07.38.38,0,0,1,.13.26l1.17,9.67a.36.36,0,0,1-.31.42l-1.83.22A.37.37,0,0,1,142.18,255.36Z"/><path class="cls-1" d="M146.17,255a.37.37,0,0,1-.13-.2.76.76,0,0,1,0-.14l1.47-10.05a.54.54,0,0,1,.13-.32.45.45,0,0,1,.33-.18l2-.37a.51.51,0,0,1,.37.06.53.53,0,0,1,.23.26l4.89,8.89.06.13a.37.37,0,0,1-.05.23.31.31,0,0,1-.2.14l-1.67.3a.44.44,0,0,1-.49-.23l-.8-1.41-3.62.66-.25,1.59a.45.45,0,0,1-.39.4l-1.67.3A.29.29,0,0,1,146.17,255Zm5.21-4.92-2-3.66-.56,4.12Z"/><path class="cls-1" d="M164.43,253.06a.37.37,0,0,1-.17-.23l-.45-1.66-6.3,1.7a.3.3,0,0,1-.26,0,.41.41,0,0,1-.17-.24l-2.54-9.4a.34.34,0,0,1,0-.28.3.3,0,0,1,.21-.17l1.72-.46a.32.32,0,0,1,.27,0,.36.36,0,0,1,.17.23l2,7.46,3.28-.89-2-7.45a.41.41,0,0,1,0-.29.36.36,0,0,1,.21-.17l1.72-.46a.32.32,0,0,1,.27,0,.39.39,0,0,1,.16.23l2,7.45.63-.16a.32.32,0,0,1,.27,0,.4.4,0,0,1,.17.23l1,3.62a.36.36,0,0,1,0,.29.38.38,0,0,1-.22.17l-1.72.46A.31.31,0,0,1,164.43,253.06Z"/><path class="cls-1" d="M168,249.73a.34.34,0,0,1-.18-.21l-3.13-9.23a.33.33,0,0,1,0-.29.29.29,0,0,1,.19-.17l1.75-.6a.34.34,0,0,1,.28,0,.33.33,0,0,1,.18.22l3.14,9.23a.41.41,0,0,1,0,.29.37.37,0,0,1-.21.18l-1.75.59A.32.32,0,0,1,168,249.73Z"/><path class="cls-1" d="M172.61,248.18a.37.37,0,0,1-.2-.22l-3.7-9a.37.37,0,0,1,0-.29.34.34,0,0,1,.18-.19l1.65-.68a.34.34,0,0,1,.28,0,.36.36,0,0,1,.19.21l2.3,5.57,1.29-7.14a.53.53,0,0,1,.33-.45l1.48-.6a.32.32,0,0,1,.27,0,.39.39,0,0,1,.19.21l3.71,9a.39.39,0,0,1,0,.28.29.29,0,0,1-.19.2l-1.64.68a.34.34,0,0,1-.28,0,.38.38,0,0,1-.2-.21l-2.21-5.38-1.38,6.95a.53.53,0,0,1-.32.44l-1.48.61A.28.28,0,0,1,172.61,248.18Zm-2.09-11.67a2.07,2.07,0,0,1-1.14-1.21.31.31,0,0,1,0-.21.28.28,0,0,1,.15-.15l1-.42a.26.26,0,0,1,.21,0,.28.28,0,0,1,.14.16.82.82,0,0,0,1.52-.62.34.34,0,0,1,0-.22.25.25,0,0,1,.15-.15l1-.42a.22.22,0,0,1,.21,0,.28.28,0,0,1,.14.16,2.09,2.09,0,0,1,0,1.66,3.16,3.16,0,0,1-3.42,1.41Z"/><path class="cls-1" d="M183,243.77a.35.35,0,0,1-.21-.19l-4.47-8.66a.34.34,0,0,1,.13-.49l1.58-.82a.34.34,0,0,1,.28,0,.35.35,0,0,1,.21.19l1.66,3.21,3-1.56-1.65-3.21a.36.36,0,0,1,0-.28.32.32,0,0,1,.17-.21l1.58-.82a.36.36,0,0,1,.27,0,.41.41,0,0,1,.21.2l4.47,8.66a.35.35,0,0,1,0,.28.32.32,0,0,1-.17.21l-1.58.82a.36.36,0,0,1-.27,0,.41.41,0,0,1-.21-.2l-1.71-3.32-3,1.56,1.71,3.32a.34.34,0,0,1,0,.29.37.37,0,0,1-.18.21l-1.58.81A.29.29,0,0,1,183,243.77Z"/><path class="cls-1" d="M192.59,238.69a.34.34,0,0,1-.23-.18l-5.2-8.23a.35.35,0,0,1,0-.28.34.34,0,0,1,.14-.22l1.51-.95a.32.32,0,0,1,.27,0,.36.36,0,0,1,.23.17l3.22,5.09.05-7.26a.51.51,0,0,1,.24-.49l1.35-.86a.37.37,0,0,1,.27,0,.4.4,0,0,1,.23.18l5.2,8.24a.42.42,0,0,1,.06.27.36.36,0,0,1-.15.23l-1.51,1a.36.36,0,0,1-.27,0,.4.4,0,0,1-.23-.18l-3.11-4.91-.15,7.08a.52.52,0,0,1-.25.49l-1.35.86A.32.32,0,0,1,192.59,238.69Z"/><path class="cls-1" d="M197.05,221.82a2.11,2.11,0,0,1-1.41-.87.35.35,0,0,1-.07-.21.25.25,0,0,1,.11-.18l.87-.67a.24.24,0,0,1,.21,0,.3.3,0,0,1,.17.12.71.71,0,0,0,1.13.14.72.72,0,0,0,.18-1.14.31.31,0,0,1-.07-.2.25.25,0,0,1,.11-.18l.87-.67a.24.24,0,0,1,.21,0,.27.27,0,0,1,.18.12,2.11,2.11,0,0,1,.46,1.6,2.56,2.56,0,0,1-1.12,1.59A2.48,2.48,0,0,1,197.05,221.82Zm5,10.74a.36.36,0,0,1-.24-.16l-5.9-7.74a.33.33,0,0,1-.08-.28.33.33,0,0,1,.12-.23l1.42-1.08a.37.37,0,0,1,.27-.07.41.41,0,0,1,.24.15l3.66,4.8-.6-7.24a.53.53,0,0,1,.2-.51l1.28-1a.31.31,0,0,1,.26-.07.41.41,0,0,1,.24.16l5.9,7.75a.38.38,0,0,1,.09.27.32.32,0,0,1-.13.24l-1.42,1.07a.33.33,0,0,1-.26.08.4.4,0,0,1-.25-.16L203.35,224l.47,7.07a.55.55,0,0,1-.2.51l-1.28,1A.3.3,0,0,1,202.08,232.56Z"/><path class="cls-1" d="M211.93,210.73a.35.35,0,0,1,.22.1,1.16,1.16,0,0,1,.13.24l2.7,6.87a9.86,9.86,0,0,1,.6,2,2.57,2.57,0,0,1-.13,1.39,4,4,0,0,1-1,1.33l-.53.5a.34.34,0,0,1-.26.08.32.32,0,0,1-.25-.12L212.33,222a.36.36,0,0,1-.11-.27.3.3,0,0,1,.1-.24l.38-.36a1.3,1.3,0,0,0,.38-.61,1.71,1.71,0,0,0,0-.8L205.82,217a.38.38,0,0,1-.11-.08.34.34,0,0,1-.08-.23.33.33,0,0,1,.1-.24l1.38-1.3a.44.44,0,0,1,.51,0L212,216.8l-1.66-4.24a.41.41,0,0,1,.09-.51l1.31-1.24A.29.29,0,0,1,211.93,210.73Z"/><path class="cls-1" d="M220.13,217a.36.36,0,0,1-.26-.11l-7.22-6.55a.38.38,0,0,1-.13-.26.34.34,0,0,1,.09-.24l1.19-1.32a.32.32,0,0,1,.25-.12.39.39,0,0,1,.27.1L217,211l2.28-2.51L216.6,206a.38.38,0,0,1-.13-.25.32.32,0,0,1,.09-.26l1.19-1.31a.32.32,0,0,1,.25-.12.4.4,0,0,1,.26.11l7.22,6.55a.41.41,0,0,1,.13.26.31.31,0,0,1-.09.25l-1.19,1.32a.34.34,0,0,1-.25.11.4.4,0,0,1-.26-.11l-2.77-2.51-2.28,2.51,2.77,2.51a.41.41,0,0,1,.13.26.35.35,0,0,1-.1.26l-1.19,1.32A.34.34,0,0,1,220.13,217Z"/><path class="cls-1" d="M227.17,209a.38.38,0,0,1-.27-.08l-7.59-6.11a.35.35,0,0,1-.15-.25.32.32,0,0,1,.07-.25l1.16-1.44a.32.32,0,0,1,.24-.13.38.38,0,0,1,.28.09l7.59,6.1a.35.35,0,0,1,.15.25.34.34,0,0,1-.08.26l-1.16,1.44A.26.26,0,0,1,227.17,209Z"/><path class="cls-1" d="M230.22,205.25a.4.4,0,0,1-.28-.07L222,199.53a.39.39,0,0,1-.15-.24.33.33,0,0,1,.05-.26l2.44-3.43a3.78,3.78,0,0,1,2.13-1.66,2.83,2.83,0,0,1,2.28.59,2.22,2.22,0,0,1,.83,1,2.37,2.37,0,0,1,.16,1.08,2.45,2.45,0,0,1,1.29-.24,2.67,2.67,0,0,1,1.38.5,3,3,0,0,1,1.37,2.1,3.66,3.66,0,0,1-.82,2.6l-2.51,3.53A.32.32,0,0,1,230.22,205.25Zm-2.64-7a1.08,1.08,0,0,0,.23-.86,1.16,1.16,0,0,0-.49-.71,1.07,1.07,0,0,0-.82-.22,1.11,1.11,0,0,0-.73.51l-1,1.46,1.81,1.29Zm3.63,2.44a1.07,1.07,0,0,0,.22-.92,1.24,1.24,0,0,0-.52-.77,1.31,1.31,0,0,0-.91-.26,1.13,1.13,0,0,0-.8.52l-1.11,1.56,2,1.44Z"/><path class="cls-1" d="M236.05,196.86a.34.34,0,0,1-.28,0l-8.35-5a.33.33,0,0,1-.17-.23.3.3,0,0,1,0-.26l3.33-5.51a.3.3,0,0,1,.22-.16.37.37,0,0,1,.28.06l1.2.72a.42.42,0,0,1,.18.22.32.32,0,0,1,0,.27l-2.28,3.77,1.74,1.05L234,188.2a.34.34,0,0,1,.23-.16.45.45,0,0,1,.29.07l1.11.67a.36.36,0,0,1,.18.22.3.3,0,0,1,0,.27l-2.11,3.51,1.78,1.07L237.8,190a.35.35,0,0,1,.22-.16.36.36,0,0,1,.28.06l1.21.73a.38.38,0,0,1,.17.22.32.32,0,0,1,0,.27l-3.38,5.61A.33.33,0,0,1,236.05,196.86Z"/><path class="cls-1" d="M240.76,188.88a.35.35,0,0,1-.28,0l-8.69-4.4a.41.41,0,0,1-.2-.21.36.36,0,0,1,0-.27l1.74-3.44a4.07,4.07,0,0,1,2.05-2.08,3.23,3.23,0,0,1,2.76.26,3.11,3.11,0,0,1,1.8,2,4.19,4.19,0,0,1-.51,2.87l-.74,1.46,2.93,1.48a.39.39,0,0,1,.2.22.32.32,0,0,1,0,.27l-.84,1.66A.3.3,0,0,1,240.76,188.88Zm-3.18-6.14a1.34,1.34,0,0,0,.13-1A1.39,1.39,0,0,0,237,181a1.46,1.46,0,0,0-1-.15,1.24,1.24,0,0,0-.77.7l-.73,1.44,2.4,1.21Z"/><path class="cls-1" d="M244.69,179a4.19,4.19,0,0,1-3.24,0l-1.22-.49L239,178a4.14,4.14,0,0,1-2.32-2.25,4.3,4.3,0,0,1,.19-3.24,5.08,5.08,0,0,1,1.23-1.84,3.62,3.62,0,0,1,1.75-.94,3.41,3.41,0,0,1,2,.2h0a.28.28,0,0,1,.16.16.41.41,0,0,1,0,.22l-.71,1.72a.49.49,0,0,1-.18.23.72.72,0,0,1-.35,0,1.84,1.84,0,0,0-1.22.16,1.7,1.7,0,0,0-.7.89c-.42,1,0,1.77,1.19,2.31l1.14.48,1.19.47c1.23.47,2.06.2,2.47-.8a1.79,1.79,0,0,0,.12-1.14,1.73,1.73,0,0,0-.75-.95.59.59,0,0,1-.23-.26.55.55,0,0,1,0-.3l.71-1.72a.35.35,0,0,1,.17-.17.29.29,0,0,1,.24,0,3.41,3.41,0,0,1,1.55,1.26,3.65,3.65,0,0,1,.58,1.88,5.13,5.13,0,0,1-.42,2.19A4.29,4.29,0,0,1,244.69,179Z"/><path class="cls-1" d="M248.92,170.57a.41.41,0,0,1-.29,0l-9.28-2.93a.38.38,0,0,1-.23-.18.34.34,0,0,1,0-.26l.53-1.7a.37.37,0,0,1,.18-.21.41.41,0,0,1,.29,0l5.75,1.82-4.66-5.58a.51.51,0,0,1-.13-.53l.48-1.53a.3.3,0,0,1,.18-.2.34.34,0,0,1,.28,0l9.3,2.93a.41.41,0,0,1,.22.17.32.32,0,0,1,0,.27l-.53,1.7a.37.37,0,0,1-.18.21.41.41,0,0,1-.29,0L245,162.8l4.46,5.51a.54.54,0,0,1,.13.53l-.48,1.53A.31.31,0,0,1,248.92,170.57Z"/><path class="cls-1" d="M252.66,157.69a.4.4,0,0,1-.28,0L244.81,156l-.55,2.4a.32.32,0,0,1-.17.21.36.36,0,0,1-.27,0l-1.57-.36a.35.35,0,0,1-.24-.16.34.34,0,0,1,0-.26l1.66-7.23a.33.33,0,0,1,.16-.22.34.34,0,0,1,.28,0l1.57.35a.41.41,0,0,1,.24.16.34.34,0,0,1,0,.26l-.55,2.4,7.57,1.73a.42.42,0,0,1,.23.16.3.3,0,0,1,.06.26l-.41,1.78A.34.34,0,0,1,252.66,157.69Z"/><path class="cls-1" d="M254.14,150.82a.46.46,0,0,1-.28.06l-9.63-1.49a.37.37,0,0,1-.25-.14.36.36,0,0,1-.07-.26l1-6.36a.34.34,0,0,1,.15-.23.38.38,0,0,1,.28-.06l1.39.22a.41.41,0,0,1,.25.13.37.37,0,0,1,.07.27l-.67,4.34,2,.31.62-4.05a.32.32,0,0,1,.15-.22.41.41,0,0,1,.29-.06l1.29.2a.37.37,0,0,1,.24.14.31.31,0,0,1,.08.26l-.63,4.05,2.06.32.69-4.46a.33.33,0,0,1,.14-.23.38.38,0,0,1,.28-.05l1.4.21a.4.4,0,0,1,.24.14.3.3,0,0,1,.07.26l-1,6.47A.31.31,0,0,1,254.14,150.82Z"/><path class="cls-1" d="M255.63,139.53a.38.38,0,0,1-.27.08l-7.74-.63-.2,2.44a.34.34,0,0,1-.13.24.38.38,0,0,1-.27.08l-1.6-.13a.35.35,0,0,1-.26-.13.3.3,0,0,1-.09-.25l.61-7.39a.33.33,0,0,1,.12-.24.39.39,0,0,1,.28-.08l1.6.13a.4.4,0,0,1,.26.12.34.34,0,0,1,.08.26l-.2,2.45,7.74.63a.42.42,0,0,1,.26.12.29.29,0,0,1,.09.25l-.15,1.82A.32.32,0,0,1,255.63,139.53Z"/><path class="cls-1" d="M238.48,124.39l-.08-2.85-2.85-.06L215.63,121l19.55-1.41,3.09-.22-.32-3.07a109.6,109.6,0,0,0-1.73-11.21l-.47-2.26-2.31-.13-20.86-1.1,18.86-.87,3.8-.18-1.05-3.65a111.62,111.62,0,0,0-4-11.36l-.76-1.86H192.62L223,79.52l4.29-.59-2.06-3.81a111.72,111.72,0,0,0-7.22-11.6l-.9-1.26H202l8.68-.75,5.74-.49-3.7-4.42a110.4,110.4,0,0,0-8.75-9.32l-.87-.82h-29.5l17.78-3.23L198.28,42l-5.71-4.13c-2.84-2.06-5.83-4-8.86-5.79l-.7-.41h-16.6l2.91-1L176.78,28l-7.32-3A111,111,0,0,0,23.6,166.46L7.06,180s5.74,4.44,24,2.43A111.46,111.46,0,0,0,49.17,206.2a111,111,0,0,0,135.55,16.68l8.28-5.51A111.45,111.45,0,0,0,208.21,204l4.69-5-6.82-.1-16.85-.25,23.34-1.15,1.36-.06.85-1.08a111,111,0,0,0,7.45-10.7l2.76-4.49-5.27-.07-21.39-.33,25.73-1.26,1.74-.08.79-1.55a109.75,109.75,0,0,0,11.95-50.12C238.54,126.75,238.52,125.64,238.48,124.39ZM127.61,19.84a107.68,107.68,0,0,1,40.72,8l-19.46,6.86h33.32q4.45,2.61,8.62,5.63l-50.62,9.18h61.68a107.27,107.27,0,0,1,8.52,9.06l-77.86,6.74h83.08a108,108,0,0,1,7,11.29L148.87,86.71h78.58a109.3,109.3,0,0,1,3.86,11.05l-78,3.59,3.81-10.14H115.4l-16.6,13.6a8.41,8.41,0,0,0-7.4-4.42H75.31L78,93.12H64.16a10.29,10.29,0,0,0-9.62,6.67l-.22.6H40.38A19.48,19.48,0,0,0,22.13,113l-2.05,5.46A107.93,107.93,0,0,1,127.61,19.84ZM78.67,108.91,72,126.83l-1.15.94H65l7.07-18.86Zm-27.57,0-7.05,18.86H37.49l7.08-18.86ZM19.85,133.76a8.48,8.48,0,0,0,6,2.43H40.89l-2.44,6.51H52.59L26.08,164.43A107.5,107.5,0,0,1,19.85,133.76Zm204.06,42.77-119.46,5.84,115.23,1.74a108.78,108.78,0,0,1-7.26,10.41L95.35,200.24,206,201.91a109.29,109.29,0,0,1-14.8,13l-85.67,4.19,77.61,1.16A108,108,0,0,1,34.31,182a167.13,167.13,0,0,0,25.2-5.84c29.19-8.9,44.5-27.37,44.5-27.37a121.37,121.37,0,0,1-33.3,16.56c-22.86,6.91-37.09,4.9-37.09,4.9l84.22-69.06h24.74l-23.86,63.63v-9.33H99.51v23H124.4l6.67-17.8a.1.1,0,0,0,.08.13h37.7a12,12,0,0,0,11.2-7.76l-3.54,9.45h-2a10.17,10.17,0,0,0-9.52,6.6l-.47,1.24h56.58a10.25,10.25,0,0,0,6.75-2.54Q226.08,172.27,223.91,176.53Zm-71-23,2.18-5.8h6.55l-2.18,5.81Zm44.21,9,7.41-19.75h6.56l-7.41,19.76Zm32.68,0h-5.33l10.44-27.85H200.45a19.47,19.47,0,0,0-18.24,12.64l.35-.94a4.41,4.41,0,0,0-4.13-6H157.86l2.54-6.76h18.51A10.24,10.24,0,0,0,188.5,127l.53-1.39H153.08a12.77,12.77,0,0,0-12,8.29l12.15-32.41,80,4.25a108.47,108.47,0,0,1,1.69,10.9l-83,6,83.54,1.88c0,1.09.06,2.18.06,3.29A108,108,0,0,1,229.82,162.51Z"/></g></g></svg>