<svg xmlns="http://www.w3.org/2000/svg" viewBox="0 0 554.23 447.63"><defs><style>.cls-1{fill:#e4eff3;}</style></defs><g id="Шар_2" data-name="Шар 2"><g id="Шар_2-2" data-name="Шар 2"><path class="cls-1" d="M553.84,169.86c-1.77-4.25-5.87-3.47-11.05-2.49a111.75,111.75,0,0,1-24.36,2.23l-1.37,0q-12.58-.11-22.88-.66a223.95,223.95,0,0,0-434.14,0q-10.29.56-22.87.66l-1.37,0a111.67,111.67,0,0,1-24.36-2.23c-5.19-1-9.28-1.76-11,2.49-.77,1.83-.4,4,1.08,6.49,4.07,6.81,18.77,18.44,40.88,20.63l2.11.19a5.58,5.58,0,0,0,.21,1.31c.82,2.83,4.15,6,9.25,8.49q-.62,8.37-.62,16.84A223.81,223.81,0,0,0,435.37,382.07a222.34,222.34,0,0,0,65.55-158.26q0-8.46-.62-16.84c5.11-2.51,8.43-5.66,9.26-8.49a5.58,5.58,0,0,0,.21-1.31l2.11-.19c22.11-2.19,36.81-13.82,40.88-20.63C554.24,173.87,554.6,171.69,553.84,169.86ZM277.11,6c101,0,186.16,69.1,210.69,162.51-6.25-.45-11.76-1-16.48-1.79a4.29,4.29,0,0,0,.35-2.88,5.13,5.13,0,0,0-3.71-3.46l-.34-.08c-.29,0-26.58-4.2-40.42-7.5a166.26,166.26,0,0,0-150.09-95h0A166.24,166.24,0,0,0,127,152.8c-13.85,3.3-40.13,7.46-40.43,7.5l-.34.08a5.12,5.12,0,0,0-3.7,3.46,4.22,4.22,0,0,0,.35,2.88c-4.73.74-10.24,1.34-16.49,1.79C91,75.11,176.11,6,277.11,6ZM188.94,95c1.19-1.17,2.28,0,4.6-1.28,2-1.09,3.15-3,4.21-4.89,1.4-2.45,1.28-3.45,2.68-4.59.82-.67,2.62-1.76,3.58-1.15.49.3.7,1,.73,2a129.24,129.24,0,0,0-21.34,25q-3.27,4.92-6.19,10.21h-22c.41-.48.83-1,1.25-1.43,1.34.54,4.28.28,5.63.1,1.73-.24,5.12-.72,6.64-3.15,1.25-2,.16-3.63,2-7,1-1.93,1.66-1.89,1.78-1.87.73.1.57,1.56,1.54,2.46,1.6,1.5,5.82,1,7.82-1.27,1.46-1.64,1-3.33,2.81-4.6,1.22-.83,1.7-.3,2.56-1C189.25,100.73,187,96.93,188.94,95ZM241,92.16a14,14,0,0,1,6.25-9.83c2.47-1.42,3.1-.36,6.13-2a15.85,15.85,0,0,0,5.87-5.87c1.12-2,2.4-4.18,1.79-6.39l0-.09a33.27,33.27,0,0,1,13.08-4V95.76c-1.47-.45-2.78-1.69-4-1.05-2,1.08,0,5.5-2.56,7.66-1.83,1.53-5.51,1.54-5.74,1.53-1.31,0-1.8-.25-2.56.13-1.47.75-2.33,3-1.78,5,.69,2.47,3.36,3.24,4.08,3.45a3.82,3.82,0,0,0,2.56.13c1.39-.57,1.5-2.1,2.68-2.3a2.47,2.47,0,0,1,1.91.76c1.45,1.42.13,3.41,1.15,6.51a7.29,7.29,0,0,0,1.38,2.7H226.75c.82-2.57,1.68-5.08,2.58-7.51,1.26-3.45,2.69-7,4.29-10.54a6,6,0,0,0,1.54.29,6.25,6.25,0,0,0,5.49-2.81C242.1,97.42,240.49,96,241,92.16Zm-16.94,58.68c-.77,1.5-2.06,1-3.06,2.55-1.36,2-.87,5.64.85,6.64,1.53.89,3.21-.77,4.43.17s.87,3.24.34,4.77c-.73,2.09-2.26,3.42-6.47,6.13-2.06,1.32-3.55,2.2-4.65,2.83a300.55,300.55,0,0,1,9.38-47.67h29.93a8.31,8.31,0,0,1-2.32,1.94,17.77,17.77,0,0,1-8,2.22c-3.07,0-4.47-.92-5.28,0s-.36,3.52,1,4.76c.78.69,1.17.42,1.88,1,1.73,1.49,1.65,5.17.17,7.66a4.24,4.24,0,0,1-2.22,2.21c-1.81.57-2.83-1.22-6.47-2.38a9.12,9.12,0,0,0-6.12-.34,5.26,5.26,0,0,0-3.07,2.38C223.5,147.67,225,149,224.09,150.84Zm-14.32,20.79c-.32-1.95-.71-4-1.24-6.29-2.92-12.23-18.84-18.74-32.55-18.74h-.47c-1.31,0-2.58,0-3.82.06a171.72,171.72,0,0,1,9.09-20.41h37.89A307.72,307.72,0,0,0,209.77,171.63Zm21.43-8c.7-1.19,1.83-1.65,6.64-3.32,3.09-1.07,3.71-1.25,4.34-2,1-1.26.4-2,1.4-3.83.81-1.48,1.26-1.09,3.7-3.7.53-.56,1.77-1.93,3.58-3.71.87-.85,1.51-1.45,2-1.27.74.25.36,1.71,1.28,2.29,1.12.73,3.11-.55,3.44-.76a7.76,7.76,0,0,0,2.3-2.43c1-1.49,1-2.38,1.53-2.42s1.19,1.14,1.79,2.42c1.22,2.6.76,3.06,1.53,4,1.26,1.46,2.81.63,4.85,2a6.92,6.92,0,0,1,2.31,2.81,69.86,69.86,0,0,0-36.88,13.81c-1.61,0-3.61,0-4.23-1.17S231.09,163.84,231.2,163.65Zm40.47-20.17c-1-.44-1.74-.28-2.17-.89a2.1,2.1,0,0,1,.38-2.56c.17-.15.73-.58,2.55-.25a12.93,12.93,0,0,1,1.68.39v5.6A6.27,6.27,0,0,0,271.67,143.48Zm-48-32.8q-1.69,4.62-3.24,9.58H184.12q2.06-3.54,4.28-6.89a128.84,128.84,0,0,1,11.29-14.66c-1.67,2.42-3,3.8-2.58,4.3.59.68,3.77-1.13,4.47-1.53,3-1.68,3.5-2.9,5.49-4.34,2.26-1.64,2.54-.78,10.6-3.32a57.88,57.88,0,0,1,7.66-2.17c3.31-.64,5-.94,5.87-.13a2.05,2.05,0,0,1,.55.87A151.41,151.41,0,0,0,223.69,110.68ZM174,126.26a181.23,181.23,0,0,0-8.79,20.59c-12.4.49-21.41,1.67-30.53,3.94a160.37,160.37,0,0,1,15.6-24.53ZM163.16,153c2-.1,4.15-.17,6.39-.23,1.93-.05,3.92-.09,6-.11,11.4-.1,25,5.23,27.12,14.12.73,3.07,1.18,5.93,1.58,8.46.74,4.74,1.45,9.12,3.86,12.45.09.13.17.27.26.39a12.43,12.43,0,0,0,2.87,2.66,15.59,15.59,0,0,0,2.55,1.32l.51.21c-.22.42-.41.85-.62,1.28-.62,1.3-1.22,2.61-1.76,3.95a21.75,21.75,0,0,1-4.47.71h-.09a16,16,0,0,1-2.53-.14,14.17,14.17,0,0,1-5.79-2.13l-.28-.18a18.44,18.44,0,0,1-2.41-1.94,27.84,27.84,0,0,1-4.33-5.53l-.41-.66c-1-1.78-2-3.69-2.94-5.66-.45-1-.9-2-1.34-3s-.78-1.68-1.21-2.45a25,25,0,0,0-2-3.12,20.32,20.32,0,0,0-4.28-4.22c-.12-.09-.23-.19-.36-.28l-.69-.45a24.75,24.75,0,0,0-12.9-3.48c-.8,0-1.6,0-2.41,0-1.28.05-2.57.16-3.87.3-2.34.26-4.69.64-7,1.1-1.22.24-2.43.5-3.63.77-1.64.37-3.25.75-4.82,1.13l-1.28.3c-1.72.4-3.39.8-5,1.14-4.44.95-8.45,1.63-12.11,2.11-2.33.3-4.52.53-6.55.67-1.82.13-3.52.19-5.13.21-14,.11-20.33-3.81-23.89-6.87,6.25-1,22.15-3.66,33.79-6.17,2.73-.59,5.23-1.17,7.31-1.72l1.17-.32C141.89,154.94,150.75,153.55,163.16,153Zm99.23,155c.07,1.49.68,2.43,3.06,5.78,3.44,4.84,5,6.9,5.52,7.64H224.91c-5.23-18-8.89-38.91-10.78-61.4h2.71a70.35,70.35,0,0,0,53.06,33.78c-.3.36-.53.67-.7.92s-1.18,2-3.23,5.45C262.92,305.27,262.32,306.35,262.39,308Zm-43.64,13.42h-38c-9.51-18-16.15-38.89-19.58-61.4h47C210,281.63,213.48,302.71,218.75,321.37Zm-55.32-146c-.16,0-.33.09-.47.11a10.59,10.59,0,0,1-1.84.21,13,13,0,0,1-2.34-.09,14.49,14.49,0,0,1-1.46-.29,14.05,14.05,0,0,1-4.85-2.3c-.18-.13-.33-.28-.5-.41l.6-.13.27-.05q2.76-.57,5.29-.94a52.11,52.11,0,0,1,6.28-.59c1.07,0,2.1,0,3.08.07a19.92,19.92,0,0,1,5,1A76.34,76.34,0,0,1,163.43,175.4Zm15,.51c.16.18.31.39.47.58.28.34.56.68.82,1.06s.39.58.58.88l-.66.86-2.19.88a35.25,35.25,0,0,1-4.95,1.66,13,13,0,0,1-4.35.09,13.17,13.17,0,0,1-3-.79,52.64,52.64,0,0,0,5.25-1.84C172.89,178.33,175.64,177.15,178.45,175.91Zm-19.31,8.76a21.74,21.74,0,0,0,2.32,1.36c.55.27,1.1.53,1.68.75-.57.46-1.14.89-1.72,1.27l-.29.19a10.88,10.88,0,0,1-3.19,1.47,30.8,30.8,0,0,1-3.18.59l-.33,0a26.85,26.85,0,0,1-2.89.2,21.89,21.89,0,0,1-6.69-.85l1-.17c1.44-.29,2.88-.66,4.29-1.09a47,47,0,0,0,5.15-1.9A41.09,41.09,0,0,0,159.14,184.67Zm4.39,9.11a33.8,33.8,0,0,0,6.28-4.93c.28-.26.55-.53.82-.8a20.36,20.36,0,0,0,2.29-.22,45.72,45.72,0,0,1-3.66,3.71c-.14.13-.28.24-.42.35a12,12,0,0,1-5.74,2.75,11.12,11.12,0,0,1-1.59.16A18.22,18.22,0,0,0,163.53,193.78Zm8.76,3.05c.32-.26.65-.53,1-.82a58.13,58.13,0,0,0,6.47-7c1.25-1.55,2.41-3.1,3.51-4.56l.4.85c-.5.93-1,1.88-1.55,2.83-.7,1.24-1.42,2.45-2.12,3.59a22.28,22.28,0,0,1-4.18,5.34,19.3,19.3,0,0,1-2,1.38,8,8,0,0,1-3.09,1.21,2.19,2.19,0,0,1-1.45-.22,1.64,1.64,0,0,1-.41-.42A19.49,19.49,0,0,0,172.29,196.83Zm35.82,40.49c-.41.71-.8,1.37-1.19,2-4.78,7.65-8.56,8.45-9.66,8.4a4.13,4.13,0,0,1-3.46-2.66,5.74,5.74,0,0,1-.33-1,50.3,50.3,0,0,0,3.95-4.28c5.44-6.59,8.27-14.89,9.27-22.5.1-.76.19-1.53.26-2.28.15-.1.31-.22.46-.34s0-.08,0-.12a69.13,69.13,0,0,0,.68,22.83Zm-.92-32.49c-.05.19-.11.36-.16.54a7.51,7.51,0,0,1-1.21,2.49c-2,2.52-3.85,3-4.71,2.79a.83.83,0,0,1-.22-.08,1.27,1.27,0,0,1-.51-.69c.25-.31.46-.65.69-1a19.76,19.76,0,0,0,1.69-3.15q.39-.9.72-1.83a21.63,21.63,0,0,0,3.38.27h.49C207.3,204.4,207.24,204.61,207.19,204.83Zm-6.49,11.83c-.9,6.59-3.36,13.74-7.91,19.25a37.61,37.61,0,0,1-5.26,5.34c-3.66,3-6.84,3.89-8.75,2.34a4.81,4.81,0,0,1-1.6-3.37c1.17-.73,2.37-1.53,3.61-2.43,8.34-6,13.22-15.07,15.56-23.26a6.4,6.4,0,0,0,1.6,1.27A7.17,7.17,0,0,0,200.7,216.66Zm-6.34-9.13a5.37,5.37,0,0,1-.45.35,6.33,6.33,0,0,1-2.35,1,2.88,2.88,0,0,1-2.35-.35A1.58,1.58,0,0,1,189,207c2-1.59,3.57-4.25,5-7.36a21.4,21.4,0,0,0,2.32,1.63l.11.07c.45.27.92.53,1.4.77A11.87,11.87,0,0,1,194.36,207.53Zm-5.2-11.93c-1.27,3-2.66,5.65-4,6.74-.41.32-.81.61-1.2.86a10.39,10.39,0,0,1-3.08,1.45c-1.26.35-2.14.25-2.4,0s-.29-.9.13-2.17l.89-.65a19.86,19.86,0,0,0,3.55-3.89c.78-1.07,1.56-2.25,2.33-3.5.54-.89,1.08-1.79,1.61-2.73l.08-.07c.39.61.8,1.22,1.23,1.82l.5.7.34.45.29.38C189.34,195.19,189.25,195.39,189.16,195.6Zm-16.38,11.64L173,207h0a6.42,6.42,0,0,0,1.42,2,6.92,6.92,0,0,0,3.26,1.67c-.24.38-.48.76-.73,1.14l-.51.78a52.51,52.51,0,0,1-16.3,15.71c-.52.31-1,.6-1.54.87a43.86,43.86,0,0,1-4.56,2.18c-.47.19-.93.36-1.37.52-6.29,2.23-10,1.31-11.21.05,1.11-.4,2.24-.84,3.4-1.35a52.31,52.31,0,0,0,7.7-4.21c2-1.33,4-2.81,6-4.39A82.87,82.87,0,0,0,172.78,207.24Zm-14.88,29,.89-.41c1.4-.66,2.85-1.42,4.35-2.31a59.48,59.48,0,0,0,18.62-18.16c.82-1.24,1.57-2.48,2.27-3.72a6.72,6.72,0,0,0,1.25,1.43,8,8,0,0,0,4.68,1.87,40.94,40.94,0,0,1-5.57,10.82,32.74,32.74,0,0,1-7.12,7.18,49.6,49.6,0,0,1-5.45,3.47c-6.59,3.56-10.95,3.44-12.88,2.1a2.78,2.78,0,0,1-.66-.61A1.86,1.86,0,0,1,157.9,236.23Zm4.41,9.12a23.7,23.7,0,0,0,9.33-2.2,10.48,10.48,0,0,0,3.36,5.1,9.51,9.51,0,0,0,6,2.06,14.38,14.38,0,0,0,7.52-2.42,9.92,9.92,0,0,0,8.58,5.82h.26c2.65,0,6.18-1.2,10-5.14q.15,2.7.33,5.4H160.36c-.37-2.94-.68-5.92-.94-8.91A13.81,13.81,0,0,0,162.31,245.35Zm-38.59-67.28,1.67-.18c4.14-.5,8.68-1.25,13.71-2.33l2.58-.57,3.52-.83c.18.26.36.51.56.76a18.81,18.81,0,0,0,3.92,3.5c.43.28.88.56,1.35.82a20,20,0,0,0,2.92,1.34,41,41,0,0,1-5.23,2c-.86.27-1.73.52-2.62.73-.46.12-.93.22-1.41.31a29.2,29.2,0,0,1-4.81.56l-1,0a35.28,35.28,0,0,1-6.14-.47,32.65,32.65,0,0,1-8.37-2.54c-.47-.22-.91-.45-1.34-.69a17.68,17.68,0,0,1-2.29-1.45c-.31-.24-.57-.46-.8-.67C121.13,178.34,122.41,178.21,123.72,178.07Zm13.74,14.75a20.74,20.74,0,0,0,6.58,2.87,145.15,145.15,0,0,1-26.27,13l-1.07.4q-2.58.91-5.14,1.68c-2,.59-3.93,1.11-5.86,1.53a59.46,59.46,0,0,1-9.7,1.35c-7.07.35-11.74-1-14.09-2.18l.22,0c8-.78,19.17-3.71,30.12-7.55,1.49-.52,3-1.06,4.45-1.62l1.91-.73A146.07,146.07,0,0,0,137.46,192.82ZM107,218.15c1.36-.29,2.77-.65,4.21-1.05,2-.56,4-1.2,6.09-1.92A152.41,152.41,0,0,0,138.22,206a121.06,121.06,0,0,0,13.15-8,21.43,21.43,0,0,0,2.35,1.17c.52.22,1.05.44,1.6.63-.58.57-1.19,1.14-1.82,1.72l-.81.75a94.28,94.28,0,0,1-9.92,7.77,80.06,80.06,0,0,1-17.11,9,42.42,42.42,0,0,1-8.58,2.23c-.52.07-1,.14-1.54.19a31,31,0,0,1-4.46.12,18.46,18.46,0,0,1-8.36-2.14c-.24-.14-.44-.28-.64-.42C103.68,218.8,105.3,218.52,107,218.15Zm20.14,6.74.6-.21c8.28-3.05,17.46-8.58,25.15-14.74,2.28-1.82,4.44-3.7,6.39-5.59,1.25-1.21,2.43-2.43,3.5-3.63H163a7.86,7.86,0,0,0,2.66,3.54A7.07,7.07,0,0,0,167,205a75.09,75.09,0,0,1-8.28,9.05,67.92,67.92,0,0,1-6.15,5.1,53.19,53.19,0,0,1-10.14,5.92,44.68,44.68,0,0,1-6.27,2.23,31.5,31.5,0,0,1-7.19,1.15,14.74,14.74,0,0,1-7.46-1.41c-.24-.13-.44-.26-.62-.38A50.54,50.54,0,0,0,127.13,224.89Zm-2,15.42c-.07-1.06,1.38-1.4,2.53-2.11a3.7,3.7,0,0,0,1.56-3.74,35.24,35.24,0,0,0,6.26-.79,7,7,0,0,0,.62,1.22c1.7,2.65,5,4.37,9.65,4.37a24.5,24.5,0,0,0,6.25-.91,8.26,8.26,0,0,0,1.07,2.56q.45,6.6,1.24,13.06h-5.2c-1.07-1.08-2.09-1.09-5-3.54-2.26-1.93-2.52-4.56-5.71-7.31-2.14-1.85-3.7-.58-5.93-1.56A3.76,3.76,0,0,0,129,242c-1.4,1.12-.7,2.51-1.56,3s-2.21-.93-2.34-1.19C124.65,242.84,125.22,241.61,125.14,240.31Zm19.46,69c.24-2.18-1.36-3.92-.68-4.6.36-.35,1,0,2.39.17.89.12,3.57.47,4.76-.51.87-.7.69-1.89.34-5.95-.64-7.52-.53-9.12-2-10.39-1.2-1-2.08-.66-2.89-1.87a5.11,5.11,0,0,1,0-5.28c1.49-2.34,6-.81,5.56-5.53-.41-4.26.62-8.48-.46-15.06,0-.12,0-.21-.05-.32h3.6c3.32,22.36,9.73,43.23,18.9,61.4H150.31q-3.51-4.56-6.7-9.38A6.17,6.17,0,0,0,144.6,309.31Zm32.61,18.06q2.92,5.28,6.19,10.21c9.61,14.49,21,26.08,33.8,34.63a160.77,160.77,0,0,1-62-44.84Zm11.19,6.89c-1.48-2.23-2.91-4.54-4.28-6.89h36.41c7.4,23.77,17.86,43,31.55,53.6C226.52,374.83,204.8,359,188.4,334.26Zm40.93.62c-.9-2.43-1.76-4.94-2.58-7.51h47.36v56.35C251.29,381.66,237.21,356.31,229.33,334.88ZM224,260a62.93,62.93,0,0,1-3.63-6,64.13,64.13,0,0,1,1-62,65,65,0,0,1,22.08-22.86,64,64,0,0,1,27.2-9.27,64.75,64.75,0,0,1,6.56-.33,63.87,63.87,0,0,1,19.7,3.1c1.12.36,2.22.75,3.32,1.17a65.75,65.75,0,0,1,6.4,2.88c.3.16.6.3.89.46A64.78,64.78,0,0,1,335.56,197a64.32,64.32,0,0,1-58.45,91.14c-1,0-2,0-3-.08A64.32,64.32,0,0,1,224,260Zm91.63-113.81a7.85,7.85,0,0,0-4,1.53c-2.13,1.3-2,2.14-3.95,3.19-.93.51-3.07,1.69-5,.9-1.17-.49-1.73-1.49-2.68-3.19s-1.55-2.78-1.28-4c.35-1.51,1.66-1.41,2.68-3.32s.08-2.94,1-4,3.07-.86,7.28-.51c2.86.24,4.28.55,4.85-.25s-.45-2.45.26-3.07a2,2,0,0,1,2.17.26c1.73,1.33-.22,4.27,1.4,6.51.32.44,2,1.15,5.36,2.55,2.62,1.09,3.4,1.36,4.09,2.3s1.37,2.86.64,4c-1,1.53-4.28,1.09-6.13.51C318.76,148.48,318.26,146.13,315.58,146.16Zm4.47,21.7a1.41,1.41,0,0,1-.18.17c-1.65-1.26-3.35-2.46-5.11-3.58a3.55,3.55,0,0,0,1.08-.8c1.18-1.29.86-2.7,1.91-3.06a2.63,2.63,0,0,1,2.43.89A4.94,4.94,0,0,1,320.05,167.86Zm-8.39-5.27q-2.28-1.29-4.65-2.41a3.23,3.23,0,0,1,4.61,2.19A1.43,1.43,0,0,1,311.66,162.59Zm-18.55-10.81c.66-.86,2.81-.17,3.32,0,.76.24,3.65,1.17,4.73,3.95a5.32,5.32,0,0,1,.35,2.13,70.75,70.75,0,0,0-7.7-2.36,17.1,17.1,0,0,1-.57-1.68C292.8,152.35,293,152,293.11,151.78Zm-1.91-42.64c-.43-.85-.32-2.11.25-2.43s1,.44,2.17.51c1.56.1,2.32-1.09,2.81-.76s.45,2.9-1.15,3.83A3.11,3.11,0,0,1,291.2,109.14Zm34.85-17c-.47.38-1.36.29-4.45-1.35a92.72,92.72,0,0,0-9.45-14.25c1,.66,2.45,1.44,4.2,2.49,4.22,2.55,6.81,4.15,8.51,7C326.17,88.18,327.07,91.29,326.05,92.12Zm-12.6-19.75c-1.17,1.51-2.59,1.51-2.72,2.39v.08a60,60,0,0,0-8.56-8.18,99.3,99.3,0,0,1,12.17,3.81A4.58,4.58,0,0,1,313.45,72.37ZM310.81,84.7a.51.51,0,0,0-.25.1c-.92.7,1.4,3.64,0,5.79-1.06,1.61-2.91.75-4.59,2.55s-.55,3.37-2.22,5.45a8.15,8.15,0,0,1-4.93,2.55,12.9,12.9,0,0,1-5.57-.22,7,7,0,0,0-.9-2.76c-1-1.77-2.27-2.31-2-3.06.16-.56,1-.76,2.17-1,2.66-.6,4-.07,4.34-.63S296,91,294.26,89.86c-3.61-2.4-8.32-1.12-10.59-.51a9.89,9.89,0,0,0-3.56,1.43V63.91C293,65.07,303.05,73.62,310.81,84.7Zm-29.7,18.69c1.09-2,.75-2.81,1.66-4,.72-.9,2-1.77,2.81-1.41s.44,1.31.8,2.35a14.77,14.77,0,0,0-2.71,3.48c-1.11,1.74-1.74,2.74-1.36,3.58.66,1.48,3.54.46,4.93,2,1.89,2.15-.67,7.15-.85,7.49a15.23,15.23,0,0,1-2.36,3.29h-3.92V104.9C280.43,104.37,280.65,104.23,281.11,103.39Zm0,43.92c1.41.87,2.06.47,2.81,1.4.35.43.85,1.3.39,5.11v0c-1.32-.14-2.65-.23-4-.29l-.21-.4v-6.69A4.5,4.5,0,0,0,281.11,147.31Zm58.34-16.47c.76-1,2.89-1.19,4.22-.13a3.59,3.59,0,0,1,.76,4.34c-.79,1.43-2.38,1.19-2.81,2.56a3.56,3.56,0,0,0,.64,2.68,5.67,5.67,0,0,0,2.17,2c2.78,1.51,4.82-.08,5.88,1.15.64.75-.11,1.37.25,5.11.19,1.92.46,2.5.77,2.93.73,1,1.49.94,2,1.92a3,3,0,0,1,.26.63,24.57,24.57,0,0,0-4,3.72,11.21,11.21,0,0,1-2.12-.4c-1.2-.35-3.06-.9-3.71-2.42-1-2.39,2.07-4.5,1-6.9-.33-.74-.67-.63-3.2-2.55-.65-.49-1.2-.91-1.69-1.3-.68-3.28-1.41-6.5-2.19-9.64a1.88,1.88,0,0,0,1.2-.8C339.64,132.7,338.76,131.73,339.45,130.84Zm17.37,2.81c.6.56,1.66-.29,2.29.25s.47,2.42-.51,3.32c-.59.55-1,.31-2.55.9-1.85.69-2,1.27-2.68,1.15-.95-.17-1.46-1.48-2.43-4.09-.8-2.17-1.19-3.27-.76-4.08s1-.59,2.42-1.92c1.19-1.09,1.25-1.64,1.79-1.66,1,0,2.08,1.68,2.3,3.32C356.88,132.3,356.29,133.16,356.82,133.65Zm-10,80.85s0,.07,0,.11.31.24.46.34c.06.72.15,1.44.24,2.17,1,7.64,3.82,16,9.29,22.61a50.3,50.3,0,0,0,3.95,4.28,5.74,5.74,0,0,1-.33,1,4.14,4.14,0,0,1-3.46,2.66c-1.11,0-4.88-.7-9.68-8.44-.38-.61-.77-1.26-1.17-2a68.95,68.95,0,0,0,.68-22.8Zm35.6,21.9a50.57,50.57,0,0,1-5.45-3.47,32.47,32.47,0,0,1-7.11-7.18,40.94,40.94,0,0,1-5.57-10.82,8,8,0,0,0,4.68-1.87,6.72,6.72,0,0,0,1.25-1.43c.69,1.24,1.45,2.48,2.27,3.72a59.34,59.34,0,0,0,18.61,18.16c1.5.88,2.95,1.64,4.35,2.3q.45.23.9.42a1.89,1.89,0,0,1-.38,1.66,3.08,3.08,0,0,1-.67.62C393.34,239.85,389,240,382.4,236.4Zm12.4,8.67c-.27,3-.57,6-.94,8.9H352.39a9.88,9.88,0,0,0-2-2.39,11.86,11.86,0,0,0,6.45,2.13h.26a9.89,9.89,0,0,0,8.57-5.82,14.44,14.44,0,0,0,7.53,2.42,9.53,9.53,0,0,0,6-2.06,10.48,10.48,0,0,0,3.36-5.1,23.67,23.67,0,0,0,9.33,2.2A14.5,14.5,0,0,0,394.8,245.07Zm.86-15.86c-.5-.28-1-.56-1.54-.87a52.59,52.59,0,0,1-16.29-15.71c-.18-.26-.34-.52-.51-.78s-.5-.76-.73-1.14a6.92,6.92,0,0,0,3.26-1.67,6.58,6.58,0,0,0,1.42-2h0l.17.26A83.18,83.18,0,0,0,395.7,222a73.54,73.54,0,0,0,6,4.4,53.79,53.79,0,0,0,7.7,4.21c1.17.51,2.3.95,3.41,1.35-1.22,1.26-4.92,2.19-11.22-.05-.44-.16-.9-.33-1.36-.52A44.94,44.94,0,0,1,395.66,229.21Zm16.14-4.1a53.24,53.24,0,0,1-10.14-5.93,67.92,67.92,0,0,1-6.15-5.1,74.92,74.92,0,0,1-8.27-9,7.07,7.07,0,0,0,1.35-.79,7.86,7.86,0,0,0,2.66-3.54h.21c1.07,1.2,2.24,2.41,3.49,3.62,1.95,1.89,4.11,3.77,6.39,5.6,7.69,6.16,16.88,11.69,25.15,14.74a51.48,51.48,0,0,0,6.86,2c-.18.12-.38.25-.62.38-2.72,1.51-7.78,2.13-14.65.26A45.23,45.23,0,0,1,411.8,225.11Zm-26.42-33.22c-.13-.11-.27-.22-.41-.35a44.14,44.14,0,0,1-3.66-3.71,20.36,20.36,0,0,0,2.29.22l.81.8a33.8,33.8,0,0,0,6.28,4.93,18.35,18.35,0,0,0,2,1,11,11,0,0,1-1.59-.16A12,12,0,0,1,385.38,191.89Zm7.72-3.66c-.1-.06-.2-.11-.3-.18-.57-.38-1.14-.81-1.72-1.27a17.32,17.32,0,0,0,1.69-.76,19.17,19.17,0,0,0,2.31-1.35,42.16,42.16,0,0,0,3.81,1.87,48.69,48.69,0,0,0,5.17,1.9c1.41.43,2.85.8,4.29,1.09l1,.17a21.78,21.78,0,0,1-6.68.85,26.67,26.67,0,0,1-2.89-.2l-.34,0a30.63,30.63,0,0,1-3.17-.59A10.69,10.69,0,0,1,393.1,188.23Zm3.8-12.89a14,14,0,0,1-1.46.29,12.91,12.91,0,0,1-2.34.09,10.81,10.81,0,0,1-1.84-.21c-.13,0-.3-.07-.47-.11-.4-.1-.87-.24-1.4-.41-2-.67-4.81-1.81-7.62-3a19.73,19.73,0,0,1,5-1,42.63,42.63,0,0,1,9.34.52c1.7.25,3.46.56,5.31.94l.27.05.6.13c-.17.13-.32.28-.5.41A13.84,13.84,0,0,1,396.9,175.34ZM383.14,179l.63.25a52.58,52.58,0,0,0,5.24,1.84,13.2,13.2,0,0,1-7.3.7,16.33,16.33,0,0,1-2.15-.62c-.83-.28-1.78-.64-2.8-1l-2.19-.88-.66-.86c.19-.3.38-.6.58-.88s.54-.72.82-1.06c.16-.19.31-.4.47-.58C378.35,177.05,380.87,178.13,383.14,179Zm-8.66,10a58.23,58.23,0,0,0,6.48,7c.33.29.65.56,1,.82A19.13,19.13,0,0,0,385.4,199a1.53,1.53,0,0,1-.42.42,2.17,2.17,0,0,1-1.45.22,8,8,0,0,1-3.08-1.21,19.34,19.34,0,0,1-2-1.38,22.29,22.29,0,0,1-4.17-5.34c-.71-1.14-1.42-2.35-2.12-3.59-.41-.73-.81-1.46-1.2-2.18-.12-.22-.24-.43-.35-.65l.39-.85.81,1.06C372.64,186.69,373.53,187.85,374.48,189Zm-3.29,8.9a19.86,19.86,0,0,0,3.55,3.89c.3.23.6.44.89.65.42,1.27.31,2,.12,2.17s-1.13.35-2.4,0a10.62,10.62,0,0,1-3.08-1.45c-.38-.25-.78-.54-1.19-.86-1.35-1.09-2.74-3.77-4-6.74-.08-.21-.17-.41-.26-.61.1-.13.2-.25.29-.38l.35-.45.5-.7c.42-.6.84-1.21,1.22-1.82l.09.07c.53.94,1.07,1.84,1.61,2.73C369.63,195.69,370.4,196.87,371.19,197.94Zm-5.91,9a1.58,1.58,0,0,1-.26,1.56,2.89,2.89,0,0,1-2.36.35,6.33,6.33,0,0,1-2.35-1l-.45-.35a11.85,11.85,0,0,1-3.42-5.45c.48-.24.95-.5,1.4-.77l.11-.07a22.42,22.42,0,0,0,2.32-1.63C361.71,202.72,363.32,205.38,365.28,207Zm-7.4,7.56c2.34,8.19,7.22,17.22,15.55,23.26,1.25.9,2.45,1.7,3.62,2.43a4.85,4.85,0,0,1-1.6,3.37c-1.91,1.55-5.1.62-8.75-2.34a37.61,37.61,0,0,1-5.26-5.34c-4.55-5.51-7-12.66-7.92-19.25a7.22,7.22,0,0,0,2.76-.86A6.77,6.77,0,0,0,357.88,214.53Zm-4.55-4a.72.72,0,0,1-.22.08c-.85.25-2.68-.27-4.7-2.79a7.39,7.39,0,0,1-1.23-2.55c-.05-.16-.1-.31-.14-.48s-.11-.43-.16-.66h.49a21.63,21.63,0,0,0,3.38-.27c.21.62.45,1.23.71,1.83a19.8,19.8,0,0,0,1.7,3.15c.22.33.44.67.68,1A1.18,1.18,0,0,1,353.33,210.57Zm-5.79,38.7-.68-.48v-.18C347.09,248.84,347.31,249.06,347.54,249.27Zm.47,10.85.14-.15H393c-3.43,22.51-10.07,43.42-19.58,61.4H350.67c.78-1,1.59-2.17,2.44-3.38,4-5.72,3.48-6.64,7.66-12.77,2-3,3-4,4-6.51.34-.89,2.76-8.8.26-10.72-1.1-.84-3,.8-4.22,1.66-1.56,1.14-.73,2.83-2.29,5.74-.51.95-1.88,3.51-4.34,4.22-2.07.59-3.07-.65-4.47.12-.35.2-1.28.82-2.05,5.24-.89,5.18-.16,7.47-1.91,8.93-.76.64-1.32.56-1.92,1.41-.3.44-.84,1.45-.38,4.21.11.63.21,1.25.33,1.85h-8.27c2-7.28,3.84-14.94,5.37-22.85a27.44,27.44,0,0,0,3.08-5.55c.57-1.47.09-.8.51-14.81,0-1.26.08-2.42.12-3.51q.61-5,1.1-10.14A10.15,10.15,0,0,1,348,260.12ZM333,307.27c-1.11,4.87-2.33,9.58-3.64,14.1h-4c.07-.1.14-.2.21-.32,1.56-2.56.21-4.57,1.7-7.83a11.91,11.91,0,0,1,3.92-4.42C331.72,308.35,332.32,307.83,333,307.27Zm-52.84,27c.06.16.11.3.15.45,1.16,3.71,1.74,5.57,1.71,7.83,0,1.93-.4,3.41.51,4.26s2.41.37,4.42,0c6.22-1.16,7,.62,11.24-.69,2-.61,3.53-1.71,6.63-3.91a38.27,38.27,0,0,0,8.17-7.15c2.93-3.55,3.3-5.7,4.53-7.64h10c-.83,2.57-1.68,5.08-2.58,7.51-7.88,21.43-22,46.78-44.78,48.84Zm53.58-6.85H370.1c-1.38,2.35-2.8,4.66-4.28,6.89C349.42,359,327.7,374.83,302.14,381,315.83,370.39,326.28,351.14,333.69,327.37Zm37.13,10.21q3.26-4.92,6.19-10.21h22a160.7,160.7,0,0,1-62,44.84C349.85,363.66,361.21,352.07,370.82,337.58Zm9.37-16.21c9.17-18.17,15.58-39,18.9-61.4h34a159.59,159.59,0,0,1-29.14,61.4ZM399.9,254q.78-6.45,1.23-13a8.18,8.18,0,0,0,1.09-2.58,24.44,24.44,0,0,0,6.25.91c4.65,0,7.95-1.72,9.64-4.37a7.07,7.07,0,0,0,.63-1.22,33.66,33.66,0,0,0,7.13.81c4.88,0,8.65-1.26,11.12-3.06A160.77,160.77,0,0,1,434.31,254Zm28.67-34.92a79.82,79.82,0,0,1-17.11-9,94.28,94.28,0,0,1-9.92-7.77l-.82-.76c-.63-.57-1.24-1.15-1.81-1.71.54-.18,1.06-.4,1.58-.63a18.51,18.51,0,0,0,2.36-1.17A122,122,0,0,0,416,206a152.41,152.41,0,0,0,20.93,9.19c2.07.72,4.11,1.36,6.09,1.91,1.44.41,2.85.77,4.22,1.06,1.68.37,3.31.65,4.9.88a7.11,7.11,0,0,1-.64.42,18.46,18.46,0,0,1-8.36,2.14,31,31,0,0,1-4.46-.12c-.5-.05-1-.12-1.55-.2A42,42,0,0,1,428.57,219.05Zm19.95-6.76c-1.92-.42-3.88-.94-5.86-1.53-1.7-.51-3.42-1.07-5.13-1.68l-1.08-.4a144.72,144.72,0,0,1-26.26-13,20.58,20.58,0,0,0,6.57-2.87,146.11,146.11,0,0,0,18.85,8.71l1.92.74c1.47.56,3,1.09,4.44,1.62,10.95,3.84,22.17,6.77,30.12,7.55l.23,0c-2.36,1.22-7,2.53-14.09,2.18A59.57,59.57,0,0,1,448.52,212.29Zm-33.14-28-1,0a29.44,29.44,0,0,1-4.82-.56c-.47-.09-.94-.19-1.41-.31-.89-.21-1.76-.46-2.61-.73a41.13,41.13,0,0,1-5.24-2,20.11,20.11,0,0,0,2.93-1.34c.47-.26.92-.54,1.34-.82a18.56,18.56,0,0,0,3.92-3.5c.21-.25.39-.5.57-.76l3.52.83,2.58.57c5,1.08,9.57,1.83,13.71,2.33l1.66.18c1.31.14,2.59.27,3.82.35-.24.21-.49.43-.8.67a20,20,0,0,1-2.31,1.47c-.43.23-.86.45-1.33.67a32.45,32.45,0,0,1-8.36,2.54A35.28,35.28,0,0,1,415.38,184.24Zm13.09-12.44c-3.66-.48-7.66-1.16-12.09-2.11-1.63-.34-3.3-.74-5-1.14l-1.28-.3c-1.57-.38-3.19-.76-4.82-1.13-1.2-.27-2.41-.53-3.63-.77h-.05A70.08,70.08,0,0,0,390.74,165c-5.55-.2-10.84.64-15.31,3.47-.23.15-.47.29-.7.45l-.36.28a20.52,20.52,0,0,0-4.27,4.22,23.89,23.89,0,0,0-2,3.12c-.43.77-.84,1.58-1.22,2.45s-.88,2-1.34,3a61.47,61.47,0,0,1-2.94,5.66c-.13.22-.26.44-.4.66-.54.88-1.11,1.71-1.71,2.51a24.07,24.07,0,0,1-2.62,3,18.44,18.44,0,0,1-2.41,1.94l-.28.18a14.22,14.22,0,0,1-5.79,2.13,16.22,16.22,0,0,1-2.55.14h-.07a23,23,0,0,1-4.47-.7c-.72-1.79-1.52-3.53-2.38-5.23a16.81,16.81,0,0,0,3.06-1.54,12.18,12.18,0,0,0,2.86-2.66c2.64-3.38,3.36-7.91,4.13-12.84.4-2.53.85-5.39,1.58-8.46,2.11-8.89,15.72-14.22,27.11-14.12,16.15.18,26.66,1.1,36.79,3.38,2.12.48,4.22,1,6.35,1.61l1.15.31c2.08.56,4.58,1.14,7.32,1.73,11.64,2.51,27.54,5.15,33.79,6.17-3.55,3.06-9.85,7-23.88,6.87-1.61,0-3.32-.08-5.14-.21C433,172.33,430.8,172.1,428.47,171.8ZM42.94,191c-21.61-2.14-35-14.15-36.74-18.41,1,.08,2.63.39,4.12.68a120.12,120.12,0,0,0,25.55,2.33l1.35,0q11.66-.09,21.39-.58c2.17-.11,4.26-.23,6.29-.37a193.72,193.72,0,0,0,23.25-2.74c4.35,3.24,11.49,6.69,24.75,6.77a8.64,8.64,0,0,0,1.35,2.45c-1,.56-2,1.1-3.1,1.61-11.65,5.56-28.53,8.45-45.37,9-1.38,0-2.75.07-4.13.08-2,0-4.06,0-6.08-.05q-3.37-.08-6.68-.27C46.88,191.35,44.89,191.2,42.94,191Zm7.88,6.58c1.3.06,2.63.1,4,.13s3,.06,4.61.06h1.44c18.41-.14,39.66-2.89,54.21-10.31,1.39-.71,2.75-1.45,4-2.24.75.44,1.55.87,2.39,1.27a38.46,38.46,0,0,0,9.53,3c-1.79.92-3.79,1.89-6,2.9-1.58.71-3.27,1.44-5.09,2.19l-.14,0c-2.16.89-4.35,1.73-6.53,2.54-3.87,1.44-7.74,2.75-11.48,3.88a112.16,112.16,0,0,1-20.17,4.39c-1.63.16-3.21.25-4.75.27a48.7,48.7,0,0,1-16.51-2.59,33,33,0,0,1-5.78-2.63A12.58,12.58,0,0,1,50.82,197.58Zm444.1,26.23c0,120.11-97.71,217.82-217.81,217.82S59.3,343.92,59.3,223.81q0-7.31.49-14.5a54.19,54.19,0,0,0,14.58,2.4c0,.12.06.25.1.37,1.55,4.36,8.66,7.62,19.15,7.62.45,0,.92,0,1.38,0,0,.06,0,.13.07.2,1.66,3.8,7.35,7.47,16,7.79,2.05,89.8,75.72,162.22,166,162.22h0c90.28,0,164-72.42,166-162.22,8.69-.32,14.38-4,16-7.79,0-.07.05-.14.08-.2.46,0,.93,0,1.38,0,10.49,0,17.59-3.26,19.15-7.62,0-.12.06-.25.09-.37a53.73,53.73,0,0,0,14.58-2.4Q494.91,216.51,494.92,223.81Zm4.8-23.28a33.44,33.44,0,0,1-5.78,2.62,48.63,48.63,0,0,1-16.5,2.59c-1.54,0-3.12-.11-4.75-.27a112.42,112.42,0,0,1-20.18-4.39c-3.73-1.13-7.6-2.44-11.48-3.88-2.19-.81-4.37-1.65-6.54-2.54l-.12,0q-2.73-1.12-5.1-2.19c-2.24-1-4.24-2-6-2.9a38.6,38.6,0,0,0,9.53-3c.84-.4,1.64-.83,2.38-1.27,1.26.79,2.61,1.52,4,2.23,14.54,7.42,35.8,10.18,54.21,10.32h1.45c1.56,0,3.09,0,4.6-.06,1.36,0,2.69-.07,4-.13A12.81,12.81,0,0,1,499.72,200.53ZM511.29,191c-2,.2-3.94.35-6,.48-2.2.13-4.44.22-6.69.27-2,.05-4,.07-6.08.05-1.37,0-2.75,0-4.12-.08-16.84-.55-33.72-3.44-45.38-9-1.08-.51-2.11-1.05-3.09-1.61a8.59,8.59,0,0,0,1.34-2.45c13.27-.08,20.41-3.53,24.76-6.77a193.78,193.78,0,0,0,23.24,2.74c2,.14,4.12.26,6.29.37q9.75.48,21.39.58l1.36,0a120.27,120.27,0,0,0,25.55-2.33c1.48-.29,3.12-.6,4.12-.68C546.3,176.85,532.9,188.86,511.29,191Z"/><path class="cls-1" d="M330.3,202.61s-4.21-1.4-10.86-4.42A115.72,115.72,0,0,1,305.8,191l-.77-.49c-3.38-2.22-10.31-6.72-20.66-3a23.49,23.49,0,0,0-10.12-.66l-.16,0c-4.16.52-8,3.43-11.66,6.24-1,.78-2,1.52-2.95,2.18-2.61,1.83-6.37,4-8.06,5v-2.5h-10v20.05l-14.93,29.76,2.31.63c-3.05,2.24-4.61,5-4.2,6.93,1.34,6.33,38.58,6.75,43.21.94l38.56,4.13,2.3.73,24.76-57.27Zm-76,2.9c1.71-1,5.75-3.36,8.64-5.38,1.05-.74,2.11-1.55,3.14-2.33,3.06-2.33,6.22-4.73,8.78-5.06l.16,0a19.37,19.37,0,0,1,5.16-.08l-21,44.09a17.11,17.11,0,0,0-7.07-1,7.78,7.78,0,0,0-.68-.59V211.22Zm-12.86,25.65v4.25c-1.64,1.5-2.19,3.74-2.52,5.63a12,12,0,0,1-3.14,1.39Zm12.89,10.57a10.47,10.47,0,0,1,3.21.79v2.34a24.91,24.91,0,0,0-2.87-.83C254.38,244,254.41,243,254.31,241.73Zm11.19,8a19.82,19.82,0,0,0-2-1.68v-4.92a21.91,21.91,0,0,1,11.57.42c3.85,1.2,7.44,3.65,12.42,7l.34.23c.81.55,1.6,1.06,2.39,1.56Zm25.73-3.87-.34-.22c-5.41-3.69-9.31-6.35-14-7.82a27.85,27.85,0,0,0-11.05-1.14L286.63,193c7.41-2.54,12.21.58,15.12,2.49l.89.57A121.25,121.25,0,0,0,317,203.66l1.46.65-21.87,44.87C294.85,248.23,293.07,247.14,291.23,245.89Zm14.13,7.54c-.94-.38-2.13-.88-3.47-1.5L324,206.64l1.39.55Z"/><path class="cls-1" d="M252.24,183.54c-1.24-2.4-2.13-2-3-4.27-1.27-3.29-.34-6.6-1.08-6.77-.2,0-.41.14-.71.51-1.85,2.29-1.11,4.33-2.55,6.51-.75,1.14-1,.64-2.55,2.43a11.2,11.2,0,0,0-2.49,3.89c-.16.48-1.31,4,.83,6.77s6,2.48,6.7,2.42,3.82-.32,5.43-2.61C255.13,189.11,252.62,184.28,252.24,183.54Zm-4.53,8.75a2.68,2.68,0,0,1-2.49-1.6c-.24-.8.4-1.07.57-2.42.23-1.78-.74-2.39-.25-3.77,0-.07.49-1.34,1.28-1.4.48,0,.91.39,1.91,1.85,1.54,2.25,2.31,3.37,2.24,4.15A3.63,3.63,0,0,1,247.71,192.29Z"/><path class="cls-1" d="M119.54,91.61l8.53,7.56,7.32-8.26-8.52-7.56,4.43-5L153.5,98l-4.44,5-9.29-8.23-7.32,8.26,9.28,8.24-4.46,5-22.2-19.67Z"/><path class="cls-1" d="M157.46,84.52l3.18,7.24-5.38,4.39-11.75-28.7,6.81-5.57L176.21,79l-5.58,4.57L164,79.15Zm2.65-8.64-5.41-3.71c-1.52-1-3.32-2.39-4.78-3.48l-.07.06c.78,1.64,1.86,3.66,2.57,5.29L155,80Z"/><path class="cls-1" d="M169.61,48.43l12.07,20.93,9-5.19L178.6,43.24l5.8-3.34L196.58,61l2.68-1.35,6,11.1-4.42,2.55L196.81,67,178.59,77.49,163.77,51.8Z"/><path class="cls-1" d="M199.15,33.47l11.71,27.26-6.19,2.65L193,36.13Z"/><path class="cls-1" d="M237.1,36.38c2.73,9.33-1.27,16.65-9.59,19.08S212.25,53,209.88,44.89c-2.49-8.54,1.09-16.51,9.5-19C228.12,23.37,234.81,28.52,237.1,36.38Zm-20.45,6.39c1.62,5.58,5.39,8.74,9.7,7.48s5.63-6.14,4-11.67c-1.5-5.11-5.23-8.79-9.67-7.49S215,37.24,216.65,42.77Z"/><path class="cls-1" d="M247.81,20.2l1.31,11.32,11-1.26-1.31-11.33,6.64-.76,3.41,29.46-6.65.77-1.42-12.33-11,1.27,1.43,12.33-6.69.77L241.13,21Z"/><path class="cls-1" d="M280.8,40.23l-2.45,7.51-6.94-.31L281.78,18.2l8.79.39,7.87,30-7.21-.32-1.94-7.71Zm7.74-4.68L287,29.18c-.45-1.78-.88-4-1.24-5.78h-.09c-.51,1.74-1.05,4-1.61,5.65l-2,6.21Z"/><path class="cls-1" d="M329.88,24.73l-6,29-6.55-1.35,4.88-23.66-6.59-1.36-1.43,6.9c-1.53,7.45-3.67,13-8.6,14.66a12.07,12.07,0,0,1-6.06.23l.27-5.46a5.61,5.61,0,0,0,3.64-.87c2.14-1.45,3.34-5.06,4.24-9.46l2.63-12.71Z"/><path class="cls-1" d="M345,29.66l-3.58,9.66c.9.24,2.27.6,3.46,1,6,2.21,10,6.94,7.72,13.13a9.07,9.07,0,0,1-4.48,5.24c-3.69,1.73-8.65.82-13-.78A51.7,51.7,0,0,1,328.51,55l10.25-27.69Zm-8.64,23.22a13.77,13.77,0,0,0,2.29,1c3.05,1.13,6.08.57,7.24-2.57s-.77-5.4-3.78-6.51a22.85,22.85,0,0,0-2.5-.74Z"/><path class="cls-1" d="M372.56,41.59,367,51.53l9.64,5.39L382.2,47,388,50.24,373.56,76.12l-5.84-3.27L373.78,62l-9.64-5.39-6.06,10.82-5.87-3.29L366.69,38.3Z"/><path class="cls-1" d="M400.81,59.44l-5.5,6.87c-3,3.71-6,7.33-8.67,10.26l.14.11c3.37-1.75,7.37-3.57,10.72-4.94l12.27-5.12,5.36,4.3L396.59,94.07l-4.81-3.86,5.47-6.83a124.53,124.53,0,0,1,8.2-9.45l-.11-.09A85.42,85.42,0,0,1,394.82,79l-11.39,4.58-6-4.79L396,55.59Z"/><path class="cls-1" d="M426.17,82.06l-6.55,5.88c-3.54,3.17-7.1,6.25-10.23,8.69l.12.13c3.62-1.17,7.85-2.31,11.39-3.11l12.94-3,4.58,5.11-22.08,19.8-4.11-4.59,6.52-5.84a120.19,120.19,0,0,1,9.63-8l-.09-.1a86.24,86.24,0,0,1-11.21,3.31l-12,2.65L400,97.27l22.08-19.79ZM434,80.62c-1.25,1.18-1.65,2.18-.71,3.23s2,.76,3.38-.25l3,3.34c-3,2.33-5.85,1.58-8.47-1.33s-2.77-5.67-.26-8.4Z"/><path class="cls-1" d="M78.38,256l-7.87-.68-1.28-6.84L100.05,252l1.61,8.65L74.19,275.08,72.87,268l7.06-3.64Zm6.3,6.48,5.85-3c1.64-.84,3.7-1.76,5.35-2.52v-.08c-1.81-.11-4.1-.14-5.88-.3L83.48,256Z"/><path class="cls-1" d="M103.79,272.06a53.39,53.39,0,0,1,3.4,8c1.33,3.87,1.77,6.37,1.26,8.83a6.42,6.42,0,0,1-4.33,5.25c-2.5.86-5.33.21-7.58-2.56l-.08,0c.22,3.51-1.37,6.71-5,7.95a7.93,7.93,0,0,1-7-.87c-2.32-1.48-4.41-4.58-6.32-10.15a52.65,52.65,0,0,1-2-7Zm-21,14.25a21.27,21.27,0,0,0,.76,2.48c1,2.88,2.94,5,5.9,4s3.08-3.9,2-7.06l-.74-2.17ZM95.21,282l.72,2.08c1.14,3.33,3.13,4.64,5.21,3.93s2.69-2.74,1.7-5.61a18.28,18.28,0,0,0-1.09-2.65Z"/><path class="cls-1" d="M115.84,301.91,89,314.4l-2.84-6.11L113,295.81Z"/><path class="cls-1" d="M102.34,323.53l-7.6,2.13-3.6-6,30.06-7.59,4.56,7.53-20.62,23.21-3.73-6.17,5.33-5.9Zm8.19,3.84,4.42-4.84c1.24-1.36,2.85-2.95,4.12-4.24l0-.07c-1.74.53-3.88,1.31-5.6,1.79l-6.3,1.75Z"/><path class="cls-1" d="M136.26,334.49l-18.48,15.56,6.69,7.94L143,342.43l4.31,5.12-18.65,15.7,1.79,2.4-9.86,7.9-3.29-3.91,5.53-5.11-13.54-16.09,22.69-19.1Z"/><path class="cls-1" d="M156.27,355.9l-20.41,21.52L131,372.79l20.41-21.53Z"/><path class="cls-1" d="M164.38,363l-5.3,7c-2.86,3.79-5.77,7.49-8.37,10.5l.14.1c3.33-1.85,7.27-3.78,10.58-5.25l12.12-5.46L179,374,161.16,397.7,156.25,394l5.27-7c2.76-3.66,5.27-6.83,7.91-9.69l-.1-.08A85.56,85.56,0,0,1,159,382.64l-11.25,4.91-6.11-4.62,17.86-23.67Zm7.38-2.92c-1,1.4-1.19,2.46-.07,3.31s2.1.37,3.27-.9l3.58,2.71c-2.49,2.86-5.44,2.67-8.56.32s-3.81-5-1.87-8.2Z"/><path class="cls-1" d="M188.48,379.41l-5.34,10.07,9.76,5.17,5.33-10.07,5.91,3.13-13.87,26.2-5.91-3.13,5.81-11-9.76-5.17-5.81,11-5.95-3.15,13.88-26.21Z"/><path class="cls-1" d="M213.79,391.34,211,399.67c-1.53,4.5-3.12,8.93-4.64,12.6l.17.05c2.57-2.79,5.7-5.87,8.39-8.3l9.78-9,6.5,2.2-9.51,28.09-5.84-2,2.81-8.29a123.28,123.28,0,0,1,4.47-11.68l-.13,0a86.42,86.42,0,0,1-8.14,8.39l-9.13,8.19-7.25-2.45L208,389.36Z"/><path class="cls-1" d="M241.28,399.25l-1.45,8.68c-.78,4.69-1.64,9.31-2.56,13.18l.18,0c2.09-3.17,4.69-6.71,6.94-9.54l8.22-10.45,6.77,1.13-4.89,29.25-6.07-1,1.44-8.64c.75-4.51,1.51-8.49,2.53-12.25l-.13,0a85.4,85.4,0,0,1-6.68,9.59l-7.71,9.55-7.55-1.26,4.88-29.25Zm5.2-6c-.24,1.7.07,2.73,1.46,3s2-.64,2.49-2.3l4.42.74c-.88,3.68-3.58,4.88-7.44,4.24s-5.71-2.69-5.45-6.4Z"/><path class="cls-1" d="M285.22,402.61l5.06,10.09c.94,2.05,1.69,3.76,2.48,5.51h.13c.3-1.3.64-3.31,1.2-5.87l2.45-10.55,7-.51L299.08,416c-1.46,4.74-3,9.35-5,12.24a9.59,9.59,0,0,1-7.57,4.48,9.15,9.15,0,0,1-3.32-.24l.09-5.39a9.31,9.31,0,0,0,2.21.06,4.33,4.33,0,0,0,3.79-3.06,1.38,1.38,0,0,0-.19-1.36l-11.45-19.58Z"/><path class="cls-1" d="M311.22,399.57l2.5,11.12,10.77-2.42L322,397.15l6.53-1.46,6.5,28.93-6.53,1.46L325.77,414,315,416.4l2.72,12.1L311.15,430l-6.5-28.93Z"/><path class="cls-1" d="M339.21,391.71l9.73,28-6.35,2.21-9.74-28Z"/><path class="cls-1" d="M343.86,390.64a52.74,52.74,0,0,1,7.59-4.24c3.7-1.74,6.14-2.44,8.64-2.2a6.45,6.45,0,0,1,5.69,3.74c1.12,2.39.77,5.28-1.73,7.81l0,.08c3.46-.6,6.82.65,8.44,4.11a7.9,7.9,0,0,1-.12,7c-1.22,2.47-4.08,4.88-9.42,7.38a50.48,50.48,0,0,1-6.76,2.68Zm10.83,7.46,2-.94c3.18-1.49,4.28-3.61,3.35-5.6s-3-2.38-5.76-1.09a17.78,17.78,0,0,0-2.52,1.37ZM360.28,410a22.86,22.86,0,0,0,2.39-1c2.75-1.29,4.69-3.47,3.36-6.3s-4.2-2.64-7.23-1.22l-2.07,1Z"/><path class="cls-1" d="M390.38,384.13,381.2,390,385,396l10.26-6.58,3,4.63L382.3,404.21l-16-25,15.41-9.88,3,4.63-9.74,6.25,3.32,5.18,9.19-5.89Z"/><path class="cls-1" d="M385.05,367.43a55,55,0,0,1,6.54-6.31c3.17-2.66,5.94-3.95,8.47-4a8.69,8.69,0,0,1,6.84,3.22,9.47,9.47,0,0,1,2.44,7.15c-.36,3.12-2.33,6-5.37,8.59a18.37,18.37,0,0,1-1.83,1.37l6.82,8.12-5.09,4.27Zm13.75,6a9.64,9.64,0,0,0,1.83-1.31c2.73-2.29,3.25-5.09,1.3-7.41-1.76-2.09-4.25-2.12-6.81,0a11.3,11.3,0,0,0-2,2Z"/><path class="cls-1" d="M439,354.76a19.1,19.1,0,0,1-4.18,6.49c-6.89,7.59-15.16,7.2-21.41,1.52-7.49-6.8-6.81-15.93-.77-22.57a17.48,17.48,0,0,1,5.89-4.52l3,4.59a14.42,14.42,0,0,0-4.6,3.43c-3.58,3.94-4,9.16.9,13.6,4.39,4,9.53,3.9,13.55-.53a16.65,16.65,0,0,0,3-4.78Z"/><path class="cls-1" d="M422.84,328.05l7.32,4.89c3.95,2.64,7.81,5.33,11,7.75l.1-.14c-2-3.22-4.19-7-5.85-10.26l-6.14-11.79,3.81-5.7,24.66,16.48-3.43,5.12L447,329.54c-3.8-2.55-7.12-4.87-10.12-7.35l-.07.11a86.26,86.26,0,0,1,6,10l5.54,11-4.26,6.36-24.65-16.48Z"/><path class="cls-1" d="M442.54,306.19l-3.43,7.19L434,311l9.84-20.57,5.08,2.43-3.49,7.31,21.67,10.36-2.9,6.08Z"/><path class="cls-1" d="M466.33,276.92l-3.43,10.35,6.68,2.22,3.84-11.57,5.22,1.73-5.95,18-28.15-9.33,5.76-17.37,5.22,1.73-3.64,11,5.84,1.94,3.44-10.36Z"/><path class="cls-1" d="M457.88,262.63l-1.53,7.82-5.53-1.09L455.21,247l5.52,1.09L459.18,256l23.57,4.63-1.29,6.6Z"/></g></g></svg>