<svg xmlns="http://www.w3.org/2000/svg" viewBox="0 0 554.23 447.63"><defs><style>.cls-1{fill:#fff;}</style></defs><g id="Шар_2" data-name="Шар 2"><g id="Шар_1-2" data-name="Шар 1"><path d="M277.11,447.63A223.82,223.82,0,0,1,118.85,65.55,223.81,223.81,0,0,1,435.37,382.07,222.32,222.32,0,0,1,277.11,447.63ZM277.11,6C157,6,59.3,103.71,59.3,223.81S157,441.63,277.11,441.63s217.81-97.71,217.81-217.82S397.21,6,277.11,6Z"/><path d="M277.11,57.76h0c-91.56,0-166,74.49-166,166.05S185.54,389.87,277.1,389.87h0c91.57,0,166.06-74.49,166.06-166.06S368.68,57.76,277.11,57.76ZM395.72,223.81A242.66,242.66,0,0,1,393.86,254H352.39c-.72-1.34-2.39-3-5.53-5.18.48-8.32.71-16.68.71-25,0-9.72-.31-19.29-.91-28.63,16.1-3.79,31-12.24,43.89-21A235.4,235.4,0,0,1,395.72,223.81Zm-237.22,0c0-36.19,7.84-70.24,22.28-97.55h37.89c-7.8,27.63-12,61.58-12,97.55,0,10,.35,20.13,1.05,30.16H160.36A242.66,242.66,0,0,1,158.5,223.81ZM343.79,155c-1-2.39,2.07-4.5,1-6.9-.33-.74-.67-.63-3.2-2.55-.65-.49-1.2-.91-1.69-1.3-.68-3.28-1.41-6.5-2.19-9.64a1.88,1.88,0,0,0,1.2-.8c.7-1.08-.18-2.05.51-2.94s2.89-1.19,4.22-.13a3.59,3.59,0,0,1,.76,4.34c-.79,1.43-2.38,1.19-2.81,2.56a3.56,3.56,0,0,0,.64,2.68,5.67,5.67,0,0,0,2.17,2c2.78,1.51,4.82-.08,5.88,1.15.64.75-.11,1.37.25,5.11.19,1.92.46,2.5.77,2.93.73,1,1.49.94,2,1.92a3.26,3.26,0,0,1,0,3.19c-1.34,2.05-5.49.88-5.87.76C346.3,157,344.44,156.49,343.79,155Zm-2.22,68.84q0,10.88-.51,21.46c-2.22-1.24-4.82-2.58-7.86-4.05q-8.76,6.63-16.59,12.75h-36.5V199.75a456.27,456.27,0,0,0,57.34-2.95q1.65-.2,3.27-.45C341.29,205.31,341.57,214.49,341.57,223.81Zm-12.26,97.56h-4c.07-.1.14-.2.21-.32,1.56-2.56.21-4.57,1.7-7.83a11.91,11.91,0,0,1,3.92-4.42c.56-.45,1.16-1,1.79-1.53C331.84,312.14,330.62,316.85,329.31,321.37ZM309,260c-12.1,9.61-22,17.85-28.88,24V260ZM282.31,107.44c.66,1.48,3.54.46,4.93,2,1.89,2.15-.67,7.15-.85,7.49a15.23,15.23,0,0,1-2.36,3.29h-3.92V104.9c.32-.53.54-.67,1-1.51,1.09-2,.75-2.81,1.66-4,.72-.9,2-1.77,2.81-1.41s.44,1.31.8,2.35a14.77,14.77,0,0,0-2.71,3.48C282.56,105.6,281.93,106.6,282.31,107.44Zm-1.2,39.87c1.41.87,2.06.47,2.81,1.4.35.43.85,1.3.39,5.11-.24,1.94-.66,5.34-1.41,5.36-.48,0-.63-1.4-1.91-4.21-.2-.43-.49-1.06-.88-1.8v-6.69A4.5,4.5,0,0,0,281.11,147.31Zm44.94-55.19c-.47.38-1.36.29-4.45-1.35a92.72,92.72,0,0,0-9.45-14.25c1,.66,2.45,1.44,4.2,2.49,4.22,2.55,6.81,4.15,8.51,7C326.17,88.18,327.07,91.29,326.05,92.12Zm-11.49,44.47c.66-.93-.45-2.45.26-3.07a2,2,0,0,1,2.17.26c1.73,1.33-.22,4.27,1.4,6.51.32.44,2,1.15,5.36,2.55,2.62,1.09,3.4,1.36,4.09,2.3s1.37,2.86.64,4c-1,1.53-4.28,1.09-6.13.51-3.59-1.13-4.09-3.48-6.77-3.45a7.85,7.85,0,0,0-4,1.53c-2.13,1.3-2,2.14-3.95,3.19-.93.51-3.07,1.69-5,.9-1.17-.49-1.73-1.49-2.68-3.19s-1.55-2.78-1.28-4c.35-1.51,1.66-1.41,2.68-3.32s.08-2.94,1-4,3.07-.86,7.28-.51C312.57,137.08,314,137.39,314.56,136.59Zm-2.94,29.1c.36-1.08,2.62-.3,4.22-2,1.18-1.29.86-2.7,1.91-3.06a2.63,2.63,0,0,1,2.43.89,4.94,4.94,0,0,1-.13,6.38,5,5,0,0,1-4.85,1.41C313.08,168.74,311.27,166.76,311.62,165.69Zm-3.57,1.53a3.87,3.87,0,0,1-3.06-4.85,3.71,3.71,0,0,1,4.34-2.42,3.36,3.36,0,0,1,2.29,2.42C312.16,164.58,310.19,167.35,308.05,167.22Zm-6.89-11.49a7.23,7.23,0,0,1,.12,4.09c-.46,2.8-2,6.52-3.19,6.38-1.42-.16-.69-5.43-3.32-9.06a9.07,9.07,0,0,1-1.53-3.32c-.44-1.47-.27-1.86-.13-2,.66-.86,2.81-.17,3.32,0C297.19,152,300.08,153,301.16,155.73Zm-5.88-45.44a3.11,3.11,0,0,1-4.08-1.15c-.43-.85-.32-2.11.25-2.43s1,.44,2.17.51c1.56.1,2.32-1.09,2.81-.76S296.88,109.36,295.28,110.29Zm58.09,29c-.95-.17-1.46-1.48-2.43-4.09-.8-2.17-1.19-3.27-.76-4.08s1-.59,2.42-1.92c1.19-1.09,1.25-1.64,1.79-1.66,1,0,2.08,1.68,2.3,3.32.19,1.46-.4,2.32.13,2.81s1.66-.29,2.29.25.47,2.42-.51,3.32c-.59.55-1,.31-2.55.9C354.2,138.81,354.06,139.39,353.37,139.27Zm-39.92-66.9c-1.17,1.51-2.59,1.51-2.72,2.39v.08a60,60,0,0,0-8.56-8.18,99.3,99.3,0,0,1,12.17,3.81A4.58,4.58,0,0,1,313.45,72.37ZM310.81,84.7a.51.51,0,0,0-.25.1c-.92.7,1.4,3.64,0,5.79-1.06,1.61-2.91.75-4.59,2.55s-.55,3.37-2.22,5.45a8.15,8.15,0,0,1-4.93,2.55,12.9,12.9,0,0,1-5.57-.22,7,7,0,0,0-.9-2.76c-1-1.77-2.27-2.31-2-3.06.16-.56,1-.76,2.17-1,2.66-.6,4-.07,4.34-.63S296,91,294.26,89.86c-3.61-2.4-8.32-1.12-10.59-.51a9.89,9.89,0,0,0-3.56,1.43V63.91C293,65.07,303.05,73.62,310.81,84.7Zm-36.7-20.79V95.76c-1.47-.45-2.78-1.69-4-1.05-2,1.08,0,5.5-2.56,7.66-1.83,1.53-5.51,1.54-5.74,1.53-1.31,0-1.8-.25-2.56.13-1.47.75-2.33,3-1.78,5,.69,2.47,3.36,3.24,4.08,3.45a3.82,3.82,0,0,0,2.56.13c1.39-.57,1.5-2.1,2.68-2.3a2.47,2.47,0,0,1,1.91.76c1.45,1.42.13,3.41,1.15,6.51a7.29,7.29,0,0,0,1.38,2.7H226.75c.82-2.57,1.68-5.08,2.58-7.51,1.26-3.45,2.69-7,4.29-10.54a6,6,0,0,0,1.54.29,6.25,6.25,0,0,0,5.49-2.81c1.45-2.27-.16-3.68.38-7.53a14,14,0,0,1,6.25-9.83c2.47-1.42,3.1-.36,6.13-2a15.85,15.85,0,0,0,5.87-5.87c1.12-2,2.4-4.18,1.79-6.39l0-.09A33.27,33.27,0,0,1,274.11,63.91ZM262.39,308c.07,1.49.68,2.43,3.06,5.78,3.44,4.84,5,6.9,5.52,7.64H224.91c-5.23-18-8.89-38.91-10.78-61.4h60v29.46a40.05,40.05,0,0,0-4.91,5.24c-.16.24-1.18,2-3.23,5.45C262.92,305.27,262.32,306.35,262.39,308Zm-48.72-54c-.68-9.81-1-19.9-1-30.16,0-12,.48-23.72,1.4-35.07,11.32,6.34,33.36,10,60.07,10.87V254ZM252.52,128.2a17.77,17.77,0,0,1-8,2.22c-3.07,0-4.47-.92-5.28,0s-.36,3.52,1,4.76c.78.69,1.17.42,1.88,1,1.73,1.49,1.65,5.17.17,7.66a4.24,4.24,0,0,1-2.22,2.21c-1.81.57-2.83-1.22-6.47-2.38a9.12,9.12,0,0,0-6.12-.34,5.26,5.26,0,0,0-3.07,2.38c-.93,1.94.61,3.29-.34,5.11-.77,1.5-2.06,1-3.06,2.55-1.36,2-.87,5.64.85,6.64,1.53.89,3.21-.77,4.43.17s.87,3.24.34,4.77c-.73,2.09-2.26,3.42-6.47,6.13-2.06,1.32-3.55,2.2-4.65,2.83a300.55,300.55,0,0,1,9.38-47.67h29.93A8.31,8.31,0,0,1,252.52,128.2Zm5.1,19.11a7.76,7.76,0,0,0,2.3-2.43c1-1.49,1-2.38,1.53-2.42s1.19,1.14,1.79,2.42c1.22,2.6.76,3.06,1.53,4,1.26,1.46,2.81.63,4.85,2a6.93,6.93,0,0,1,2.56,3.45c1.54,5.41-12.19,18.83-23.24,16.85-4.45-.79-6.68-3.77-12.89-3.7-1.65,0-4.47.26-5.23-1.15-.57-1.05.27-2.49.38-2.68.7-1.19,1.83-1.65,6.64-3.32,3.09-1.07,3.71-1.25,4.34-2,1-1.26.4-2,1.4-3.83.81-1.48,1.26-1.09,3.7-3.7.53-.56,1.77-1.93,3.58-3.71.87-.85,1.51-1.45,2-1.27.74.25.36,1.71,1.28,2.29C255.3,148.8,257.29,147.52,257.62,147.31Zm14.05-3.83c-1-.44-1.74-.28-2.17-.89a2.1,2.1,0,0,1,.38-2.56c.17-.15.73-.58,2.55-.25a12.93,12.93,0,0,1,1.68.39v5.6A6.27,6.27,0,0,0,271.67,143.48ZM197.11,103c.59.68,3.77-1.13,4.47-1.53,3-1.68,3.5-2.9,5.49-4.34,2.26-1.64,2.54-.78,10.6-3.32a57.88,57.88,0,0,1,7.66-2.17c3.31-.64,5-.94,5.87-.13a2.05,2.05,0,0,1,.55.87,151.41,151.41,0,0,0-8.06,18.29q-1.69,4.62-3.24,9.58H184.12q2.06-3.54,4.28-6.89a128.84,128.84,0,0,1,11.29-14.66C198,101.13,196.69,102.51,197.11,103Zm11,157c1.83,21.66,5.33,42.74,10.6,61.4h-38c-9.51-18-16.15-38.89-19.58-61.4Zm12.38,67.4c7.4,23.77,17.86,43,31.55,53.6-25.56-6.14-47.28-22-63.68-46.71-1.48-2.23-2.91-4.54-4.28-6.89Zm8.8,7.51c-.9-2.43-1.76-4.94-2.58-7.51h47.36v56.35C251.29,381.66,237.21,356.31,229.33,334.88Zm50.78-.66c.06.16.11.3.15.45,1.16,3.71,1.74,5.57,1.71,7.83,0,1.93-.4,3.41.51,4.26s2.41.37,4.42,0c6.22-1.16,7,.62,11.24-.69,2-.61,3.53-1.71,6.63-3.91a38.27,38.27,0,0,0,8.17-7.15c2.93-3.55,3.3-5.7,4.53-7.64h10c-.83,2.57-1.68,5.08-2.58,7.51-7.88,21.43-22,46.78-44.78,48.84Zm53.58-6.85H370.1c-1.38,2.35-2.8,4.66-4.28,6.89C349.42,359,327.7,374.83,302.14,381,315.83,370.39,326.28,351.14,333.69,327.37Zm17-6c.78-1,1.59-2.17,2.44-3.38,4-5.72,3.48-6.64,7.66-12.77,2-3,3-4,4-6.51.34-.89,2.76-8.8.26-10.72-1.1-.84-3,.8-4.22,1.66-1.56,1.14-.73,2.83-2.29,5.74-.51.95-1.88,3.51-4.34,4.22-2.07.59-3.07-.65-4.47.12-.35.2-1.28.82-2.05,5.24-.89,5.18-.16,7.47-1.91,8.93-.76.64-1.32.56-1.92,1.41-.3.44-.84,1.45-.38,4.21.11.63.21,1.25.33,1.85h-8.27c2-7.28,3.84-14.94,5.37-22.85a27.44,27.44,0,0,0,3.08-5.55c.57-1.47.09-.8.51-14.81,0-1.26.08-2.42.12-3.51q.61-5,1.1-10.14a10.15,10.15,0,0,1,2.36-4.39l.14-.15H393c-3.43,22.51-10.07,43.42-19.58,61.4ZM156.42,118.83c1.34.54,4.28.28,5.63.1,1.73-.24,5.12-.72,6.64-3.15,1.25-2,.16-3.63,2-7,1-1.93,1.66-1.89,1.78-1.87.73.1.57,1.56,1.54,2.46,1.6,1.5,5.82,1,7.82-1.27,1.46-1.64,1-3.33,2.81-4.6,1.22-.83,1.7-.3,2.56-1,2.09-1.77-.16-5.57,1.78-7.49,1.19-1.17,2.28,0,4.6-1.28,2-1.09,3.15-3,4.21-4.89,1.4-2.45,1.28-3.45,2.68-4.59.82-.67,2.62-1.76,3.58-1.15.49.3.7,1,.73,2a129.24,129.24,0,0,0-21.34,25q-3.27,4.92-6.19,10.21h-22C155.58,119.78,156,119.31,156.42,118.83Zm-18,124.29c-2.14-1.85-3.7-.58-5.93-1.56A3.76,3.76,0,0,0,129,242c-1.4,1.12-.7,2.51-1.56,3s-2.21-.93-2.34-1.19c-.46-1,.11-2.23,0-3.53-.07-1.06,1.38-1.4,2.53-2.11,2.39-1.47,1.32-4.42,1.44-5.49s.72-6.4-3.06-8.68c-2.87-1.73-6.69-.68-9,1.37,0-.53,0-1.06,0-1.59a159.22,159.22,0,0,1,33.26-97.55H174c-14,27.68-21.53,61.62-21.53,97.55A249,249,0,0,0,154.32,254h-5.2c-1.07-1.08-2.09-1.09-5-3.54C141.9,248.5,141.64,245.87,138.45,243.12ZM143.61,312a6.17,6.17,0,0,0,1-2.68c.24-2.18-1.36-3.92-.68-4.6.36-.35,1,0,2.39.17.89.12,3.57.47,4.76-.51.87-.7.69-1.89.34-5.95-.64-7.52-.53-9.12-2-10.39-1.2-1-2.08-.66-2.89-1.87a5.11,5.11,0,0,1,0-5.28c1.49-2.34,6-.81,5.56-5.53-.41-4.26.62-8.48-.46-15.06,0-.12,0-.21-.05-.32h3.6c3.32,22.36,9.73,43.23,18.9,61.4H150.31Q146.8,316.81,143.61,312Zm11.56,15.38h22q2.92,5.28,6.19,10.21c9.61,14.49,21,26.08,33.8,34.63A160.77,160.77,0,0,1,155.17,327.37ZM337,372.21c12.84-8.55,24.2-20.14,33.81-34.63q3.26-4.92,6.19-10.21h22A160.7,160.7,0,0,1,337,372.21Zm66.9-50.84H380.19c9.17-18.17,15.58-39,18.9-61.4h34A159.59,159.59,0,0,1,403.91,321.37Zm-4-67.4a249,249,0,0,0,1.82-30.16,240.67,240.67,0,0,0-5.85-53.31c9.22-6.58,17.18-13,23.46-17.28l1.06-.69A160,160,0,0,1,434.31,254Z"/><path class="cls-1" d="M184.39,225.75A40.94,40.94,0,0,0,190,214.93a8,8,0,0,1-4.68-1.87,6.72,6.72,0,0,1-1.25-1.43c-.7,1.24-1.45,2.48-2.27,3.72a59.48,59.48,0,0,1-18.62,18.16,54,54,0,0,1-5.24,2.72,1.86,1.86,0,0,0,.38,1.66c1.43,1.86,6.05,2.56,13.54-1.49a49.6,49.6,0,0,0,5.45-3.47A32.74,32.74,0,0,0,184.39,225.75Z"/><path class="cls-1" d="M167,205a7.07,7.07,0,0,1-1.35-.79,7.86,7.86,0,0,1-2.66-3.54h-.21c-8.4,9.41-22.74,19.42-35,24a50.93,50.93,0,0,1-6.85,2c.18.12.38.25.62.38,2.72,1.51,7.78,2.13,14.65.26a44.68,44.68,0,0,0,6.27-2.23C152.46,220.73,161.24,212.49,167,205Z"/><path class="cls-1" d="M176.4,212.63l.51-.78c.25-.38.49-.76.73-1.14a6.92,6.92,0,0,1-3.26-1.67,6.42,6.42,0,0,1-1.42-2h0l-.18.26c-6.89,9.3-17.71,18.9-28,23.37-1.16.51-2.29.95-3.4,1.35,1.31,1.35,5.45,2.32,12.58-.57a46.08,46.08,0,0,0,6.1-3A52.51,52.51,0,0,0,176.4,212.63Z"/><path class="cls-1" d="M197.42,239.73a50.3,50.3,0,0,1-3.95,4.28,5.74,5.74,0,0,0,.33,1,4.13,4.13,0,0,0,3.46,2.66c1.2,0,5.46-.67,10.84-10.39a70.65,70.65,0,0,1-1.31-13.51,71.67,71.67,0,0,1,.62-9.2c-.15.12-.31.24-.46.34C206.25,223.14,203.41,232.47,197.42,239.73Z"/><path class="cls-1" d="M200.89,210.57a.83.83,0,0,0,.22.08c.86.25,2.68-.27,4.71-2.79a8.07,8.07,0,0,0,1.37-3c.05-.22.11-.43.16-.66l-.49,0a21.63,21.63,0,0,1-3.38-.27q-.33.93-.72,1.83a19.76,19.76,0,0,1-1.69,3.15c-.23.33-.44.67-.69,1A1.27,1.27,0,0,0,200.89,210.57Z"/><path class="cls-1" d="M211.26,190.69a12.43,12.43,0,0,1-2.87-2.66c-2.63-3.38-3.35-7.91-4.12-12.84-.4-2.53-.85-5.39-1.58-8.46-2.12-8.89-15.72-14.22-27.12-14.12-19.52.21-30.8,1.52-43.13,5-10.44,2.94-34.26,6.91-42.27,8.21,3.56,3.06,9.85,7,23.89,6.87a119.46,119.46,0,0,0,23.79-3c1.63-.34,3.3-.74,5-1.14l1.28-.3c1.57-.38,3.18-.76,4.82-1.13,1.2-.27,2.41-.53,3.63-.77a69.38,69.38,0,0,1,10.89-1.4c5.54-.2,10.84.64,15.31,3.47l.69.45c.13.09.24.19.36.28a20.32,20.32,0,0,1,4.28,4.22,25,25,0,0,1,2,3.12c.43.77.83,1.58,1.21,2.45s.89,2,1.34,3c.92,2,1.89,3.88,2.94,5.66l.41.66a27.84,27.84,0,0,0,4.33,5.53,18.44,18.44,0,0,0,2.41,1.94l.28.18a14.17,14.17,0,0,0,5.79,2.13,16,16,0,0,0,2.62.14,20.41,20.41,0,0,0,4.43-.66q1.09-2.7,2.39-5.29A15.31,15.31,0,0,1,211.26,190.69Z"/><path class="cls-1" d="M198,215.8a6.4,6.4,0,0,1-1.6-1.27c-2.34,8.19-7.22,17.22-15.56,23.26-1.24.9-2.44,1.7-3.61,2.43a4.81,4.81,0,0,0,1.6,3.37c1.91,1.55,5.09.62,8.75-2.34a37.61,37.61,0,0,0,5.26-5.34c4.55-5.51,7-12.66,7.91-19.25A7.17,7.17,0,0,1,198,215.8Z"/><path class="cls-1" d="M116.7,209.08A144.1,144.1,0,0,0,144,195.69a20.74,20.74,0,0,1-6.58-2.87,151.13,151.13,0,0,1-20.76,9.45c-12.29,4.63-25.53,8.28-34.57,9.17l-.22,0c2.35,1.22,7,2.53,14.09,2.18a59.46,59.46,0,0,0,9.7-1.35A90.35,90.35,0,0,0,116.7,209.08Z"/><path class="cls-1" d="M150.17,188.44c-1.41.43-2.85.8-4.29,1.09l-1,.17a21.89,21.89,0,0,0,6.69.85,26.85,26.85,0,0,0,2.89-.2,30.43,30.43,0,0,0,3.51-.64,11,11,0,0,0,3.48-1.66c.58-.38,1.15-.81,1.72-1.27a20.21,20.21,0,0,1-4-2.11A46.12,46.12,0,0,1,150.17,188.44Z"/><path class="cls-1" d="M142.77,210.06a94.28,94.28,0,0,0,9.92-7.77c.92-.83,1.8-1.66,2.63-2.47a20.34,20.34,0,0,1-3.95-1.8,121.06,121.06,0,0,1-13.15,8c-10.13,5.37-21.75,10.08-31.23,12.16-1.69.37-3.31.65-4.91.88.2.14.4.28.64.42,2.66,1.57,7.09,2.6,12.82,2a41.23,41.23,0,0,0,10.12-2.42A80.06,80.06,0,0,0,142.77,210.06Z"/><path class="cls-1" d="M168.84,191.89c.14-.11.28-.22.42-.35a45.72,45.72,0,0,0,3.66-3.71,20.36,20.36,0,0,1-2.29.22c-.27.27-.54.54-.82.8a33.8,33.8,0,0,1-6.28,4.93,18.22,18.22,0,0,1-2,1,11.12,11.12,0,0,0,1.59-.16A12,12,0,0,0,168.84,191.89Z"/><path class="cls-1" d="M165.21,181.13a13.17,13.17,0,0,0,3,.79,13,13,0,0,0,4.35-.09,35.25,35.25,0,0,0,4.95-1.66l2.19-.88.66-.86c-.19-.3-.38-.6-.58-.88s-.54-.72-.82-1.06c-.16-.19-.31-.4-.47-.58-2.81,1.24-5.56,2.42-8,3.38A52.64,52.64,0,0,1,165.21,181.13Z"/><path class="cls-1" d="M119.86,194.61c1.82-.75,3.51-1.48,5.09-2.19,2.25-1,4.25-2,6-2.9a36.41,36.41,0,0,1-11.92-4.31c-14.77,9.34-39.17,12.56-59.65,12.56-3,0-5.84-.07-8.6-.19,2.08,2.89,11.87,8.32,26,8.16,1.54,0,3.12-.11,4.75-.27a112.16,112.16,0,0,0,20.17-4.39C107.59,199.31,113.8,197.11,119.86,194.61Z"/><path class="cls-1" d="M158.78,175.63a13,13,0,0,0,2.34.09,10.59,10.59,0,0,0,1.84-.21,65.86,65.86,0,0,0,9.5-3.53,19.92,19.92,0,0,0-5-1c-4.19-.32-9.09.33-14.65,1.46l-.27.05-.6.13c.17.13.32.28.5.41A13.81,13.81,0,0,0,158.78,175.63Z"/><path class="cls-1" d="M65.78,191.72c16.84-.55,33.72-3.44,45.37-9,1.08-.51,2.12-1.05,3.1-1.61a8.64,8.64,0,0,1-1.35-2.45c-13.26-.08-20.4-3.53-24.75-6.77-11.62,2.26-28.72,3.5-50.93,3.69l-1.35,0a120.12,120.12,0,0,1-25.55-2.33c-1.49-.29-3.12-.6-4.12-.68,1.73,4.26,15.13,16.27,36.74,18.41,2,.2,3.94.35,6,.48C54.38,191.82,60.07,191.9,65.78,191.72Z"/><path class="cls-1" d="M124.34,181.23a32.65,32.65,0,0,0,8.37,2.54,35.28,35.28,0,0,0,6.14.47l1,0a29.2,29.2,0,0,0,4.81-.56c.48-.09.95-.19,1.41-.31.89-.21,1.76-.46,2.62-.73a41,41,0,0,0,5.23-2,20,20,0,0,1-2.92-1.34c-.47-.26-.92-.54-1.35-.82a18.81,18.81,0,0,1-3.92-3.5c-.2-.25-.38-.5-.56-.76l-3.52.83-2.58.57c-5,1.08-9.57,1.83-13.71,2.33q-2.86.35-5.48.53c.23.21.49.43.8.67A20.58,20.58,0,0,0,124.34,181.23Z"/><path class="cls-1" d="M179.49,201.83l-.89.65c-.42,1.27-.31,2-.13,2.17s1.14.35,2.4,0A10.39,10.39,0,0,0,184,203.2c.39-.25.79-.54,1.2-.86,1.35-1.09,2.74-3.77,4-6.74.09-.21.18-.41.26-.61l-.29-.38-.34-.45-.5-.7c-.43-.6-.84-1.21-1.23-1.82l-.08.07c-.53.94-1.07,1.84-1.61,2.73-.77,1.25-1.55,2.43-2.33,3.5A19.86,19.86,0,0,1,179.49,201.83Z"/><path class="cls-1" d="M189.21,208.53a2.88,2.88,0,0,0,2.35.35,6.33,6.33,0,0,0,2.35-1,5.37,5.37,0,0,0,.45-.35,11.87,11.87,0,0,0,3.43-5.45c-.48-.24-.95-.5-1.4-.77l-.11-.07a21.4,21.4,0,0,1-2.32-1.63c-1.44,3.11-3.05,5.77-5,7.36A1.58,1.58,0,0,0,189.21,208.53Z"/><path class="cls-1" d="M173.27,196c-.33.29-.66.56-1,.82a19.49,19.49,0,0,1-3.46,2.21,1.64,1.64,0,0,0,.41.42,2.19,2.19,0,0,0,1.45.22,8,8,0,0,0,3.09-1.21,19.3,19.3,0,0,0,2-1.38,22.28,22.28,0,0,0,4.18-5.34c.7-1.14,1.42-2.35,2.12-3.59.53-.95,1.05-1.9,1.55-2.83l-.4-.85c-1.1,1.46-2.26,3-3.51,4.56A58.13,58.13,0,0,1,173.27,196Z"/><path d="M197.26,247.71a4.13,4.13,0,0,1-3.46-2.66,5.74,5.74,0,0,1-.33-1,50.3,50.3,0,0,0,3.95-4.28c6-7.26,8.83-16.59,9.53-24.78.15-.1.31-.22.46-.34a69.87,69.87,0,0,1,4.49-17.11,20.41,20.41,0,0,1-4.43.66,16,16,0,0,1-2.62-.14,14.17,14.17,0,0,1-5.79-2.13l-.28-.18a18.44,18.44,0,0,1-2.41-1.94,27.84,27.84,0,0,1-4.33-5.53l-.41-.66c-1-1.78-2-3.69-2.94-5.66-.45-1-.9-2-1.34-3s-.78-1.68-1.21-2.45a25,25,0,0,0-2-3.12,20.32,20.32,0,0,0-4.28-4.22c-.12-.09-.23-.19-.36-.28l-.69-.45c-4.47-2.83-9.77-3.67-15.31-3.47a69.38,69.38,0,0,0-10.89,1.4c-1.22.24-2.43.5-3.63.77-1.64.37-3.25.75-4.82,1.13l-1.28.3c-1.72.4-3.39.8-5,1.14a119.46,119.46,0,0,1-23.79,3c-14,.11-20.33-3.81-23.89-6.87,8-1.3,31.83-5.27,42.27-8.21,12.33-3.47,23.61-4.78,43.13-5,11.4-.1,25,5.23,27.12,14.12.73,3.07,1.18,5.93,1.58,8.46.77,4.93,1.49,9.46,4.12,12.84a12.43,12.43,0,0,0,2.87,2.66,15.31,15.31,0,0,0,3,1.52c.92-1.81,1.9-3.58,3-5.31-5.32-1.64-5.89-5.17-7.07-12.64-.41-2.64-.88-5.62-1.66-8.92-2.92-12.23-18.84-18.74-32.55-18.74h-.47c-20.11.22-31.81,1.59-44.7,5.22-12,3.38-43.89,8.42-44.21,8.47l-.34.08a5.12,5.12,0,0,0-3.7,3.46,4.22,4.22,0,0,0,.35,2.88c-11.07,1.73-26.4,2.7-45.74,2.86l-1.37,0a111.67,111.67,0,0,1-24.36-2.23c-5.19-1-9.28-1.76-11,2.49-.77,1.83-.4,4,1.08,6.49,4.07,6.81,18.77,18.44,40.88,20.63l2.11.19a5.58,5.58,0,0,0,.21,1.31c1.67,5.72,13.56,12.74,29.7,13.23,0,.12.06.25.1.37,1.55,4.36,8.66,7.62,19.15,7.62.45,0,.92,0,1.38,0,0,.06,0,.13.07.2,1.74,4,7.88,7.82,17.25,7.82.61,0,1.24,0,1.88-.05a5.48,5.48,0,0,0,.23.56c1.58,3.36,6.46,6.29,13.93,6.29a33.73,33.73,0,0,0,7.13-.81,7,7,0,0,0,.62,1.22c1.7,2.65,5,4.37,9.65,4.37a24.5,24.5,0,0,0,6.25-.91,8.09,8.09,0,0,0,1.52,3.21c1.71,2.21,4.66,3.79,8.78,3.79a23.7,23.7,0,0,0,9.33-2.2,10.48,10.48,0,0,0,3.36,5.1,9.51,9.51,0,0,0,6,2.06,14.38,14.38,0,0,0,7.52-2.42,9.92,9.92,0,0,0,8.58,5.82h.26c3.31,0,7.87-1.68,12.79-8.42a67.93,67.93,0,0,1-2.05-8C202.72,247,198.46,247.76,197.26,247.71Zm3.81-38.81a19.76,19.76,0,0,0,1.69-3.15q.39-.9.72-1.83a21.63,21.63,0,0,0,3.38.27l.49,0c0,.23-.11.44-.16.66a8.07,8.07,0,0,1-1.37,3c-2,2.52-3.85,3-4.71,2.79a.83.83,0,0,1-.22-.08,1.27,1.27,0,0,1-.51-.69C200.63,209.57,200.84,209.23,201.07,208.9ZM194,199.61a21.4,21.4,0,0,0,2.32,1.63l.11.07c.45.27.92.53,1.4.77a11.87,11.87,0,0,1-3.43,5.45,5.37,5.37,0,0,1-.45.35,6.33,6.33,0,0,1-2.35,1,2.88,2.88,0,0,1-2.35-.35A1.58,1.58,0,0,1,189,207C190.91,205.38,192.52,202.72,194,199.61Zm-8.59-5.17c.54-.89,1.08-1.79,1.61-2.73l.08-.07c.39.61.8,1.22,1.23,1.82l.5.7.34.45.29.38c-.08.2-.17.4-.26.61-1.27,3-2.66,5.65-4,6.74-.41.32-.81.61-1.2.86a10.39,10.39,0,0,1-3.08,1.45c-1.26.35-2.14.25-2.4,0s-.29-.9.13-2.17l.89-.65a19.86,19.86,0,0,0,3.55-3.89C183.82,196.87,184.6,195.69,185.37,194.44Zm-2.12-10,.4.85c-.5.93-1,1.88-1.55,2.83-.7,1.24-1.42,2.45-2.12,3.59a22.28,22.28,0,0,1-4.18,5.34,19.3,19.3,0,0,1-2,1.38,8,8,0,0,1-3.09,1.21,2.19,2.19,0,0,1-1.45-.22,1.64,1.64,0,0,1-.41-.42,19.49,19.49,0,0,0,3.46-2.21c.32-.26.65-.53,1-.82a58.13,58.13,0,0,0,6.47-7C181,187.49,182.15,185.94,183.25,184.48Zm-19.72,9.3a33.8,33.8,0,0,0,6.28-4.93c.28-.26.55-.53.82-.8a20.36,20.36,0,0,0,2.29-.22,45.72,45.72,0,0,1-3.66,3.71c-.14.13-.28.24-.42.35a12,12,0,0,1-5.74,2.75,11.12,11.12,0,0,1-1.59.16A18.22,18.22,0,0,0,163.53,193.78Zm-2.11-5.73a11,11,0,0,1-3.48,1.66,30.43,30.43,0,0,1-3.51.64,26.85,26.85,0,0,1-2.89.2,21.89,21.89,0,0,1-6.69-.85l1-.17c1.44-.29,2.88-.66,4.29-1.09a46.12,46.12,0,0,0,9-3.77,20.21,20.21,0,0,0,4,2.11C162.57,187.24,162,187.67,161.42,188.05Zm17.5-11.56c.28.34.56.68.82,1.06s.39.58.58.88l-.66.86-2.19.88a35.25,35.25,0,0,1-4.95,1.66,13,13,0,0,1-4.35.09,13.17,13.17,0,0,1-3-.79,52.64,52.64,0,0,0,5.25-1.84c2.43-1,5.18-2.14,8-3.38C178.61,176.09,178.76,176.3,178.92,176.49Zm-26.35-4,.27-.05c5.56-1.13,10.46-1.78,14.65-1.46a19.92,19.92,0,0,1,5,1,65.86,65.86,0,0,1-9.5,3.53,10.59,10.59,0,0,1-1.84.21,13,13,0,0,1-2.34-.09,13.81,13.81,0,0,1-6.31-2.59c-.18-.13-.33-.28-.5-.41Zm-27.18,5.39c4.14-.5,8.68-1.25,13.71-2.33l2.58-.57,3.52-.83c.18.26.36.51.56.76a18.81,18.81,0,0,0,3.92,3.5c.43.28.88.56,1.35.82a20,20,0,0,0,2.92,1.34,41,41,0,0,1-5.23,2c-.86.27-1.73.52-2.62.73-.46.12-.93.22-1.41.31a29.2,29.2,0,0,1-4.81.56l-1,0a35.28,35.28,0,0,1-6.14-.47,32.65,32.65,0,0,1-8.37-2.54,20.58,20.58,0,0,1-3.63-2.14c-.31-.24-.57-.46-.8-.67Q122.52,178.24,125.39,177.89ZM42.94,191c-21.61-2.14-35-14.15-36.74-18.41,1,.08,2.63.39,4.12.68a120.12,120.12,0,0,0,25.55,2.33l1.35,0c22.21-.19,39.31-1.43,50.93-3.69,4.35,3.24,11.49,6.69,24.75,6.77a8.64,8.64,0,0,0,1.35,2.45c-1,.56-2,1.1-3.1,1.61-11.65,5.56-28.53,8.45-45.37,9-5.71.18-11.4.1-16.89-.24C46.88,191.35,44.89,191.2,42.94,191Zm33.85,14.74c-14.1.16-23.89-5.27-26-8.16,2.76.12,5.63.19,8.6.19,20.48,0,44.88-3.22,59.65-12.56A36.41,36.41,0,0,0,131,189.52c-1.79.92-3.79,1.89-6,2.9-1.58.71-3.27,1.44-5.09,2.19-6.06,2.5-12.27,4.7-18.15,6.47a112.16,112.16,0,0,1-20.17,4.39C79.91,205.63,78.33,205.72,76.79,205.74ZM96,213.64c-7.07.35-11.74-1-14.09-2.18l.22,0c9-.89,22.28-4.54,34.57-9.17a151.13,151.13,0,0,0,20.76-9.45,20.74,20.74,0,0,0,6.58,2.87,144.1,144.1,0,0,1-27.34,13.39,90.35,90.35,0,0,1-11,3.21A59.46,59.46,0,0,1,96,213.64Zm19.54,7.83c-5.73.58-10.16-.45-12.82-2-.24-.14-.44-.28-.64-.42,1.6-.23,3.22-.51,4.91-.88,9.48-2.08,21.1-6.79,31.23-12.16a121.06,121.06,0,0,0,13.15-8,20.34,20.34,0,0,0,3.95,1.8c-.83.81-1.71,1.64-2.63,2.47a94.28,94.28,0,0,1-9.92,7.77,80.06,80.06,0,0,1-17.11,9A41.23,41.23,0,0,1,115.54,221.47Zm20.61,5.87c-6.87,1.87-11.93,1.25-14.65-.26-.24-.13-.44-.26-.62-.38a50.93,50.93,0,0,0,6.85-2c12.3-4.54,26.64-14.55,35-24H163a7.86,7.86,0,0,0,2.66,3.54A7.07,7.07,0,0,0,167,205c-5.75,7.45-14.53,15.69-24.57,20.07A44.68,44.68,0,0,1,136.15,227.34Zm17.85,4c-7.13,2.89-11.27,1.92-12.58.57,1.11-.4,2.24-.84,3.4-1.35,10.25-4.47,21.07-14.07,28-23.37L173,207h0a6.42,6.42,0,0,0,1.42,2,6.92,6.92,0,0,0,3.26,1.67c-.24.38-.48.76-.73,1.14l-.51.78a52.51,52.51,0,0,1-16.3,15.71A46.08,46.08,0,0,1,154,231.39Zm17.82,5c-7.49,4-12.11,3.35-13.54,1.49a1.86,1.86,0,0,1-.38-1.66,54,54,0,0,0,5.24-2.72,59.48,59.48,0,0,0,18.62-18.16c.82-1.24,1.57-2.48,2.27-3.72a6.72,6.72,0,0,0,1.25,1.43,8,8,0,0,0,4.68,1.87,40.94,40.94,0,0,1-5.57,10.82,32.74,32.74,0,0,1-7.12,7.18A49.6,49.6,0,0,1,171.82,236.4Zm15.71,4.85c-3.66,3-6.84,3.89-8.75,2.34a4.81,4.81,0,0,1-1.6-3.37c1.17-.73,2.37-1.53,3.61-2.43,8.34-6,13.22-15.07,15.56-23.26a6.4,6.4,0,0,0,1.6,1.27,7.17,7.17,0,0,0,2.75.86c-.9,6.59-3.36,13.74-7.91,19.25A37.61,37.61,0,0,1,187.53,241.25Z"/><path class="cls-1" d="M369.84,225.75a40.94,40.94,0,0,1-5.57-10.82,8,8,0,0,0,4.68-1.87,6.72,6.72,0,0,0,1.25-1.43c.69,1.24,1.45,2.48,2.27,3.72a59.34,59.34,0,0,0,18.61,18.16,54.14,54.14,0,0,0,5.25,2.72,1.89,1.89,0,0,1-.38,1.66c-1.44,1.86-6.05,2.56-13.55-1.49a50.57,50.57,0,0,1-5.45-3.47A32.47,32.47,0,0,1,369.84,225.75Z"/><path class="cls-1" d="M387.24,205a7.07,7.07,0,0,0,1.35-.79,7.86,7.86,0,0,0,2.66-3.54h.21c8.4,9.41,22.73,19.42,35,24a51.48,51.48,0,0,0,6.86,2c-.18.12-.38.25-.62.38-2.72,1.51-7.78,2.13-14.65.26a45.23,45.23,0,0,1-6.28-2.23C401.77,220.73,393,212.49,387.24,205Z"/><path class="cls-1" d="M377.83,212.63c-.18-.26-.34-.52-.51-.78s-.5-.76-.73-1.14a6.92,6.92,0,0,0,3.26-1.67,6.58,6.58,0,0,0,1.42-2h0l.17.26c6.89,9.3,17.71,18.9,28,23.37,1.17.51,2.3.95,3.41,1.35-1.31,1.35-5.45,2.32-12.58-.57a46.77,46.77,0,0,1-6.11-3A52.59,52.59,0,0,1,377.83,212.63Z"/><path class="cls-1" d="M356.81,239.73a50.3,50.3,0,0,0,3.95,4.28,5.74,5.74,0,0,1-.33,1,4.14,4.14,0,0,1-3.46,2.66c-1.2,0-5.46-.67-10.84-10.39a70.65,70.65,0,0,0,1.31-13.51,71.67,71.67,0,0,0-.62-9.2c.15.12.31.24.46.34C348,223.14,350.82,232.47,356.81,239.73Z"/><path class="cls-1" d="M353.33,210.57a.72.72,0,0,1-.22.08c-.85.25-2.68-.27-4.7-2.79a8.07,8.07,0,0,1-1.37-3c-.05-.22-.11-.43-.16-.66l.49,0a21.63,21.63,0,0,0,3.38-.27c.21.62.45,1.23.71,1.83a19.8,19.8,0,0,0,1.7,3.15c.22.33.44.67.68,1A1.18,1.18,0,0,1,353.33,210.57Z"/><path class="cls-1" d="M343,190.69a12.18,12.18,0,0,0,2.86-2.66c2.64-3.38,3.36-7.91,4.13-12.84.4-2.53.85-5.39,1.58-8.46,2.11-8.89,15.72-14.22,27.11-14.12,19.52.21,30.81,1.52,43.14,5,10.43,2.94,34.26,6.91,42.26,8.21-3.55,3.06-9.85,7-23.88,6.87a119.46,119.46,0,0,1-23.79-3c-1.63-.34-3.3-.74-5-1.14l-1.28-.3c-1.57-.38-3.19-.76-4.82-1.13-1.2-.27-2.41-.53-3.63-.77a69.53,69.53,0,0,0-10.89-1.4c-5.55-.2-10.84.64-15.31,3.47-.23.15-.47.29-.7.45l-.36.28a20.52,20.52,0,0,0-4.27,4.22,23.89,23.89,0,0,0-2,3.12c-.43.77-.84,1.58-1.22,2.45s-.88,2-1.34,3a61.47,61.47,0,0,1-2.94,5.66c-.13.22-.26.44-.4.66a27.84,27.84,0,0,1-4.33,5.53,18.44,18.44,0,0,1-2.41,1.94l-.28.18a14.22,14.22,0,0,1-5.79,2.13,16,16,0,0,1-2.62.14,20.41,20.41,0,0,1-4.43-.66q-1.09-2.7-2.4-5.29A15.13,15.13,0,0,0,343,190.69Z"/><path class="cls-1" d="M356.28,215.8a6.77,6.77,0,0,0,1.6-1.27c2.34,8.19,7.22,17.22,15.55,23.26,1.25.9,2.45,1.7,3.62,2.43a4.85,4.85,0,0,1-1.6,3.37c-1.91,1.55-5.1.62-8.75-2.34a37.61,37.61,0,0,1-5.26-5.34c-4.55-5.51-7-12.66-7.92-19.25A7.22,7.22,0,0,0,356.28,215.8Z"/><path class="cls-1" d="M437.53,209.08a144.1,144.1,0,0,1-27.34-13.39,20.58,20.58,0,0,0,6.57-2.87,151.84,151.84,0,0,0,20.77,9.45c12.29,4.63,25.53,8.28,34.56,9.17l.23,0c-2.36,1.22-7,2.53-14.09,2.18a59.57,59.57,0,0,1-9.71-1.35A90.73,90.73,0,0,1,437.53,209.08Z"/><path class="cls-1" d="M404.06,188.44c1.41.43,2.85.8,4.29,1.09l1,.17a21.78,21.78,0,0,1-6.68.85,26.67,26.67,0,0,1-2.89-.2,30.43,30.43,0,0,1-3.51-.64,11.15,11.15,0,0,1-3.49-1.66c-.57-.38-1.14-.81-1.72-1.27a19.93,19.93,0,0,0,4-2.11A46.22,46.22,0,0,0,404.06,188.44Z"/><path class="cls-1" d="M411.46,210.06a94.28,94.28,0,0,1-9.92-7.77c-.93-.83-1.8-1.66-2.63-2.47a20.25,20.25,0,0,0,3.94-1.8A122,122,0,0,0,416,206c10.14,5.37,21.76,10.08,31.24,12.16,1.68.37,3.31.65,4.9.88a7.11,7.11,0,0,1-.64.42c-2.66,1.57-7.08,2.6-12.82,2a41.27,41.27,0,0,1-10.11-2.42A79.82,79.82,0,0,1,411.46,210.06Z"/><path class="cls-1" d="M385.38,191.89c-.13-.11-.27-.22-.41-.35a44.14,44.14,0,0,1-3.66-3.71,20.36,20.36,0,0,0,2.29.22l.81.8a33.8,33.8,0,0,0,6.28,4.93,18.35,18.35,0,0,0,2,1,11,11,0,0,1-1.59-.16A12,12,0,0,1,385.38,191.89Z"/><path class="cls-1" d="M389,181.13a13.2,13.2,0,0,1-7.3.7,35.25,35.25,0,0,1-4.95-1.66l-2.19-.88-.66-.86c.19-.3.38-.6.58-.88s.54-.72.82-1.06c.16-.19.31-.4.47-.58,2.81,1.24,5.56,2.42,8,3.38A52.58,52.58,0,0,0,389,181.13Z"/><path class="cls-1" d="M434.37,194.61q-2.73-1.12-5.1-2.19c-2.24-1-4.24-2-6-2.9a36.26,36.26,0,0,0,11.91-4.31c14.78,9.34,39.18,12.56,59.66,12.56,3,0,5.84-.07,8.6-.19-2.09,2.89-11.87,8.32-26,8.16-1.54,0-3.12-.11-4.75-.27a112.42,112.42,0,0,1-20.18-4.39C446.63,199.31,440.43,197.11,434.37,194.61Z"/><path class="cls-1" d="M395.44,175.63a12.91,12.91,0,0,1-2.34.09,10.81,10.81,0,0,1-1.84-.21,66.28,66.28,0,0,1-9.49-3.53,19.73,19.73,0,0,1,5-1c4.19-.32,9.08.33,14.65,1.46l.27.05.6.13c-.17.13-.32.28-.5.41A13.81,13.81,0,0,1,395.44,175.63Z"/><path class="cls-1" d="M488.45,191.72c-16.84-.55-33.72-3.44-45.38-9-1.08-.51-2.11-1.05-3.09-1.61a8.59,8.59,0,0,0,1.34-2.45c13.27-.08,20.41-3.53,24.76-6.77,11.61,2.26,28.72,3.5,50.92,3.69l1.36,0a120.27,120.27,0,0,0,25.55-2.33c1.48-.29,3.12-.6,4.12-.68-1.73,4.26-15.13,16.27-36.74,18.41-2,.2-3.94.35-6,.48C499.85,191.82,494.15,191.9,488.45,191.72Z"/><path class="cls-1" d="M429.88,181.23a32.45,32.45,0,0,1-8.36,2.54,35.28,35.28,0,0,1-6.14.47l-1,0a29.44,29.44,0,0,1-4.82-.56c-.47-.09-.94-.19-1.41-.31-.89-.21-1.76-.46-2.61-.73a41.13,41.13,0,0,1-5.24-2,20.11,20.11,0,0,0,2.93-1.34c.47-.26.92-.54,1.34-.82a18.56,18.56,0,0,0,3.92-3.5c.21-.25.39-.5.57-.76l3.52.83,2.58.57c5,1.08,9.57,1.83,13.71,2.33q2.87.35,5.48.53c-.24.21-.49.43-.8.67A20.68,20.68,0,0,1,429.88,181.23Z"/><path class="cls-1" d="M374.74,201.83c.3.23.6.44.89.65.42,1.27.31,2,.12,2.17s-1.13.35-2.4,0a10.62,10.62,0,0,1-3.08-1.45c-.38-.25-.78-.54-1.19-.86-1.35-1.09-2.74-3.77-4-6.74-.08-.21-.17-.41-.26-.61.1-.13.2-.25.29-.38l.35-.45.5-.7c.42-.6.84-1.21,1.22-1.82l.09.07c.53.94,1.07,1.84,1.61,2.73.77,1.25,1.54,2.43,2.33,3.5A19.86,19.86,0,0,0,374.74,201.83Z"/><path class="cls-1" d="M365,208.53a2.89,2.89,0,0,1-2.36.35,6.33,6.33,0,0,1-2.35-1l-.45-.35a11.85,11.85,0,0,1-3.42-5.45c.48-.24.95-.5,1.4-.77l.11-.07a22.42,22.42,0,0,0,2.32-1.63c1.44,3.11,3.05,5.77,5,7.36A1.58,1.58,0,0,1,365,208.53Z"/><path class="cls-1" d="M381,196c.33.29.65.56,1,.82A19.13,19.13,0,0,0,385.4,199a1.53,1.53,0,0,1-.42.42,2.17,2.17,0,0,1-1.45.22,8,8,0,0,1-3.08-1.21,19.34,19.34,0,0,1-2-1.38,22.29,22.29,0,0,1-4.17-5.34c-.71-1.14-1.42-2.35-2.12-3.59-.53-.95-1.05-1.9-1.55-2.83l.39-.85c1.1,1.46,2.26,3,3.51,4.56A58.23,58.23,0,0,0,381,196Z"/><path d="M357,247.71a4.14,4.14,0,0,0,3.46-2.66,5.74,5.74,0,0,0,.33-1,50.3,50.3,0,0,1-3.95-4.28c-6-7.26-8.83-16.59-9.53-24.78-.15-.1-.31-.22-.46-.34a69.87,69.87,0,0,0-4.49-17.11,20.41,20.41,0,0,0,4.43.66,16,16,0,0,0,2.62-.14,14.22,14.22,0,0,0,5.79-2.13l.28-.18a18.44,18.44,0,0,0,2.41-1.94,27.84,27.84,0,0,0,4.33-5.53c.14-.22.27-.44.4-.66a61.47,61.47,0,0,0,2.94-5.66c.46-1,.91-2,1.34-3s.79-1.68,1.22-2.45a23.89,23.89,0,0,1,2-3.12,20.52,20.52,0,0,1,4.27-4.22l.36-.28c.23-.16.47-.3.7-.45,4.47-2.83,9.76-3.67,15.31-3.47a69.53,69.53,0,0,1,10.89,1.4c1.22.24,2.43.5,3.63.77,1.63.37,3.25.75,4.82,1.13l1.28.3c1.72.4,3.39.8,5,1.14a119.46,119.46,0,0,0,23.79,3c14,.11,20.33-3.81,23.88-6.87-8-1.3-31.83-5.27-42.26-8.21-12.33-3.47-23.62-4.78-43.14-5-11.39-.1-25,5.23-27.11,14.12-.73,3.07-1.18,5.93-1.58,8.46-.77,4.93-1.49,9.46-4.13,12.84a12.18,12.18,0,0,1-2.86,2.66,15.13,15.13,0,0,1-3,1.52q-1.37-2.72-3-5.31c5.32-1.64,5.89-5.17,7.06-12.64.42-2.64.89-5.62,1.67-8.92,2.92-12.23,18.84-18.74,32.54-18.74h.48c20.11.22,31.8,1.59,44.7,5.22,12,3.38,43.88,8.42,44.2,8.47l.34.08a5.13,5.13,0,0,1,3.71,3.46,4.29,4.29,0,0,1-.35,2.88c11.07,1.73,26.4,2.7,45.74,2.86l1.37,0a111.75,111.75,0,0,0,24.36-2.23c5.18-1,9.28-1.76,11.05,2.49.76,1.83.4,4-1.08,6.49-4.07,6.81-18.77,18.44-40.88,20.63l-2.11.19a5.58,5.58,0,0,1-.21,1.31c-1.67,5.72-13.56,12.74-29.71,13.23,0,.12-.05.25-.09.37-1.56,4.36-8.66,7.62-19.15,7.62-.45,0-.92,0-1.38,0,0,.06-.05.13-.08.2-1.73,4-7.87,7.82-17.24,7.82-.62,0-1.24,0-1.88-.05a5.48,5.48,0,0,1-.23.56c-1.58,3.36-6.46,6.29-13.93,6.29a33.66,33.66,0,0,1-7.13-.81,7.07,7.07,0,0,1-.63,1.22c-1.69,2.65-5,4.37-9.64,4.37a24.44,24.44,0,0,1-6.25-.91,8.38,8.38,0,0,1-1.52,3.21c-1.71,2.21-4.66,3.79-8.78,3.79a23.67,23.67,0,0,1-9.33-2.2,10.48,10.48,0,0,1-3.36,5.1,9.53,9.53,0,0,1-6,2.06,14.44,14.44,0,0,1-7.53-2.42,9.89,9.89,0,0,1-8.57,5.82h-.26c-3.32,0-7.87-1.68-12.79-8.42a70,70,0,0,0,2.05-8C351.51,247,355.77,247.76,357,247.71Zm-3.81-38.81a19.8,19.8,0,0,1-1.7-3.15c-.26-.6-.5-1.21-.71-1.83a21.63,21.63,0,0,1-3.38.27l-.49,0c.05.23.11.44.16.66a8.07,8.07,0,0,0,1.37,3c2,2.52,3.85,3,4.7,2.79a.72.72,0,0,0,.22-.08,1.18,1.18,0,0,0,.51-.69C353.6,209.57,353.38,209.23,353.16,208.9Zm7.11-9.29a22.42,22.42,0,0,1-2.32,1.63l-.11.07c-.45.27-.92.53-1.4.77a11.85,11.85,0,0,0,3.42,5.45l.45.35a6.33,6.33,0,0,0,2.35,1,2.89,2.89,0,0,0,2.36-.35,1.58,1.58,0,0,0,.26-1.56C363.32,205.38,361.71,202.72,360.27,199.61Zm8.59-5.17c-.54-.89-1.08-1.79-1.61-2.73l-.09-.07c-.38.61-.8,1.22-1.22,1.82l-.5.7-.35.45c-.09.13-.19.25-.29.38.09.2.18.4.26.61,1.28,3,2.67,5.65,4,6.74.41.32.81.61,1.19.86a10.62,10.62,0,0,0,3.08,1.45c1.27.35,2.14.25,2.4,0s.3-.9-.12-2.17c-.29-.21-.59-.42-.89-.65a19.86,19.86,0,0,1-3.55-3.89C370.4,196.87,369.63,195.69,368.86,194.44Zm2.11-10-.39.85c.5.93,1,1.88,1.55,2.83.7,1.24,1.41,2.45,2.12,3.59a22.29,22.29,0,0,0,4.17,5.34,19.34,19.34,0,0,0,2,1.38,8,8,0,0,0,3.08,1.21,2.17,2.17,0,0,0,1.45-.22,1.53,1.53,0,0,0,.42-.42,19.13,19.13,0,0,1-3.46-2.21c-.33-.26-.65-.53-1-.82a58.23,58.23,0,0,1-6.48-7C373.23,187.49,372.07,185.94,371,184.48Zm19.72,9.3a33.8,33.8,0,0,1-6.28-4.93l-.81-.8a20.36,20.36,0,0,1-2.29-.22,44.14,44.14,0,0,0,3.66,3.71c.14.13.28.24.41.35a12,12,0,0,0,5.75,2.75,11,11,0,0,0,1.59.16A18.35,18.35,0,0,1,390.69,193.78Zm2.11-5.73a11.15,11.15,0,0,0,3.49,1.66,30.43,30.43,0,0,0,3.51.64,26.67,26.67,0,0,0,2.89.2,21.78,21.78,0,0,0,6.68-.85l-1-.17c-1.44-.29-2.88-.66-4.29-1.09a46.22,46.22,0,0,1-9-3.77,19.93,19.93,0,0,1-4,2.11C391.66,187.24,392.23,187.67,392.8,188.05Zm-17.49-11.56c-.28.34-.56.68-.82,1.06s-.39.58-.58.88l.66.86,2.19.88a35.25,35.25,0,0,0,4.95,1.66,13.2,13.2,0,0,0,7.3-.7,52.58,52.58,0,0,1-5.24-1.84c-2.43-1-5.18-2.14-8-3.38C375.62,176.09,375.47,176.3,375.31,176.49Zm26.35-4-.27-.05c-5.57-1.13-10.46-1.78-14.65-1.46a19.73,19.73,0,0,0-5,1,66.28,66.28,0,0,0,9.49,3.53,10.81,10.81,0,0,0,1.84.21,12.91,12.91,0,0,0,2.34-.09,13.81,13.81,0,0,0,6.32-2.59c.18-.13.33-.28.5-.41Zm27.18,5.39c-4.14-.5-8.68-1.25-13.71-2.33l-2.58-.57-3.52-.83c-.18.26-.36.51-.57.76a18.56,18.56,0,0,1-3.92,3.5c-.42.28-.87.56-1.34.82a20.11,20.11,0,0,1-2.93,1.34,41.13,41.13,0,0,0,5.24,2c.85.27,1.72.52,2.61.73.47.12.94.22,1.41.31a29.44,29.44,0,0,0,4.82.56l1,0a35.28,35.28,0,0,0,6.14-.47,32.45,32.45,0,0,0,8.36-2.54,20.68,20.68,0,0,0,3.64-2.14c.31-.24.56-.46.8-.67Q431.71,178.24,428.84,177.89ZM511.29,191c21.61-2.14,35-14.15,36.74-18.41-1,.08-2.64.39-4.12.68a120.27,120.27,0,0,1-25.55,2.33l-1.36,0c-22.2-.19-39.31-1.43-50.92-3.69-4.35,3.24-11.49,6.69-24.76,6.77a8.59,8.59,0,0,1-1.34,2.45c1,.56,2,1.1,3.09,1.61,11.66,5.56,28.54,8.45,45.38,9,5.7.18,11.4.1,16.89-.24C507.35,191.35,509.34,191.2,511.29,191Zm-33.85,14.74c14.1.16,23.88-5.27,26-8.16-2.76.12-5.64.19-8.6.19-20.48,0-44.88-3.22-59.66-12.56a36.26,36.26,0,0,1-11.91,4.31c1.79.92,3.79,1.89,6,2.9q2.37,1.07,5.1,2.19c6.06,2.5,12.26,4.7,18.14,6.47a112.42,112.42,0,0,0,20.18,4.39C474.32,205.63,475.9,205.72,477.44,205.74Zm-19.21,7.9c7.07.35,11.73-1,14.09-2.18l-.23,0c-9-.89-22.27-4.54-34.56-9.17a151.84,151.84,0,0,1-20.77-9.45,20.58,20.58,0,0,1-6.57,2.87,144.1,144.1,0,0,0,27.34,13.39,90.73,90.73,0,0,0,11,3.21A59.57,59.57,0,0,0,458.23,213.64Zm-19.55,7.83c5.74.58,10.16-.45,12.82-2a7.11,7.11,0,0,0,.64-.42c-1.59-.23-3.22-.51-4.9-.88-9.48-2.08-21.1-6.79-31.24-12.16a122,122,0,0,1-13.15-8,20.25,20.25,0,0,1-3.94,1.8c.83.81,1.7,1.64,2.63,2.47a94.28,94.28,0,0,0,9.92,7.77,79.82,79.82,0,0,0,17.11,9A41.27,41.27,0,0,0,438.68,221.47Zm-20.6,5.87c6.87,1.87,11.93,1.25,14.65-.26.24-.13.44-.26.62-.38a51.48,51.48,0,0,1-6.86-2c-12.3-4.54-26.63-14.55-35-24h-.21a7.86,7.86,0,0,1-2.66,3.54,7.07,7.07,0,0,1-1.35.79c5.75,7.45,14.53,15.69,24.56,20.07A45.23,45.23,0,0,0,418.08,227.34Zm-17.85,4c7.13,2.89,11.27,1.92,12.58.57-1.11-.4-2.24-.84-3.41-1.35-10.25-4.47-21.07-14.07-28-23.37l-.17-.26h0a6.58,6.58,0,0,1-1.42,2,6.92,6.92,0,0,1-3.26,1.67c.23.38.48.76.73,1.14s.33.52.51.78a52.59,52.59,0,0,0,16.29,15.71A46.77,46.77,0,0,0,400.23,231.39Zm-17.83,5c7.5,4,12.11,3.35,13.55,1.49a1.89,1.89,0,0,0,.38-1.66,54.14,54.14,0,0,1-5.25-2.72,59.34,59.34,0,0,1-18.61-18.16c-.82-1.24-1.58-2.48-2.27-3.72a6.72,6.72,0,0,1-1.25,1.43,8,8,0,0,1-4.68,1.87,40.94,40.94,0,0,0,5.57,10.82,32.47,32.47,0,0,0,7.11,7.18A50.57,50.57,0,0,0,382.4,236.4Zm-15.7,4.85c3.65,3,6.84,3.89,8.75,2.34a4.85,4.85,0,0,0,1.6-3.37c-1.17-.73-2.37-1.53-3.62-2.43-8.33-6-13.21-15.07-15.55-23.26a6.77,6.77,0,0,1-1.6,1.27,7.22,7.22,0,0,1-2.76.86c.91,6.59,3.37,13.74,7.92,19.25A37.61,37.61,0,0,0,366.7,241.25Z"/><circle class="cls-1" cx="277.11" cy="223.81" r="64.32" transform="translate(-64.56 123.08) rotate(-22.5)"/><path d="M277.11,153.49a70.33,70.33,0,1,0,70.32,70.32A70.4,70.4,0,0,0,277.11,153.49Zm0,134.65a64.33,64.33,0,1,1,64.32-64.33A64.4,64.4,0,0,1,277.11,288.14Z"/><path d="M330.3,202.61s-4.21-1.4-10.86-4.42A115.72,115.72,0,0,1,305.8,191l-.77-.49c-3.38-2.22-10.31-6.72-20.66-3a23.49,23.49,0,0,0-10.12-.66l-.16,0c-4.16.52-8,3.43-11.66,6.24-1,.78-2,1.52-2.95,2.18-2.61,1.83-6.37,4-8.06,5v-2.5h-10v20.05l-14.93,29.76,2.31.63c-3.05,2.24-4.61,5-4.2,6.93,1.34,6.33,38.58,6.75,43.21.94l38.56,4.13,2.3.73,24.76-57.27Zm-76,2.9c1.71-1,5.75-3.36,8.64-5.38,1.05-.74,2.11-1.55,3.14-2.33,3.06-2.33,6.22-4.73,8.78-5.06l.16,0a19.37,19.37,0,0,1,5.16-.08l-21,44.09a17.11,17.11,0,0,0-7.07-1,7.78,7.78,0,0,0-.68-.59V211.22Zm-12.86,25.65v4.25c-1.64,1.5-2.19,3.74-2.52,5.63a12,12,0,0,1-3.14,1.39Zm12.89,10.57a10.47,10.47,0,0,1,3.21.79v2.34a24.91,24.91,0,0,0-2.87-.83C254.38,244,254.41,243,254.31,241.73Zm11.19,8a19.82,19.82,0,0,0-2-1.68v-4.92a21.91,21.91,0,0,1,11.57.42c3.85,1.2,7.44,3.65,12.42,7l.34.23c.81.55,1.6,1.06,2.39,1.56Zm25.73-3.87-.34-.22c-5.41-3.69-9.31-6.35-14-7.82a27.85,27.85,0,0,0-11.05-1.14L286.63,193c7.41-2.54,12.21.58,15.12,2.49l.89.57A121.25,121.25,0,0,0,317,203.66l1.46.65-21.87,44.87C294.85,248.23,293.07,247.14,291.23,245.89Zm14.13,7.54c-.94-.38-2.13-.88-3.47-1.5L324,206.64l1.39.55Z"/><path d="M252.24,183.54c-1.24-2.4-2.13-2-3-4.27-1.27-3.29-.34-6.6-1.08-6.77-.2,0-.41.14-.71.51-1.85,2.29-1.11,4.33-2.55,6.51-.75,1.14-1,.64-2.55,2.43a11.2,11.2,0,0,0-2.49,3.89c-.16.48-1.31,4,.83,6.77s6,2.48,6.7,2.42,3.82-.32,5.43-2.61C255.13,189.11,252.62,184.28,252.24,183.54Zm-4.53,8.75a2.68,2.68,0,0,1-2.49-1.6c-.24-.8.4-1.07.57-2.42.23-1.78-.74-2.39-.25-3.77,0-.07.49-1.34,1.28-1.4.48,0,.91.39,1.91,1.85,1.54,2.25,2.31,3.37,2.24,4.15A3.63,3.63,0,0,1,247.71,192.29Z"/><path d="M119.54,91.61l8.53,7.56,7.32-8.26-8.52-7.56,4.43-5L153.5,98l-4.44,5-9.29-8.23-7.32,8.26,9.28,8.24-4.46,5-22.2-19.67Z"/><path d="M157.46,84.52l3.18,7.24-5.38,4.39-11.75-28.7,6.81-5.57L176.21,79l-5.58,4.57L164,79.15Zm2.65-8.64-5.41-3.71c-1.52-1-3.32-2.39-4.78-3.48l-.07.06c.78,1.64,1.86,3.66,2.57,5.29L155,80Z"/><path d="M169.61,48.43l12.07,20.93,9-5.19L178.6,43.24l5.8-3.34L196.58,61l2.68-1.35,6,11.1-4.42,2.55L196.81,67,178.59,77.49,163.77,51.8Z"/><path d="M199.15,33.47l11.71,27.26-6.19,2.65L193,36.13Z"/><path d="M237.1,36.38c2.73,9.33-1.27,16.65-9.59,19.08S212.25,53,209.88,44.89c-2.49-8.54,1.09-16.51,9.5-19C228.12,23.37,234.81,28.52,237.1,36.38Zm-20.45,6.39c1.62,5.58,5.39,8.74,9.7,7.48s5.63-6.14,4-11.67c-1.5-5.11-5.23-8.79-9.67-7.49S215,37.24,216.65,42.77Z"/><path d="M247.81,20.2l1.31,11.32,11-1.26-1.31-11.33,6.64-.76,3.41,29.46-6.65.77-1.42-12.33-11,1.27,1.43,12.33-6.69.77L241.13,21Z"/><path d="M280.8,40.23l-2.45,7.51-6.94-.31L281.78,18.2l8.79.39,7.87,30-7.21-.32-1.94-7.71Zm7.74-4.68L287,29.18c-.45-1.78-.88-4-1.24-5.78h-.09c-.51,1.74-1.05,4-1.61,5.65l-2,6.21Z"/><path d="M329.88,24.73l-6,29-6.55-1.35,4.88-23.66-6.59-1.36-1.43,6.9c-1.53,7.45-3.67,13-8.6,14.66a12.07,12.07,0,0,1-6.06.23l.27-5.46a5.61,5.61,0,0,0,3.64-.87c2.14-1.45,3.34-5.06,4.24-9.46l2.63-12.71Z"/><path d="M345,29.66l-3.58,9.66c.9.24,2.27.6,3.46,1,6,2.21,10,6.94,7.72,13.13a9.07,9.07,0,0,1-4.48,5.24c-3.69,1.73-8.65.82-13-.78A51.7,51.7,0,0,1,328.51,55l10.25-27.69Zm-8.64,23.22a13.77,13.77,0,0,0,2.29,1c3.05,1.13,6.08.57,7.24-2.57s-.77-5.4-3.78-6.51a22.85,22.85,0,0,0-2.5-.74Z"/><path d="M372.56,41.59,367,51.53l9.64,5.39L382.2,47,388,50.24,373.56,76.12l-5.84-3.27L373.78,62l-9.64-5.39-6.06,10.82-5.87-3.29L366.69,38.3Z"/><path d="M400.81,59.44l-5.5,6.87c-3,3.71-6,7.33-8.67,10.26l.14.11c3.37-1.75,7.37-3.57,10.72-4.94l12.27-5.12,5.36,4.3L396.59,94.07l-4.81-3.86,5.47-6.83a124.53,124.53,0,0,1,8.2-9.45l-.11-.09A85.42,85.42,0,0,1,394.82,79l-11.39,4.58-6-4.79L396,55.59Z"/><path d="M426.17,82.06l-6.55,5.88c-3.54,3.17-7.1,6.25-10.23,8.69l.12.13c3.62-1.17,7.85-2.31,11.39-3.11l12.94-3,4.58,5.11-22.08,19.8-4.11-4.59,6.52-5.84a120.19,120.19,0,0,1,9.63-8l-.09-.1a86.24,86.24,0,0,1-11.21,3.31l-12,2.65L400,97.27l22.08-19.79ZM434,80.62c-1.25,1.18-1.65,2.18-.71,3.23s2,.76,3.38-.25l3,3.34c-3,2.33-5.85,1.58-8.47-1.33s-2.77-5.67-.26-8.4Z"/><path d="M78.38,256l-7.87-.68-1.28-6.84L100.05,252l1.61,8.65L74.19,275.08,72.87,268l7.06-3.64Zm6.3,6.48,5.85-3c1.64-.84,3.7-1.76,5.35-2.52v-.08c-1.81-.11-4.1-.14-5.88-.3L83.48,256Z"/><path d="M103.79,272.06a53.39,53.39,0,0,1,3.4,8c1.33,3.87,1.77,6.37,1.26,8.83a6.42,6.42,0,0,1-4.33,5.25c-2.5.86-5.33.21-7.58-2.56l-.08,0c.22,3.51-1.37,6.71-5,7.95a7.93,7.93,0,0,1-7-.87c-2.32-1.48-4.41-4.58-6.32-10.15a52.65,52.65,0,0,1-2-7Zm-21,14.25a21.27,21.27,0,0,0,.76,2.48c1,2.88,2.94,5,5.9,4s3.08-3.9,2-7.06l-.74-2.17ZM95.21,282l.72,2.08c1.14,3.33,3.13,4.64,5.21,3.93s2.69-2.74,1.7-5.61a18.28,18.28,0,0,0-1.09-2.65Z"/><path d="M115.84,301.91,89,314.4l-2.84-6.11L113,295.81Z"/><path d="M102.34,323.53l-7.6,2.13-3.6-6,30.06-7.59,4.56,7.53-20.62,23.21-3.73-6.17,5.33-5.9Zm8.19,3.84,4.42-4.84c1.24-1.36,2.85-2.95,4.12-4.24l0-.07c-1.74.53-3.88,1.31-5.6,1.79l-6.3,1.75Z"/><path d="M136.26,334.49l-18.48,15.56,6.69,7.94L143,342.43l4.31,5.12-18.65,15.7,1.79,2.4-9.86,7.9-3.29-3.91,5.53-5.11-13.54-16.09,22.69-19.1Z"/><path d="M156.27,355.9l-20.41,21.52L131,372.79l20.41-21.53Z"/><path d="M164.38,363l-5.3,7c-2.86,3.79-5.77,7.49-8.37,10.5l.14.1c3.33-1.85,7.27-3.78,10.58-5.25l12.12-5.46L179,374,161.16,397.7,156.25,394l5.27-7c2.76-3.66,5.27-6.83,7.91-9.69l-.1-.08A85.56,85.56,0,0,1,159,382.64l-11.25,4.91-6.11-4.62,17.86-23.67Zm7.38-2.92c-1,1.4-1.19,2.46-.07,3.31s2.1.37,3.27-.9l3.58,2.71c-2.49,2.86-5.44,2.67-8.56.32s-3.81-5-1.87-8.2Z"/><path d="M188.48,379.41l-5.34,10.07,9.76,5.17,5.33-10.07,5.91,3.13-13.87,26.2-5.91-3.13,5.81-11-9.76-5.17-5.81,11-5.95-3.15,13.88-26.21Z"/><path d="M213.79,391.34,211,399.67c-1.53,4.5-3.12,8.93-4.64,12.6l.17.05c2.57-2.79,5.7-5.87,8.39-8.3l9.78-9,6.5,2.2-9.51,28.09-5.84-2,2.81-8.29a123.28,123.28,0,0,1,4.47-11.68l-.13,0a86.42,86.42,0,0,1-8.14,8.39l-9.13,8.19-7.25-2.45L208,389.36Z"/><path d="M241.28,399.25l-1.45,8.68c-.78,4.69-1.64,9.31-2.56,13.18l.18,0c2.09-3.17,4.69-6.71,6.94-9.54l8.22-10.45,6.77,1.13-4.89,29.25-6.07-1,1.44-8.64c.75-4.51,1.51-8.49,2.53-12.25l-.13,0a85.4,85.4,0,0,1-6.68,9.59l-7.71,9.55-7.55-1.26,4.88-29.25Zm5.2-6c-.24,1.7.07,2.73,1.46,3s2-.64,2.49-2.3l4.42.74c-.88,3.68-3.58,4.88-7.44,4.24s-5.71-2.69-5.45-6.4Z"/><path d="M285.22,402.61l5.06,10.09c.94,2.05,1.69,3.76,2.48,5.51h.13c.3-1.3.64-3.31,1.2-5.87l2.45-10.55,7-.51L299.08,416c-1.46,4.74-3,9.35-5,12.24a9.59,9.59,0,0,1-7.57,4.48,9.15,9.15,0,0,1-3.32-.24l.09-5.39a9.31,9.31,0,0,0,2.21.06,4.33,4.33,0,0,0,3.79-3.06,1.38,1.38,0,0,0-.19-1.36l-11.45-19.58Z"/><path d="M311.22,399.57l2.5,11.12,10.77-2.42L322,397.15l6.53-1.46,6.5,28.93-6.53,1.46L325.77,414,315,416.4l2.72,12.1L311.15,430l-6.5-28.93Z"/><path d="M339.21,391.71l9.73,28-6.35,2.21-9.74-28Z"/><path d="M343.86,390.64a52.74,52.74,0,0,1,7.59-4.24c3.7-1.74,6.14-2.44,8.64-2.2a6.45,6.45,0,0,1,5.69,3.74c1.12,2.39.77,5.28-1.73,7.81l0,.08c3.46-.6,6.82.65,8.44,4.11a7.9,7.9,0,0,1-.12,7c-1.22,2.47-4.08,4.88-9.42,7.38a50.48,50.48,0,0,1-6.76,2.68Zm10.83,7.46,2-.94c3.18-1.49,4.28-3.61,3.35-5.6s-3-2.38-5.76-1.09a17.78,17.78,0,0,0-2.52,1.37ZM360.28,410a22.86,22.86,0,0,0,2.39-1c2.75-1.29,4.69-3.47,3.36-6.3s-4.2-2.64-7.23-1.22l-2.07,1Z"/><path d="M390.38,384.13,381.2,390,385,396l10.26-6.58,3,4.63L382.3,404.21l-16-25,15.41-9.88,3,4.63-9.74,6.25,3.32,5.18,9.19-5.89Z"/><path d="M385.05,367.43a55,55,0,0,1,6.54-6.31c3.17-2.66,5.94-3.95,8.47-4a8.69,8.69,0,0,1,6.84,3.22,9.47,9.47,0,0,1,2.44,7.15c-.36,3.12-2.33,6-5.37,8.59a18.37,18.37,0,0,1-1.83,1.37l6.82,8.12-5.09,4.27Zm13.75,6a9.64,9.64,0,0,0,1.83-1.31c2.73-2.29,3.25-5.09,1.3-7.41-1.76-2.09-4.25-2.12-6.81,0a11.3,11.3,0,0,0-2,2Z"/><path d="M439,354.76a19.1,19.1,0,0,1-4.18,6.49c-6.89,7.59-15.16,7.2-21.41,1.52-7.49-6.8-6.81-15.93-.77-22.57a17.48,17.48,0,0,1,5.89-4.52l3,4.59a14.42,14.42,0,0,0-4.6,3.43c-3.58,3.94-4,9.16.9,13.6,4.39,4,9.53,3.9,13.55-.53a16.65,16.65,0,0,0,3-4.78Z"/><path d="M422.84,328.05l7.32,4.89c3.95,2.64,7.81,5.33,11,7.75l.1-.14c-2-3.22-4.19-7-5.85-10.26l-6.14-11.79,3.81-5.7,24.66,16.48-3.43,5.12L447,329.54c-3.8-2.55-7.12-4.87-10.12-7.35l-.07.11a86.26,86.26,0,0,1,6,10l5.54,11-4.26,6.36-24.65-16.48Z"/><path d="M442.54,306.19l-3.43,7.19L434,311l9.84-20.57,5.08,2.43-3.49,7.31,21.67,10.36-2.9,6.08Z"/><path d="M466.33,276.92l-3.43,10.35,6.68,2.22,3.84-11.57,5.22,1.73-5.95,18-28.15-9.33,5.76-17.37,5.22,1.73-3.64,11,5.84,1.94,3.44-10.36Z"/><path d="M457.88,262.63l-1.53,7.82-5.53-1.09L455.21,247l5.52,1.09L459.18,256l23.57,4.63-1.29,6.6Z"/></g></g></svg>